{"glyphs":{"0":{"ha":694,"x_min":50,"x_max":667,"o":"m 428 970 q 581 909 521 970 q 667 650 667 824 q 637 391 667 521 q 556 168 607 261 q 289 -16 454 -16 q 101 88 162 -16 q 50 320 50 174 q 87 601 50 462 q 185 829 124 740 q 428 970 282 970 m 419 930 q 279 838 336 930 q 194 581 232 762 q 156 247 156 399 q 295 24 156 24 q 428 106 372 24 q 542 476 504 218 q 561 697 561 601 q 419 930 561 930 z "},"1":{"ha":694,"x_min":75,"x_max":553,"o":"m 519 956 l 486 796 l 384 189 q 372 105 372 122 q 389 55 372 68 q 454 39 406 41 l 553 33 l 546 -4 q 311 0 429 0 q 75 -4 193 0 l 82 33 l 200 47 q 245 70 232 51 q 267 142 258 88 l 387 873 q 243 815 260 823 l 127 758 l 117 765 l 132 847 l 165 855 q 360 913 291 886 l 499 970 l 519 956 z "},"2":{"ha":694,"x_min":17,"x_max":607,"o":"m 140 87 l 432 87 q 592 103 501 87 l 600 92 l 576 -4 q 298 0 436 0 q 17 -4 157 0 l 17 21 l 85 94 q 349 397 255 276 q 489 727 489 579 q 447 838 489 795 q 335 880 405 880 q 232 847 275 880 q 136 730 188 814 l 106 743 l 189 909 q 372 970 273 970 q 547 907 484 970 q 607 747 607 846 q 484 461 607 595 l 140 87 z "},"3":{"ha":694,"x_min":31,"x_max":621,"o":"m 31 46 l 69 248 l 102 240 q 97 181 97 202 q 134 79 97 115 q 267 31 182 31 q 413 91 355 31 q 501 316 501 182 q 453 453 501 406 q 313 503 403 503 q 205 481 269 503 l 197 497 l 222 557 l 235 556 q 281 554 266 554 q 441 617 378 554 q 500 757 500 676 q 462 850 500 815 q 360 886 424 886 q 283 869 314 886 q 211 806 252 852 l 182 772 l 155 790 l 236 928 q 397 970 329 970 q 563 910 501 970 q 610 791 610 864 q 564 659 610 715 q 408 545 517 603 q 548 489 504 523 q 621 326 621 434 q 525 101 621 197 q 397 16 471 47 q 235 -16 321 -16 q 127 -2 174 -16 q 31 46 81 12 z "},"4":{"ha":694,"x_min":21,"x_max":664,"o":"m 21 310 l 489 950 l 585 970 l 596 964 l 481 345 l 659 345 l 664 338 l 642 261 q 568 265 576 265 l 467 265 l 454 191 q 441 75 441 116 q 492 47 441 53 l 612 33 l 606 -4 q 376 0 490 0 q 146 -4 261 0 l 153 33 l 273 47 q 322 67 307 52 q 345 125 336 83 l 372 267 l 21 267 l 21 310 m 479 863 l 105 345 l 387 345 l 479 863 z "},"5":{"ha":694,"x_min":20,"x_max":682,"o":"m 160 457 l 131 469 l 220 956 l 231 962 l 260 960 q 454 953 378 953 q 629 956 539 953 l 674 958 l 682 946 l 633 865 q 428 859 513 859 q 261 865 355 859 l 191 530 q 261 578 228 564 q 384 603 319 603 q 555 539 491 603 q 618 369 618 476 q 566 178 618 275 q 422 33 514 83 q 235 -16 336 -16 q 119 1 169 -16 q 20 57 69 18 q 60 250 39 122 l 92 243 q 88 189 88 211 q 123 88 88 130 q 260 35 170 35 q 408 94 350 35 q 469 188 446 134 q 499 342 499 262 q 449 495 499 446 q 328 541 403 541 q 242 522 279 541 q 160 457 205 503 z "},"6":{"ha":694,"x_min":68,"x_max":651,"o":"m 651 964 l 629 882 l 618 880 q 528 907 570 907 q 398 863 459 907 q 290 737 337 819 q 184 432 227 627 q 277 526 236 495 q 433 579 351 579 q 566 529 516 579 q 622 366 622 473 q 573 174 622 262 q 427 26 522 81 q 280 -16 354 -16 q 143 39 197 -16 q 68 277 68 116 q 116 547 68 415 q 252 789 163 679 q 410 927 331 884 q 586 970 488 970 q 651 964 624 970 m 368 503 q 251 455 297 503 q 194 361 214 418 q 174 241 174 304 q 227 87 174 142 q 325 48 265 48 q 470 140 416 48 q 516 327 516 219 q 448 482 516 440 q 368 503 414 503 z "},"7":{"ha":694,"x_min":74,"x_max":697,"o":"m 74 7 l 102 52 q 214 228 172 159 l 600 852 l 264 852 q 154 846 233 852 l 126 845 l 118 850 l 140 961 q 453 954 237 958 l 549 953 q 667 955 580 952 l 697 956 l 697 907 l 522 625 q 195 -4 361 366 q 184 -3 187 -3 q 142 0 152 0 q 81 -4 134 0 l 74 7 z "},"8":{"ha":694,"x_min":50,"x_max":652,"o":"m 302 489 q 213 555 242 522 q 163 681 163 612 q 219 835 163 760 q 332 934 265 897 q 467 970 399 970 q 608 920 555 970 q 652 800 652 876 q 608 663 652 721 q 445 525 564 604 q 555 447 524 481 q 599 317 599 398 q 498 87 599 187 q 262 -16 395 -16 q 102 43 161 -16 q 50 180 50 95 q 136 377 50 288 q 203 434 169 411 q 302 489 237 457 m 339 469 q 156 205 156 374 q 199 81 156 125 q 307 43 238 43 q 426 91 378 43 q 493 271 493 159 q 469 370 493 334 q 379 446 446 407 l 339 469 m 404 547 q 557 772 557 644 q 521 874 557 836 q 423 912 484 912 q 313 868 357 912 q 257 724 257 812 q 287 633 257 669 q 357 574 319 595 l 404 547 z "},"9":{"ha":694,"x_min":45,"x_max":650,"o":"m 45 154 l 74 165 q 125 93 100 116 q 233 51 170 51 q 450 224 368 51 q 536 524 496 323 q 448 433 488 462 q 304 383 382 383 q 161 439 216 383 q 99 612 99 501 q 208 871 99 762 q 433 970 306 970 q 595 893 540 970 q 650 669 650 817 q 609 394 650 526 q 494 163 568 262 q 357 35 432 83 q 198 -16 277 -16 q 87 11 142 -16 q 78 47 84 25 q 45 154 61 114 m 394 908 q 279 861 326 908 q 205 652 205 785 q 254 498 205 549 q 359 458 295 458 q 472 505 427 458 q 545 705 545 579 q 490 869 545 814 q 394 908 452 908 z "}," ":{"ha":347,"x_min":0,"x_max":0,"o":""},"!":{"ha":463,"x_min":106,"x_max":406,"o":"m 190 151 q 234 132 216 151 q 252 85 252 113 q 227 17 252 45 q 168 -11 202 -11 q 122 6 139 -11 q 106 54 106 24 q 130 123 106 94 q 190 151 155 151 m 273 982 l 391 1018 l 406 1006 q 235 289 327 701 l 193 265 l 185 269 l 214 484 q 262 884 239 669 l 273 982 z "},"\"":{"ha":694,"x_min":195,"x_max":632,"o":"m 236 705 l 195 705 l 281 965 q 342 1018 298 1018 q 384 1003 368 1018 q 400 963 400 987 q 388 918 400 935 l 236 705 m 468 705 l 427 705 l 513 965 q 574 1018 530 1018 q 616 1003 600 1018 q 632 964 632 987 q 620 918 632 935 l 468 705 z "},"#":{"ha":694,"x_min":5,"x_max":688,"o":"m 652 393 l 652 315 l 501 315 l 458 0 l 378 0 l 420 315 l 235 315 l 189 0 l 108 0 l 154 315 l 5 315 l 5 393 l 166 393 l 195 587 l 43 587 l 43 665 l 207 665 l 250 961 l 330 961 l 287 665 l 472 665 l 513 961 l 594 961 l 553 665 l 688 665 l 688 587 l 541 587 l 513 393 l 652 393 m 460 587 l 276 587 l 247 393 l 433 393 l 460 587 z "},"$":{"ha":694,"x_min":21,"x_max":628,"o":"m 401 1018 l 453 1018 l 439 935 q 625 887 553 934 l 628 873 q 593 714 606 795 l 560 714 l 560 814 q 428 872 512 862 l 371 515 q 478 491 441 504 q 543 454 515 477 q 603 311 603 404 q 548 144 603 222 q 378 8 483 52 q 285 -15 344 -6 l 265 -157 l 208 -157 l 236 -16 q 95 7 137 -5 q 21 42 52 18 q 52 243 38 116 l 87 243 l 87 118 q 248 45 134 64 l 309 424 q 213 451 246 437 q 154 488 180 465 q 100 623 100 536 q 213 851 100 760 q 285 896 248 879 q 389 932 321 913 l 401 1018 m 355 418 l 294 45 q 408 83 361 48 q 475 164 451 115 q 500 268 500 213 q 468 366 500 333 q 355 418 437 398 m 326 524 l 380 872 q 278 841 319 870 q 216 766 239 812 q 193 667 193 719 q 223 576 193 610 q 326 524 254 543 z "},"%":{"ha":1235,"x_min":103,"x_max":1124,"o":"m 353 970 q 485 916 430 970 q 536 780 536 865 q 462 593 536 668 q 299 526 395 526 q 161 581 216 526 q 103 725 103 638 q 150 863 103 800 q 240 942 186 913 q 353 970 294 970 m 353 939 q 241 864 284 939 q 200 692 200 792 q 226 594 200 629 q 298 558 252 558 q 400 629 359 558 q 445 818 445 707 q 353 939 445 939 m 940 444 q 1072 390 1017 444 q 1124 254 1124 340 q 1049 67 1124 142 q 886 0 982 0 q 748 54 803 0 q 690 199 690 112 q 737 337 690 273 q 828 416 774 387 q 940 444 882 444 m 941 412 q 829 338 871 412 q 787 165 787 266 q 813 67 787 103 q 885 32 840 32 q 987 103 946 32 q 1032 292 1032 181 q 1008 381 1032 349 q 941 412 985 412 m 343 -9 l 286 -9 l 876 986 l 937 986 l 343 -9 z "},"&":{"ha":1080,"x_min":65,"x_max":1063,"o":"m 677 761 l 646 761 l 646 847 q 520 892 577 892 q 396 844 447 892 q 345 726 345 795 q 392 621 345 659 q 520 582 439 582 q 540 582 525 582 q 528 557 536 571 q 512 515 512 526 l 512 513 l 463 513 q 245 432 325 513 q 180 270 180 368 q 239 121 180 178 q 463 40 322 40 q 722 141 619 40 q 783 276 783 201 q 749 366 783 332 q 658 400 714 400 q 588 377 609 400 q 551 285 567 354 l 519 288 l 530 425 q 596 470 564 457 q 704 496 629 484 l 858 521 q 1015 633 1015 547 q 1004 674 1015 660 q 962 706 994 688 l 991 728 q 1047 684 1031 709 q 1063 616 1063 659 q 1027 513 1063 555 q 888 446 981 459 l 771 429 l 794 427 q 833 408 811 425 q 880 310 880 371 q 761 105 880 203 q 398 -25 601 -25 q 246 -1 316 -25 q 132 67 176 24 q 65 241 65 133 q 149 435 65 363 q 229 491 187 469 q 355 542 271 512 q 283 588 306 565 q 245 681 245 627 q 374 884 245 789 q 578 961 476 961 q 713 926 651 961 l 677 761 z "},"'":{"ha":463,"x_min":195,"x_max":400,"o":"m 236 705 l 195 705 l 281 965 q 342 1018 298 1018 q 384 1003 368 1018 q 400 963 400 987 q 388 918 400 935 l 236 705 z "},"(":{"ha":463,"x_min":75,"x_max":460,"o":"m 428 1018 l 460 989 q 300 781 346 859 q 176 292 176 568 q 242 -53 176 88 l 278 -129 l 248 -147 q 153 18 183 -43 q 105 144 123 79 q 75 357 75 248 q 194 749 75 565 q 286 872 237 815 q 428 1018 335 928 z "},")":{"ha":463,"x_min":3,"x_max":387,"o":"m 35 -147 l 3 -118 q 163 90 117 12 q 288 579 288 303 q 220 924 288 781 l 184 1000 l 215 1018 q 309 853 279 914 q 357 726 339 792 q 387 513 387 623 q 269 122 387 307 q 177 0 227 56 q 35 -147 128 -57 z "},"*":{"ha":541,"x_min":106,"x_max":556,"o":"m 106 844 l 152 924 l 165 922 l 310 778 l 340 974 l 355 981 l 441 956 l 442 945 l 343 762 l 538 797 l 547 790 l 556 709 l 547 701 l 346 728 l 436 561 l 431 550 l 350 511 l 340 517 l 310 713 l 161 578 l 144 579 l 109 659 l 114 668 l 290 746 l 113 832 l 106 844 z "},"+":{"ha":842,"x_min":71,"x_max":770,"o":"m 382 401 l 382 711 l 460 711 l 460 401 l 770 401 l 770 323 l 460 323 l 460 9 l 382 9 l 382 323 l 71 323 l 71 401 l 382 401 z "},",":{"ha":347,"x_min":11,"x_max":281,"o":"m 11 -184 q 132 86 90 -86 l 143 131 l 269 171 l 281 153 q 69 -180 214 -3 l 20 -199 l 11 -184 z "},"-":{"ha":463,"x_min":26,"x_max":422,"o":"m 26 309 l 53 390 l 422 390 l 397 309 l 26 309 z "},".":{"ha":347,"x_min":74,"x_max":220,"o":"m 158 155 q 202 136 184 155 q 220 89 220 117 q 195 21 220 50 q 136 -7 170 -7 q 91 11 107 -7 q 74 58 74 28 q 98 127 74 98 q 158 155 123 155 z "},"/":{"ha":411,"x_min":-56,"x_max":545,"o":"m 545 1018 l 28 -165 l -56 -165 l 461 1018 l 545 1018 z "},":":{"ha":347,"x_min":61,"x_max":288,"o":"m 145 155 q 189 136 171 155 q 207 89 207 117 q 182 21 207 50 q 123 -7 157 -7 q 78 11 94 -7 q 61 58 61 28 q 85 127 61 98 q 145 155 110 155 m 225 636 q 270 617 252 636 q 288 570 288 597 q 263 502 288 530 q 203 473 238 473 q 158 491 175 473 q 142 538 142 508 q 166 608 142 579 q 225 636 191 636 z "},";":{"ha":347,"x_min":-12,"x_max":304,"o":"m -12 -189 q 109 82 66 -90 l 120 126 l 246 167 l 258 149 q 46 -184 191 -7 l -3 -203 l -12 -189 m 242 633 q 287 614 269 633 q 304 566 304 595 q 280 499 304 527 q 220 471 255 471 q 175 488 192 471 q 159 536 159 505 q 183 604 159 576 q 242 633 208 633 z "},"<":{"ha":842,"x_min":69,"x_max":776,"o":"m 776 686 l 223 429 l 776 172 l 776 54 l 69 376 l 69 481 l 776 804 l 776 686 z "},"=":{"ha":842,"x_min":71,"x_max":770,"o":"m 770 536 l 770 458 l 71 458 l 71 536 l 770 536 m 770 267 l 770 189 l 71 189 l 71 267 l 770 267 z "},">":{"ha":842,"x_min":69,"x_max":776,"o":"m 69 686 l 69 804 l 776 481 l 776 376 l 69 54 l 69 172 l 622 429 l 69 686 z "},"?":{"ha":694,"x_min":158,"x_max":593,"o":"m 190 785 l 159 793 q 180 844 160 795 l 215 929 q 374 981 298 981 q 545 919 483 981 q 593 795 593 871 q 568 693 593 741 q 490 593 544 645 l 345 454 q 291 393 306 416 q 276 347 276 370 q 313 276 276 315 l 279 268 q 226 355 226 302 q 302 509 226 423 l 399 619 q 479 781 479 709 q 440 866 479 833 q 341 899 401 899 q 272 884 298 899 q 218 826 245 868 l 190 785 m 242 151 q 286 132 268 151 q 304 85 304 113 q 279 17 304 45 q 220 -11 254 -11 q 175 6 191 -11 q 158 54 158 24 q 182 123 158 94 q 242 151 207 151 z "},"@":{"ha":1038,"x_min":37,"x_max":997,"o":"m 925 244 l 990 244 q 882 104 938 153 q 547 -25 739 -25 q 271 52 398 -25 q 89 245 151 124 q 37 469 37 348 q 113 743 37 619 q 309 926 186 862 q 541 981 417 981 q 800 910 682 981 q 957 747 905 847 q 997 574 997 669 q 896 307 997 413 q 785 223 847 256 q 675 191 724 191 q 605 223 631 191 q 574 314 578 256 q 490 223 524 246 q 406 200 455 200 q 283 250 334 200 q 222 406 222 311 q 304 611 222 518 q 406 690 348 661 q 519 720 464 720 q 601 691 571 720 q 643 602 630 663 l 671 707 l 774 707 l 665 302 q 663 279 663 294 q 675 243 663 258 q 706 229 688 229 q 764 249 728 229 q 829 301 799 270 q 940 569 940 415 q 846 797 940 702 q 713 885 789 853 q 543 918 632 918 q 302 850 414 918 q 147 682 201 788 q 100 477 100 589 q 222 170 100 292 q 364 75 282 109 q 553 37 454 37 q 819 127 702 37 q 925 244 869 167 m 540 686 q 437 637 483 686 q 361 516 391 587 q 328 361 328 435 q 354 270 328 306 q 421 233 380 233 q 553 335 495 233 q 600 455 581 384 q 619 579 619 526 q 597 656 619 626 q 540 686 574 686 z "},"A":{"ha":1003,"x_min":-26,"x_max":940,"o":"m 642 979 l 705 979 l 826 111 q 845 55 833 66 q 904 39 857 44 l 940 35 l 940 -4 q 771 0 812 0 q 602 -4 730 0 l 602 35 l 663 39 q 722 77 722 43 q 719 107 722 86 q 717 123 718 115 l 682 385 l 340 385 l 199 142 q 163 65 163 80 q 176 48 163 56 q 205 39 189 40 l 278 35 l 278 -4 q 130 0 165 0 q -26 -4 92 0 l -26 37 l 1 45 q 63 77 37 54 q 123 155 89 101 l 642 979 m 623 834 l 375 435 l 675 435 l 623 834 z "},"B":{"ha":848,"x_min":36,"x_max":777,"o":"m 134 922 l 139 961 l 211 959 q 349 957 309 957 q 432 958 389 957 l 519 960 q 557 961 548 961 q 707 922 650 961 q 777 780 777 876 q 680 589 777 673 q 616 544 648 562 q 524 507 584 527 q 633 485 595 497 q 697 451 670 473 q 754 315 754 405 q 686 136 754 214 q 548 31 629 69 q 386 -8 467 -8 l 302 -5 l 250 -3 q 164 0 189 0 q 87 -2 140 0 l 36 -4 l 43 32 q 104 49 89 40 q 123 77 120 58 l 244 777 q 257 882 257 850 q 208 920 257 918 l 134 922 m 301 472 l 231 57 q 277 54 261 55 q 392 47 348 47 q 536 92 474 47 q 632 293 632 161 q 419 472 632 472 l 301 472 m 378 903 l 309 522 l 382 522 q 596 595 522 522 q 657 755 657 654 q 488 910 657 910 q 425 906 465 910 q 378 903 396 903 z "},"C":{"ha":926,"x_min":62,"x_max":904,"o":"m 829 721 l 829 838 q 713 890 771 874 q 581 907 656 907 q 317 807 414 907 q 231 675 260 749 q 184 429 184 559 q 282 135 184 234 q 522 49 367 49 q 669 71 603 49 q 833 153 735 93 l 847 143 l 833 93 q 663 4 739 29 q 476 -25 574 -25 q 170 83 279 -25 q 62 394 62 190 q 308 880 62 716 q 633 981 458 981 q 904 924 754 981 q 866 721 876 833 l 829 721 z "},"D":{"ha":1080,"x_min":39,"x_max":1029,"o":"m 45 32 q 56 35 50 33 q 119 77 114 46 l 240 777 q 252 882 252 847 q 204 920 252 918 l 130 922 l 134 961 q 305 957 288 957 l 589 961 q 770 943 683 962 q 902 892 857 924 q 1029 599 1029 801 q 829 153 1029 335 q 648 32 739 68 q 439 -4 557 -4 l 243 -1 l 200 0 l 168 0 l 39 -4 l 45 32 m 372 903 l 239 129 q 233 78 233 99 q 456 57 368 57 q 753 172 640 57 q 852 323 817 237 q 901 576 901 444 q 821 821 901 741 q 533 909 731 909 q 437 906 498 909 q 372 903 399 903 z "},"E":{"ha":848,"x_min":41,"x_max":791,"o":"m 307 464 l 247 113 q 244 70 244 96 l 244 64 q 427 54 352 54 q 632 67 576 54 q 667 87 654 72 q 688 140 679 103 l 711 224 l 748 224 l 741 187 q 719 50 724 94 l 713 0 l 667 -1 q 553 -4 587 -5 l 255 0 q 98 -3 206 1 l 41 -4 l 48 32 q 112 49 96 40 q 132 77 128 58 l 252 777 q 265 882 265 850 q 216 920 265 918 l 141 922 l 146 961 l 208 960 q 366 957 300 957 q 477 958 431 957 l 642 960 q 695 961 682 961 q 791 957 745 961 q 762 746 770 875 l 729 746 l 718 869 q 570 903 715 903 q 454 900 524 903 l 389 897 q 376 852 381 882 l 318 522 l 369 522 q 673 530 517 522 l 679 521 l 652 458 l 616 460 q 469 464 523 464 l 307 464 z "},"F":{"ha":772,"x_min":0,"x_max":761,"o":"m 374 897 q 361 852 366 882 l 297 476 l 349 476 q 653 484 498 476 l 659 475 l 632 412 l 595 414 q 449 418 503 418 l 286 418 l 235 109 q 233 79 233 96 q 244 49 233 58 q 283 39 256 40 l 372 35 l 368 -4 l 296 -2 q 176 0 214 0 q 47 -3 132 0 l 0 -4 l 5 35 l 56 39 q 109 61 98 42 q 136 174 120 80 l 240 777 q 253 882 253 850 q 204 920 253 918 l 126 922 l 131 961 l 199 959 q 341 957 284 957 q 382 957 369 957 l 610 960 q 668 961 656 961 q 761 957 713 961 q 732 746 740 874 l 699 746 l 688 869 q 647 893 686 884 q 544 903 608 903 q 397 899 480 903 l 374 897 z "},"G":{"ha":1003,"x_min":70,"x_max":964,"o":"m 734 83 l 758 212 q 768 294 768 264 q 749 327 768 319 q 652 339 729 334 l 604 342 l 611 380 q 791 374 688 374 q 964 380 892 374 l 961 342 l 917 334 q 880 304 884 326 l 847 117 q 846 101 846 111 q 850 61 846 87 l 844 52 q 767 31 816 47 l 726 17 q 494 -25 602 -25 q 173 86 286 -25 q 70 380 70 188 q 318 878 70 700 q 648 981 462 981 q 938 924 779 981 q 900 721 910 831 l 863 721 l 863 838 q 772 883 812 869 q 602 907 695 907 q 330 805 431 907 q 239 667 270 745 q 192 413 192 547 q 285 128 192 222 q 541 37 374 37 q 734 83 647 37 z "},"H":{"ha":1080,"x_min":-4,"x_max":1111,"o":"m 307 534 l 821 534 l 863 777 q 875 882 875 847 q 827 920 875 918 l 760 922 l 764 961 l 851 959 q 962 957 935 957 q 1089 960 1014 957 l 1111 961 l 1107 922 l 1057 918 q 1006 903 1019 915 q 986 851 994 891 l 859 129 q 853 80 853 100 q 864 50 853 59 q 903 39 876 40 l 983 35 l 979 -4 l 921 -3 q 796 0 833 0 q 677 -2 766 0 l 600 -4 l 606 35 l 675 39 q 727 60 716 41 q 755 174 738 78 l 811 472 l 727 473 q 555 476 600 476 q 385 473 511 476 l 300 472 l 241 129 q 236 80 236 96 q 247 50 236 59 q 286 39 258 41 l 354 35 l 350 -4 l 313 -3 q 179 0 223 0 q 54 -3 142 0 l -4 -4 l 1 35 l 58 39 q 112 61 100 42 q 139 174 123 81 l 241 777 q 254 882 254 850 q 205 920 254 918 l 140 922 l 144 961 l 234 959 q 340 957 312 957 q 466 960 385 957 l 498 961 l 494 922 l 436 918 q 386 903 398 916 q 366 851 373 891 l 307 534 z "},"I":{"ha":463,"x_min":9,"x_max":492,"o":"m 143 922 l 147 961 l 236 959 q 344 957 314 957 q 479 960 397 957 l 492 961 l 488 922 l 439 918 q 387 903 399 915 q 368 851 374 891 l 243 109 q 241 79 241 96 q 253 50 241 58 q 292 39 264 41 l 363 35 l 359 -4 l 315 -3 q 184 0 226 0 q 54 -3 142 0 l 9 -4 l 14 35 l 64 39 q 101 46 90 41 q 118 64 112 52 q 144 174 130 87 l 244 777 q 257 884 257 853 q 208 920 257 918 l 143 922 z "},"J":{"ha":463,"x_min":-49,"x_max":497,"o":"m 493 922 l 435 918 q 383 903 396 916 q 363 851 370 890 l 245 75 q 199 -109 229 -39 q 112 -240 163 -193 q 3 -286 60 -286 q -45 -273 -22 -286 l -49 -236 q -8 -242 -33 -242 q 63 -202 35 -242 q 119 -29 102 -149 l 252 864 q 253 882 253 875 q 204 920 253 918 l 138 922 l 143 961 l 232 959 q 339 957 310 957 q 465 960 384 957 l 497 961 l 493 922 z "},"K":{"ha":926,"x_min":18,"x_max":949,"o":"m 515 922 l 457 918 q 406 903 419 916 q 387 851 393 890 l 323 490 q 531 672 450 590 l 709 852 q 762 921 762 906 l 762 961 l 789 960 q 854 957 834 957 q 917 959 873 957 l 949 961 l 949 924 l 920 924 q 845 889 882 924 l 439 510 l 781 90 q 869 37 824 37 l 897 37 l 897 -4 q 803 0 855 -2 l 707 -4 q 532 227 599 144 q 321 472 466 309 l 260 109 q 258 79 258 95 q 270 50 258 58 q 309 39 281 41 l 376 35 l 372 -4 l 336 -3 q 201 0 245 0 q 77 -3 164 0 l 18 -4 l 24 35 l 81 39 q 134 62 122 42 q 161 174 146 81 l 262 777 q 275 882 275 851 q 227 920 275 918 l 161 922 l 165 961 l 255 959 q 362 957 333 957 q 487 960 406 957 l 519 961 l 515 922 z "},"L":{"ha":772,"x_min":22,"x_max":726,"o":"m 485 922 l 427 918 q 376 903 389 916 q 356 851 363 890 l 228 113 q 225 70 225 96 l 225 64 q 422 54 339 54 q 622 68 592 54 q 660 143 642 79 l 684 229 l 726 229 q 694 0 695 77 l 648 -1 q 534 -4 568 -5 l 236 0 q 79 -3 187 1 l 22 -4 l 29 32 q 93 49 77 40 q 113 77 109 58 l 232 777 q 245 882 245 850 q 196 920 245 918 l 131 922 l 135 961 l 224 959 q 331 957 302 957 q 456 960 376 957 l 489 961 l 485 922 z "},"M":{"ha":1311,"x_min":-26,"x_max":1305,"o":"m 1301 922 l 1249 920 q 1185 876 1187 916 l 1128 139 q 1126 87 1126 122 q 1201 39 1126 45 l 1253 35 l 1249 -4 l 1185 -3 q 1064 0 1098 0 q 943 -3 1031 0 l 878 -4 l 882 35 l 925 39 q 998 55 979 44 q 1018 93 1016 66 l 1070 815 l 997 694 q 666 119 831 418 l 586 -25 l 554 -25 l 347 777 l 175 134 q 165 76 165 98 q 233 39 165 44 l 286 35 l 282 -4 l 233 -3 q 130 0 159 0 q 27 -3 100 0 l -26 -4 l -22 32 q 59 57 35 39 q 97 129 82 76 l 298 836 q 302 864 302 850 q 281 903 302 890 q 205 920 260 915 l 170 922 l 174 961 l 256 958 q 289 957 269 957 q 366 959 313 957 l 406 961 l 614 158 l 956 745 q 1051 918 1006 831 l 1074 961 l 1156 958 q 1190 957 1168 957 q 1266 959 1213 957 l 1305 961 l 1301 922 z "},"N":{"ha":1080,"x_min":3,"x_max":1116,"o":"m 329 961 l 808 144 l 920 822 q 926 886 926 865 q 876 920 926 917 l 811 922 l 818 961 l 845 960 q 964 957 920 957 q 1087 960 1006 957 l 1116 961 l 1109 922 l 1058 920 q 1014 904 1023 918 q 975 753 996 879 l 844 -16 l 775 -16 l 306 787 l 195 142 q 191 100 191 120 q 203 54 191 65 q 258 39 216 42 l 317 35 l 310 -4 q 157 0 172 1 l 3 -4 l 9 35 l 53 39 q 103 61 90 43 q 127 142 116 79 l 250 800 q 254 825 253 817 q 256 832 256 831 q 257 842 257 839 q 244 867 257 850 q 215 897 231 884 q 146 920 188 917 l 97 922 l 104 961 l 184 958 l 203 957 q 216 957 216 957 l 329 961 z "},"O":{"ha":1080,"x_min":73,"x_max":1038,"o":"m 644 981 q 938 875 831 981 q 1038 591 1038 776 q 920 212 1038 380 q 637 3 810 59 q 448 -25 551 -25 q 291 0 361 -25 q 175 70 220 24 q 73 378 73 174 q 244 819 73 652 q 644 981 410 981 m 602 922 q 347 824 444 922 q 250 676 284 762 q 195 384 195 538 q 500 33 195 33 q 766 139 663 33 q 865 292 831 204 q 916 568 916 423 q 602 922 916 922 z "},"P":{"ha":848,"x_min":12,"x_max":825,"o":"m 146 922 l 150 961 l 223 960 q 380 957 356 956 l 572 961 q 672 950 622 962 q 749 920 722 939 q 825 752 825 866 q 719 498 825 604 q 494 400 621 400 q 373 432 440 400 l 370 475 q 481 449 439 449 q 620 509 560 449 q 703 721 703 594 q 655 861 703 814 q 494 911 605 911 q 394 900 456 911 q 372 806 373 812 l 258 129 q 252 80 252 96 q 263 50 252 59 q 302 39 275 40 l 393 35 l 389 -4 l 315 -2 q 196 0 231 0 q 71 -3 158 0 l 12 -4 l 18 35 l 75 39 q 128 61 116 42 q 155 174 140 81 l 258 777 q 271 882 271 850 q 222 920 271 918 l 146 922 z "},"Q":{"ha":1080,"x_min":73,"x_max":1038,"o":"m 210 -239 l 176 -221 q 176 -197 176 -207 q 223 -70 176 -118 q 349 -21 271 -21 q 440 -40 393 -21 l 768 -174 q 854 -195 819 -195 q 948 -85 936 -195 l 983 -85 q 933 -233 973 -186 q 815 -279 892 -279 q 744 -270 773 -279 q 651 -228 714 -261 l 450 -122 q 316 -82 373 -82 q 210 -239 210 -82 m 644 981 q 938 875 831 981 q 1038 591 1038 776 q 920 212 1038 380 q 637 3 810 59 q 448 -25 551 -25 q 291 -1 362 -25 q 176 69 220 24 q 73 378 73 174 q 244 819 73 652 q 644 981 410 981 m 602 922 q 347 824 444 922 q 250 676 284 762 q 195 384 195 538 q 500 33 195 33 q 766 139 663 33 q 865 292 831 204 q 916 568 916 423 q 602 922 916 922 z "},"R":{"ha":926,"x_min":12,"x_max":887,"o":"m 146 922 l 150 961 l 219 960 q 359 957 346 957 l 568 961 q 665 951 616 962 q 741 921 714 939 q 811 778 811 871 q 688 558 811 648 q 614 517 650 531 q 521 492 578 503 l 776 110 q 825 52 806 66 q 887 33 845 39 l 887 -4 l 823 -1 l 807 0 q 795 0 796 0 l 704 -4 q 560 230 623 133 q 370 509 498 326 l 375 525 l 436 525 q 625 598 552 525 q 689 753 689 662 q 504 911 689 911 q 398 900 450 911 q 376 806 378 817 l 258 129 q 252 80 252 96 q 263 50 252 59 q 302 39 275 41 l 370 35 l 366 -4 l 330 -3 q 195 0 239 0 q 71 -3 158 0 l 12 -4 l 18 35 l 75 39 q 127 61 116 42 q 155 174 139 80 l 260 777 q 272 882 272 848 q 223 920 272 918 l 146 922 z "},"S":{"ha":772,"x_min":58,"x_max":703,"o":"m 627 746 l 627 851 q 558 899 595 884 q 471 914 522 914 q 308 850 371 914 q 250 706 250 793 q 286 592 250 632 q 383 543 317 557 l 473 524 q 612 467 565 504 q 674 325 674 418 q 576 99 674 197 q 441 10 520 43 q 273 -25 358 -25 q 58 28 162 -25 q 92 239 80 131 l 134 239 l 134 102 q 223 55 180 69 q 322 41 266 41 q 501 108 435 41 q 564 266 564 170 q 452 411 564 384 l 319 443 q 185 521 224 466 q 150 654 150 572 q 238 863 150 776 q 368 949 294 919 q 519 981 443 981 q 703 933 613 981 q 668 746 677 848 l 627 746 z "},"T":{"ha":848,"x_min":73,"x_max":882,"o":"m 541 897 l 411 129 q 405 80 405 96 q 416 50 405 59 q 455 39 427 40 l 537 35 l 533 -4 l 472 -3 q 349 0 389 0 q 231 -2 314 0 l 151 -4 l 157 35 l 227 39 q 281 61 269 41 q 308 174 293 81 l 427 897 l 272 897 q 200 892 235 897 q 159 879 165 886 q 134 817 146 864 l 113 733 l 73 733 l 98 961 l 231 959 q 490 957 412 957 q 755 960 566 957 l 882 961 l 844 733 l 805 733 l 810 822 q 811 833 811 828 q 804 878 811 865 q 643 897 795 897 l 541 897 z "},"U":{"ha":1080,"x_min":122,"x_max":1108,"o":"m 1104 922 l 1054 918 q 1003 903 1015 915 q 983 851 990 891 l 866 146 q 857 71 857 92 q 901 40 857 43 l 985 35 l 978 -4 l 933 -2 q 853 0 877 0 q 766 -3 826 0 l 736 -4 l 729 3 q 766 179 751 92 q 670 84 711 117 q 568 22 629 52 q 382 -25 473 -25 q 192 42 260 -25 q 134 201 134 98 q 143 286 134 235 l 232 807 q 241 887 241 863 q 232 911 241 905 q 194 920 222 918 l 122 922 l 126 961 l 170 959 q 252 957 230 957 q 332 959 274 957 l 375 961 l 253 298 q 243 214 243 245 q 283 107 243 148 q 436 54 338 54 q 593 94 514 54 q 684 153 646 121 q 772 245 722 185 l 871 864 q 872 880 872 872 q 823 920 872 918 l 757 922 l 761 961 l 848 959 q 960 957 932 957 q 1086 960 1010 957 l 1108 961 l 1104 922 z "},"V":{"ha":1003,"x_min":104,"x_max":1048,"o":"m 430 133 l 835 817 q 857 875 857 854 q 778 920 857 913 l 742 922 l 742 961 l 806 959 q 914 957 892 957 q 1005 959 947 957 l 1048 961 l 1048 922 l 1023 920 q 978 903 994 916 q 937 848 961 889 l 412 -11 l 343 -11 l 221 852 q 200 903 216 890 q 139 920 184 916 l 104 922 l 104 961 l 161 959 q 277 957 239 957 q 392 959 315 957 l 449 961 l 449 922 l 391 920 q 345 908 358 918 q 332 877 332 899 q 332 867 332 871 l 430 133 z "},"W":{"ha":1311,"x_min":98,"x_max":1361,"o":"m 420 961 l 420 922 l 369 920 q 307 861 307 916 q 307 855 307 857 l 350 184 l 661 817 q 733 972 701 899 l 758 972 l 977 177 l 1181 819 q 1194 886 1194 859 q 1137 920 1194 916 l 1083 922 l 1090 961 l 1136 959 q 1227 957 1199 957 q 1316 959 1256 957 l 1361 961 l 1361 922 l 1333 920 q 1274 876 1286 915 l 1036 172 q 992 26 1011 100 l 983 -11 l 912 -11 q 858 214 884 123 l 703 758 l 391 142 q 322 -11 357 74 l 252 -11 q 241 220 250 109 l 197 817 q 179 896 193 876 q 123 920 165 915 l 98 922 l 98 961 l 153 959 q 253 957 228 957 q 366 959 292 957 l 420 961 z "},"X":{"ha":1003,"x_min":28,"x_max":1019,"o":"m 578 35 l 631 39 q 653 40 640 39 q 697 56 697 41 q 677 111 697 75 l 513 425 l 260 104 q 246 70 246 87 q 322 39 246 46 l 367 35 l 367 -4 q 202 0 284 0 q 28 -4 121 0 l 28 35 l 66 39 q 153 85 119 45 l 484 476 l 281 851 q 238 902 260 889 q 168 920 216 916 l 132 922 l 132 961 l 195 959 q 316 957 281 957 q 438 959 351 957 l 501 961 l 501 922 l 450 920 q 391 892 391 916 q 410 839 391 876 l 554 562 l 778 835 q 810 893 810 873 q 747 920 810 916 l 701 922 l 701 961 q 861 957 850 957 l 1019 961 l 1019 922 l 981 920 q 937 906 955 918 q 890 861 920 895 l 583 511 l 821 85 q 854 50 835 60 q 916 37 873 41 l 950 35 l 950 -4 q 765 0 857 0 q 578 -4 671 0 l 578 35 z "},"Y":{"ha":926,"x_min":72,"x_max":937,"o":"m 72 899 l 94 913 q 176 975 101 919 l 182 979 q 254 962 228 975 q 307 913 279 948 q 480 431 390 809 q 658 745 543 590 q 795 895 734 846 q 937 968 856 944 l 929 869 q 867 851 889 861 q 814 820 844 842 q 708 712 768 787 q 592 544 648 637 q 503 342 513 412 l 466 109 q 464 79 464 97 q 475 50 464 59 q 513 39 486 41 l 582 35 l 577 -4 l 541 -3 q 406 0 450 0 q 287 -2 371 0 l 214 -4 l 219 35 l 286 39 q 339 61 327 41 q 366 174 351 81 l 395 349 q 396 357 396 353 q 368 480 396 382 q 309 662 340 578 q 258 784 280 742 q 210 850 236 826 q 138 882 176 882 q 76 865 117 882 l 72 899 z "},"Z":{"ha":926,"x_min":28,"x_max":885,"o":"m 28 -4 l 28 26 l 725 905 l 475 905 q 225 887 321 905 l 216 859 q 188 740 195 789 l 151 740 q 167 961 165 873 l 330 959 l 623 956 q 660 957 636 956 l 885 961 l 885 933 l 184 54 l 575 54 q 751 73 662 54 l 762 103 q 795 197 780 152 l 806 228 l 842 228 q 810 -4 814 85 l 718 -3 q 357 0 568 0 q 28 -4 190 0 z "},"[":{"ha":463,"x_min":25,"x_max":453,"o":"m 453 1018 l 453 979 l 330 970 q 312 960 318 968 q 302 926 307 951 l 279 807 q 222 457 258 695 l 152 -19 q 147 -61 147 -51 q 186 -90 147 -87 l 296 -100 l 289 -139 l 231 -137 q 159 -135 186 -135 q 74 -137 130 -135 l 28 -139 l 25 -132 l 96 263 q 154 635 121 402 q 203 1013 187 868 l 214 1018 l 238 1017 q 334 1015 304 1015 q 429 1017 372 1015 l 453 1018 z "},"\\":{"ha":842,"x_min":113,"x_max":713,"o":"m 629 0 l 113 1018 l 196 1018 l 713 0 l 629 0 z "},"]":{"ha":463,"x_min":9,"x_max":437,"o":"m 9 -139 l 9 -100 l 132 -90 q 150 -81 144 -90 q 161 -47 156 -72 l 183 72 q 275 657 212 226 q 292 774 287 742 q 309 892 307 871 q 310 899 310 895 q 315 941 315 924 q 276 970 315 966 l 166 979 l 174 1018 l 232 1016 q 304 1014 283 1014 q 388 1017 324 1014 l 435 1018 l 437 1011 l 366 616 q 308 240 342 479 q 260 -134 274 2 l 248 -139 l 224 -138 q 129 -136 173 -136 q 33 -138 82 -136 l 9 -139 z "},"^":{"ha":842,"x_min":71,"x_max":769,"o":"m 155 393 l 71 393 l 375 957 l 467 957 l 769 393 l 684 393 l 420 871 l 155 393 z "},"_":{"ha":694,"x_min":-22,"x_max":672,"o":"m 672 -174 l -22 -174 l -22 -104 l 672 -104 l 672 -174 z "},"`":{"ha":463,"x_min":119,"x_max":431,"o":"m 383 720 l 158 860 q 119 911 119 884 q 135 941 119 928 q 173 954 151 954 q 218 929 193 954 l 431 720 l 383 720 z "},"a":{"ha":616,"x_min":5,"x_max":564,"o":"m 558 655 l 431 129 q 429 115 429 121 q 450 82 429 82 q 536 132 477 82 q 554 147 544 139 l 564 118 q 361 -13 406 -13 q 328 35 328 -13 q 336 107 328 69 l 376 284 q 189 62 271 135 q 53 -16 102 -16 q 19 16 33 -16 q 5 92 5 47 q 35 287 5 174 q 110 492 64 399 q 174 577 136 543 q 277 644 212 612 q 380 669 328 669 q 498 643 428 669 l 545 668 l 558 655 m 443 574 q 324 602 367 602 q 246 580 275 602 q 193 500 218 558 q 131 311 156 416 q 105 138 105 205 q 130 82 105 82 q 221 137 163 82 q 338 279 279 192 q 397 398 374 333 q 443 574 420 463 z "},"b":{"ha":643,"x_min":52,"x_max":602,"o":"m 326 1003 l 207 450 q 334 589 285 550 q 524 669 434 669 q 573 650 557 669 q 593 598 585 634 q 602 522 602 562 q 486 163 602 327 q 324 22 421 72 q 195 -16 251 -16 q 95 14 138 -16 q 52 84 52 44 q 53 98 52 92 l 193 864 q 196 897 196 880 q 149 930 196 930 l 82 930 l 87 960 q 208 978 161 966 q 310 1018 254 990 l 326 1003 m 448 589 q 370 563 416 589 q 289 501 323 537 q 174 265 211 420 q 155 140 155 191 q 254 50 155 50 q 430 191 363 50 q 481 339 462 258 q 501 488 501 421 q 448 589 501 589 z "},"c":{"ha":565,"x_min":35,"x_max":540,"o":"m 475 458 l 475 541 q 442 584 475 566 q 362 602 409 602 q 256 568 300 602 q 170 420 201 526 q 140 220 140 323 q 258 55 140 55 q 339 75 295 55 q 459 146 382 95 l 480 159 l 492 132 l 422 75 q 205 -16 311 -16 q 35 189 35 -16 q 70 398 35 298 q 163 549 106 497 q 291 635 222 602 q 406 669 359 669 q 540 636 487 669 q 507 458 522 585 l 475 458 z "},"d":{"ha":694,"x_min":24,"x_max":671,"o":"m 671 1003 l 496 178 q 485 113 485 128 q 505 82 485 82 q 558 106 525 82 l 620 149 l 633 122 l 521 39 q 417 -13 451 -13 q 380 33 380 -13 q 403 175 380 85 l 434 300 q 321 144 365 196 q 221 46 277 92 q 85 -16 146 -16 q 24 119 24 -16 q 43 297 24 208 q 94 448 62 387 q 228 605 143 540 q 385 669 313 669 q 498 650 437 669 l 538 864 q 541 897 541 880 q 493 930 541 930 l 427 930 l 432 960 q 552 978 506 966 q 654 1018 598 990 l 671 1003 m 485 569 q 338 602 422 602 q 256 581 282 602 q 171 425 210 545 q 123 136 123 278 q 158 82 123 82 q 215 104 178 82 q 289 161 252 127 q 402 309 354 222 q 468 487 450 396 l 485 569 z "},"e":{"ha":541,"x_min":21,"x_max":519,"o":"m 467 127 q 305 17 370 49 q 181 -16 241 -16 q 66 27 109 -16 q 21 156 21 72 q 47 330 21 227 q 104 484 73 432 q 240 610 145 551 q 402 669 334 669 q 488 640 456 669 q 519 561 519 610 q 347 359 519 435 q 252 325 290 334 l 138 297 q 127 186 127 238 q 161 78 127 112 q 233 50 190 50 q 422 130 308 50 l 456 154 l 467 127 m 144 329 q 296 378 238 349 q 383 448 350 404 q 416 540 416 493 q 398 592 416 572 q 350 611 380 611 q 296 600 325 611 q 248 572 267 589 q 157 380 191 520 l 144 329 z "},"f":{"ha":386,"x_min":-225,"x_max":574,"o":"m 397 532 l 253 532 q 227 410 235 450 q 112 -78 150 43 q 10 -275 73 -200 q -82 -353 -31 -323 q -176 -383 -134 -383 q -225 -372 -203 -383 q -193 -261 -207 -330 l -174 -256 q -141 -287 -156 -279 q -102 -296 -125 -296 q -36 -266 -62 -296 q 5 -197 -11 -236 q 38 -86 21 -159 q 139 454 88 128 l 151 532 l 39 532 l 45 562 q 165 614 92 578 l 186 724 q 248 875 206 831 q 337 948 271 899 q 428 1008 404 997 q 476 1018 448 1018 q 574 1000 532 1018 l 566 979 q 534 886 549 933 l 521 880 q 478 920 505 905 q 422 935 452 935 q 343 893 373 935 q 296 762 313 852 l 267 607 l 288 607 q 405 616 367 607 l 415 619 l 420 610 q 397 532 408 576 z "},"g":{"ha":694,"x_min":-52,"x_max":692,"o":"m 333 203 q 324 191 330 198 q 296 138 296 156 q 361 49 296 102 l 444 -20 q 533 -168 533 -92 q 498 -262 533 -217 q 404 -336 463 -308 q 197 -383 305 -383 q 16 -339 83 -383 q -52 -220 -52 -295 q 22 -73 -52 -134 q 101 -19 60 -39 q 222 26 142 1 q 193 73 193 50 q 231 138 193 102 l 288 191 q 245 189 265 189 q 121 234 165 189 q 76 360 76 279 q 194 597 76 509 q 381 669 291 669 q 475 651 429 669 q 515 628 501 641 q 546 589 530 616 q 688 601 640 589 l 692 593 l 679 530 q 611 525 639 525 q 562 528 593 525 l 564 520 q 568 477 568 493 q 450 258 568 347 q 333 203 396 218 m 244 1 q 107 -63 153 -25 q 37 -201 37 -120 q 73 -290 37 -256 q 231 -345 131 -345 q 380 -306 319 -345 q 441 -214 441 -268 q 420 -148 441 -179 q 351 -81 399 -117 l 244 1 m 348 622 q 237 576 283 622 q 174 399 174 515 q 303 233 174 233 q 429 311 384 233 q 468 473 468 378 q 348 622 468 622 z "},"h":{"ha":694,"x_min":14,"x_max":654,"o":"m 328 1003 l 191 368 l 218 403 q 355 549 297 502 q 480 637 421 605 q 574 669 539 669 q 615 620 615 669 q 600 516 615 578 l 511 161 q 501 106 501 123 q 506 86 501 95 q 519 78 511 78 q 604 119 541 78 l 640 143 l 654 118 q 505 15 551 42 q 431 -12 458 -12 q 390 42 390 -12 q 408 149 390 79 l 479 420 q 500 544 500 501 q 470 574 500 574 q 399 543 444 574 q 302 456 354 511 q 181 277 218 366 q 119 9 144 188 l 23 -12 l 14 3 q 136 538 76 203 l 194 864 q 197 897 197 878 q 150 930 197 930 l 83 930 l 89 960 q 209 978 163 966 q 311 1018 254 990 l 328 1003 z "},"i":{"ha":386,"x_min":47,"x_max":366,"o":"m 47 538 l 85 566 q 207 646 165 623 q 271 669 248 669 q 306 633 306 669 q 298 583 306 614 l 191 161 q 182 106 182 123 q 199 78 182 78 q 284 119 221 78 l 320 143 l 334 118 q 185 15 233 43 q 112 -12 138 -12 q 71 42 71 -12 q 88 149 71 83 l 180 481 q 191 543 191 522 q 184 565 191 556 q 166 574 177 574 q 102 540 156 574 l 56 511 l 47 538 m 315 989 q 352 973 338 989 q 366 932 366 957 q 345 865 366 892 q 290 839 323 839 q 235 897 235 839 q 260 960 235 932 q 315 989 285 989 z "},"j":{"ha":386,"x_min":-98,"x_max":368,"o":"m -98 -374 l -87 -294 q -13 -321 -42 -321 q 23 -288 5 -321 q 52 -200 41 -255 l 191 487 q 195 503 191 490 q 201 543 201 532 q 176 574 201 574 q 111 540 165 574 l 66 511 l 56 538 l 96 566 q 217 646 175 623 q 281 669 258 669 q 316 635 316 669 q 308 583 316 621 l 202 97 q 156 -100 174 -35 q 117 -212 138 -165 q -45 -383 40 -383 q -98 -374 -77 -383 m 317 989 q 353 973 339 989 q 368 932 368 957 q 346 865 368 892 q 291 839 324 839 q 251 854 266 839 q 237 897 237 869 q 261 960 237 932 q 317 989 286 989 z "},"k":{"ha":616,"x_min":11,"x_max":623,"o":"m 325 1003 l 176 319 q 306 491 256 433 q 417 602 355 548 q 557 669 494 669 q 623 656 584 669 l 600 569 q 550 577 567 577 q 446 549 498 577 q 332 458 395 521 l 312 439 q 446 104 382 219 q 481 72 463 72 q 522 86 496 72 l 582 119 l 593 93 l 529 49 q 417 -12 441 -12 q 366 38 393 -12 q 241 359 324 118 q 149 183 166 280 l 117 11 l 23 -12 l 11 1 q 125 492 103 370 l 191 864 q 194 897 194 878 q 147 930 194 930 l 80 930 l 86 960 q 206 978 160 966 q 308 1018 252 990 l 325 1003 z "},"l":{"ha":386,"x_min":50,"x_max":348,"o":"m 348 1003 l 170 157 q 167 144 169 155 q 161 106 161 118 q 166 86 161 94 q 178 78 171 78 q 263 119 200 78 l 300 143 l 313 118 q 166 16 214 45 q 91 -12 117 -12 q 50 43 50 -12 q 76 184 50 84 l 96 256 q 157 539 115 330 q 210 833 198 748 l 214 864 q 218 899 218 895 q 170 930 218 930 l 104 930 l 109 960 q 229 978 183 966 q 332 1018 275 990 l 348 1003 z "},"m":{"ha":1080,"x_min":33,"x_max":1027,"o":"m 1027 118 q 878 14 923 41 q 805 -12 832 -12 q 764 43 764 -12 q 782 149 764 90 q 841 367 804 224 q 871 490 867 467 q 876 540 876 513 q 859 574 876 574 q 667 441 787 574 q 537 157 572 334 l 508 8 l 412 -12 l 406 3 l 427 96 q 515 546 515 471 q 500 574 515 574 q 428 546 471 574 q 340 469 384 517 q 251 336 283 407 q 193 150 218 265 l 162 8 l 68 -12 l 64 3 q 142 319 106 151 q 178 540 178 486 q 153 574 178 574 q 88 540 142 574 l 43 511 l 33 538 l 72 566 q 256 669 216 669 q 288 626 288 669 q 281 566 288 598 l 235 382 q 335 509 303 473 q 414 581 368 545 q 595 669 530 669 q 631 627 631 669 q 622 568 631 609 l 580 378 q 675 494 631 449 q 784 584 720 538 q 962 669 905 669 q 998 631 998 669 q 989 573 998 608 l 884 161 q 875 106 875 123 q 880 86 875 95 q 892 78 885 78 q 978 119 914 78 l 1014 143 l 1027 118 z "},"n":{"ha":772,"x_min":33,"x_max":714,"o":"m 33 538 l 72 566 q 256 669 216 669 q 288 624 288 669 q 281 566 288 600 l 228 342 q 391 541 323 477 q 518 634 452 598 q 628 669 584 669 q 671 620 671 669 q 656 516 671 581 l 564 133 q 561 106 561 119 q 566 86 561 94 q 578 78 571 78 q 664 119 600 78 l 700 143 l 714 118 q 566 16 614 44 q 491 -12 517 -12 q 450 43 450 -12 q 467 142 450 74 l 468 149 l 541 443 q 555 542 555 505 q 532 574 555 574 q 416 517 485 574 q 290 372 347 459 q 216 221 242 300 q 171 11 191 142 q 73 -12 127 3 l 64 3 q 142 319 106 151 q 178 540 178 486 q 153 574 178 574 q 88 540 142 574 l 43 511 l 33 538 z "},"o":{"ha":616,"x_min":24,"x_max":571,"o":"m 387 669 q 514 623 467 669 q 571 460 571 565 q 530 248 571 355 q 424 79 488 140 q 318 9 376 35 q 201 -16 259 -16 q 80 30 125 -16 q 24 212 24 87 q 85 472 24 359 q 217 614 132 558 q 387 669 302 669 m 335 616 q 252 593 280 616 q 165 436 200 551 q 130 210 130 322 q 161 85 130 130 q 257 37 194 37 q 361 83 323 37 q 442 262 414 146 q 465 438 465 354 q 335 616 465 616 z "},"p":{"ha":694,"x_min":-9,"x_max":646,"o":"m 160 4 l 102 -359 q 0 -383 41 -370 l -9 -375 l 2 -324 q 70 11 47 -121 l 151 487 q 156 541 156 517 q 132 572 156 572 q 66 539 116 572 l 21 511 l 12 538 l 50 566 q 235 669 195 669 q 265 628 265 669 q 258 566 265 600 l 226 401 q 291 497 263 463 q 359 568 318 531 q 564 669 473 669 q 621 633 600 669 q 646 515 646 590 q 570 222 646 376 q 493 117 540 162 q 372 31 447 71 q 245 -16 289 -16 q 172 0 224 -16 l 160 4 m 174 82 q 288 50 226 50 q 417 111 374 50 q 534 389 498 229 q 546 495 546 448 q 494 589 546 589 q 382 543 443 589 q 264 404 315 490 q 199 229 214 317 l 174 82 z "},"q":{"ha":643,"x_min":33,"x_max":600,"o":"m 534 636 l 581 667 l 600 658 q 562 494 583 604 l 444 -139 q 416 -359 426 -231 q 297 -383 362 -368 l 285 -363 q 322 -285 313 -331 l 428 290 q 196 35 332 131 l 184 26 q 83 -16 125 -16 q 33 108 33 -16 q 67 343 33 216 q 143 519 101 470 q 285 635 197 582 q 394 669 341 669 q 534 636 451 669 m 488 564 q 353 602 403 602 q 251 568 279 602 q 158 338 199 506 q 133 157 133 233 q 163 82 133 82 q 250 126 194 82 q 360 237 307 170 q 458 432 435 330 l 488 564 z "},"r":{"ha":541,"x_min":37,"x_max":534,"o":"m 511 507 l 492 507 q 443 533 471 533 q 327 443 396 533 q 255 322 281 383 q 209 175 228 262 l 173 8 l 155 5 q 79 -12 110 -3 l 66 -3 q 157 371 119 169 q 181 542 181 503 q 157 572 181 572 q 91 539 141 572 l 46 511 l 37 538 l 75 566 q 260 669 220 669 q 292 624 292 669 q 284 566 292 598 l 275 530 q 250 412 263 482 l 239 355 q 333 511 267 416 l 370 564 q 506 669 443 669 q 534 661 515 669 q 511 507 518 580 z "},"s":{"ha":541,"x_min":12,"x_max":479,"o":"m 43 205 l 77 205 l 77 89 q 208 40 135 40 q 330 85 284 40 q 370 192 370 125 q 352 253 370 233 q 287 282 333 273 l 199 298 q 65 439 65 324 q 117 561 65 509 q 226 641 166 612 q 340 669 286 669 q 479 631 404 669 q 452 475 460 542 l 420 475 l 420 551 q 368 597 404 580 q 289 614 332 614 q 188 576 229 614 q 147 484 147 539 q 171 419 147 440 q 256 387 195 399 l 316 376 q 429 330 394 361 q 463 241 463 298 q 440 148 463 189 q 363 65 416 106 q 161 -16 260 -16 q 12 22 89 -16 q 43 205 33 113 z "},"t":{"ha":463,"x_min":57,"x_max":431,"o":"m 174 542 l 57 542 l 60 560 q 182 611 98 571 l 217 848 q 325 897 279 871 l 340 877 q 278 603 308 776 q 431 611 353 604 l 415 542 l 267 542 l 250 456 q 189 106 189 160 q 208 78 189 78 q 292 119 232 78 l 354 163 l 368 138 l 346 120 q 201 13 243 38 q 119 -12 158 -12 q 78 43 78 -12 q 90 119 78 66 q 96 149 94 136 l 174 542 z "},"u":{"ha":772,"x_min":45,"x_max":711,"o":"m 515 332 q 390 163 460 243 q 142 -16 232 -16 q 107 1 121 -16 q 94 41 94 17 q 99 107 94 81 l 186 519 q 189 543 189 533 q 165 572 189 572 q 99 539 149 572 l 54 511 l 45 538 l 83 566 q 268 669 228 669 q 299 626 299 669 q 292 566 299 600 l 213 190 q 203 117 203 142 q 221 82 203 82 q 281 104 250 82 q 419 241 354 159 q 515 400 485 323 q 566 574 547 477 l 579 646 l 674 669 l 684 656 q 567 161 618 401 l 566 153 q 559 106 559 123 q 576 82 559 82 q 661 119 604 82 l 698 143 l 711 118 q 562 15 608 42 q 489 -12 516 -12 q 448 43 448 -12 q 463 134 448 79 l 515 332 z "},"v":{"ha":694,"x_min":29,"x_max":663,"o":"m 461 587 l 530 652 q 576 669 549 669 q 638 631 614 669 q 663 533 663 593 q 647 429 663 491 q 608 315 631 368 q 433 66 539 161 q 258 -16 342 -16 q 158 25 199 -16 q 106 168 106 77 q 154 368 106 272 q 318 589 202 463 q 232 583 273 583 q 191 584 208 583 q 153 586 161 586 q 83 547 99 586 l 60 488 l 29 488 q 82 652 55 597 q 126 662 103 662 q 143 661 132 662 l 160 659 q 298 652 230 652 q 382 669 347 652 l 396 644 q 275 467 315 543 q 205 203 205 332 q 245 83 205 121 q 316 54 274 54 q 384 75 348 54 q 450 133 420 96 q 539 298 505 200 q 574 485 574 395 q 514 573 574 573 q 476 561 495 573 l 461 587 z "},"w":{"ha":1003,"x_min":29,"x_max":970,"o":"m 770 587 l 839 652 q 884 669 857 669 q 946 631 922 669 q 970 533 970 593 q 955 429 970 490 q 916 315 940 368 q 741 66 847 161 q 571 -16 650 -16 q 510 9 535 -16 q 469 134 469 52 q 486 260 469 176 q 353 52 410 113 q 222 -16 288 -16 q 130 41 163 -16 q 100 174 100 94 q 139 346 100 263 q 273 538 179 429 q 310 583 300 570 l 314 589 q 232 583 273 583 q 191 584 208 583 q 153 586 161 586 q 83 547 99 586 l 60 488 l 29 488 q 82 652 55 597 q 126 662 103 662 q 143 661 132 662 l 160 659 q 298 652 230 652 q 382 669 347 652 l 396 644 q 295 512 332 571 q 232 379 258 453 q 201 188 201 294 q 223 90 201 127 q 281 54 245 54 q 432 214 347 54 q 508 432 486 315 l 549 639 l 652 669 l 661 658 l 589 403 q 559 185 559 299 q 579 91 559 127 q 628 54 598 54 q 693 76 657 54 q 758 133 729 98 q 847 298 813 201 q 882 485 882 395 q 823 573 882 573 q 785 561 803 573 l 770 587 z "},"x":{"ha":694,"x_min":13,"x_max":673,"o":"m 30 122 l 58 126 l 73 87 q 111 75 78 75 q 257 212 168 75 l 313 298 l 298 385 q 256 532 279 487 q 198 578 233 578 q 102 511 161 578 l 78 525 l 159 640 q 238 669 179 669 q 330 627 300 669 q 374 481 361 585 l 382 415 l 434 492 q 544 629 498 588 q 630 669 589 669 q 673 655 649 669 l 652 537 l 632 532 q 586 564 622 564 q 522 537 553 564 q 441 441 490 510 l 392 374 l 417 233 q 505 73 446 73 q 612 136 536 73 l 624 110 l 556 49 q 436 -16 484 -16 q 336 157 363 -16 l 321 253 l 216 90 q 73 -16 147 -16 q 13 1 47 -16 q 18 33 15 14 q 30 122 28 86 z "},"y":{"ha":694,"x_min":-11,"x_max":681,"o":"m -9 -250 l 57 -203 l 71 -208 q 68 -239 68 -227 q 93 -300 68 -276 q 155 -325 118 -325 q 283 -243 227 -325 q 392 22 338 -162 l 460 259 q 304 63 382 141 q 189 -16 227 -16 q 145 12 161 -16 q 128 83 128 39 q 130 139 128 119 l 153 476 q 154 497 154 488 q 124 569 154 569 q 89 552 116 569 l 20 511 l 5 536 l 119 614 q 189 659 170 649 q 222 669 208 669 q 256 582 256 669 q 250 447 256 515 l 229 178 q 229 160 229 165 q 256 93 229 93 q 323 132 279 93 q 403 225 367 172 q 469 343 437 276 q 514 460 501 411 l 563 643 q 665 669 608 648 l 681 656 l 485 46 q 345 -232 432 -121 q 104 -383 227 -383 q 23 -351 56 -383 q -11 -275 -11 -319 q -9 -250 -11 -265 z "},"z":{"ha":616,"x_min":-1,"x_max":578,"o":"m -1 29 l 488 585 q 359 553 427 553 q 248 566 316 553 q 184 574 211 574 q 131 566 161 574 l 89 486 l 60 486 l 104 655 q 189 669 153 669 q 275 654 216 669 l 300 647 q 486 618 410 618 q 533 637 514 618 l 566 669 l 578 656 l 570 612 l 99 81 q 230 111 168 111 q 351 94 275 111 l 375 89 q 443 79 421 79 q 497 114 484 79 l 528 197 l 558 197 q 517 -1 537 110 q 448 -16 468 -16 q 283 12 395 -16 q 138 36 184 36 q 11 -8 68 36 l -1 29 z "},"{":{"ha":463,"x_min":21,"x_max":444,"o":"m 21 437 q 115 491 87 458 q 155 593 142 523 l 195 832 q 265 977 212 937 q 444 1018 317 1016 q 345 964 375 999 q 299 851 312 927 l 257 612 q 212 493 242 528 q 110 437 182 457 q 182 399 161 422 q 203 334 203 376 q 195 253 203 300 l 156 28 q 151 -24 151 1 q 172 -100 151 -75 q 243 -139 193 -126 q 111 -120 149 -137 q 56 -14 56 -96 q 62 64 56 23 l 100 281 q 106 343 106 317 q 88 402 106 382 q 21 437 70 422 z "},"|":{"ha":842,"x_min":382,"x_max":460,"o":"m 382 -339 l 382 1042 l 460 1042 l 460 -339 l 382 -339 z "},"}":{"ha":463,"x_min":20,"x_max":442,"o":"m 442 441 q 348 389 376 420 q 309 286 321 357 l 269 47 q 198 -97 250 -58 q 20 -139 146 -136 q 118 -85 87 -120 q 164 28 151 -47 l 205 267 q 250 386 220 351 q 353 441 280 422 q 281 480 302 456 q 260 545 260 503 q 269 627 260 581 l 307 851 q 311 903 311 876 q 291 979 311 954 q 220 1018 271 1005 q 352 1000 314 1016 q 407 892 407 975 q 400 815 407 854 l 363 599 q 357 535 357 564 q 375 477 357 497 q 442 441 393 457 z "},"~":{"ha":842,"x_min":71,"x_max":770,"o":"m 770 418 q 691 311 728 343 q 578 262 634 262 q 515 273 551 262 q 398 318 479 285 q 311 352 332 346 q 265 358 290 358 q 191 331 223 358 q 119 234 159 304 l 71 273 q 180 411 131 378 q 264 438 220 438 q 334 427 299 438 q 474 370 370 416 q 576 340 545 340 q 723 456 657 340 l 770 418 z "},"Ä":{"ha":1003,"x_min":-26,"x_max":940,"o":"m 642 979 l 705 979 l 826 111 q 845 55 833 66 q 904 39 857 44 l 940 35 l 940 -4 q 771 0 812 0 q 602 -4 730 0 l 602 35 l 663 39 q 722 77 722 43 q 719 107 722 86 q 717 123 718 115 l 682 385 l 340 385 l 199 142 q 163 65 163 80 q 176 48 163 56 q 205 39 189 40 l 278 35 l 278 -4 q 130 0 165 0 q -26 -4 92 0 l -26 37 l 1 45 q 63 77 37 54 q 123 155 89 101 l 642 979 m 623 834 l 375 435 l 675 435 l 623 834 m 532 1177 q 581 1156 559 1177 q 602 1109 602 1135 q 580 1059 602 1081 q 532 1038 559 1038 q 484 1059 505 1038 q 463 1109 463 1081 q 484 1156 463 1136 q 532 1177 505 1177 m 810 1177 q 858 1156 837 1177 q 879 1108 879 1135 q 858 1059 879 1081 q 809 1038 836 1038 q 761 1059 783 1038 q 740 1109 740 1081 q 761 1156 740 1136 q 810 1177 782 1177 z "},"Å":{"ha":1003,"x_min":-26,"x_max":940,"o":"m 642 979 l 705 979 l 826 111 q 845 55 833 66 q 904 39 857 44 l 940 35 l 940 -4 q 771 0 812 0 q 602 -4 730 0 l 602 35 l 663 39 q 722 77 722 43 q 719 107 722 86 q 717 123 718 115 l 682 385 l 340 385 l 199 142 q 163 65 163 80 q 176 48 163 56 q 205 39 189 40 l 278 35 l 278 -4 q 130 0 165 0 q -26 -4 92 0 l -26 37 l 1 45 q 63 77 37 54 q 123 155 89 101 l 642 979 m 623 834 l 375 435 l 675 435 l 623 834 m 688 1302 q 784 1261 744 1302 q 825 1163 825 1220 q 785 1066 825 1106 q 686 1024 744 1024 q 588 1064 628 1024 q 547 1163 547 1105 q 588 1262 547 1221 q 688 1302 629 1302 m 687 1252 q 624 1228 648 1252 q 600 1163 600 1204 q 624 1099 600 1123 q 686 1074 647 1074 q 748 1099 725 1074 q 772 1163 772 1123 q 748 1227 772 1202 q 687 1252 725 1252 z "},"Ç":{"ha":926,"x_min":62,"x_max":904,"o":"m 465 -25 l 420 -89 q 452 -86 439 -86 q 537 -112 506 -86 q 568 -183 568 -138 q 515 -273 568 -242 q 396 -300 468 -300 q 275 -273 349 -300 l 298 -232 q 394 -252 360 -252 q 448 -234 427 -252 q 468 -189 468 -217 q 450 -151 468 -165 q 403 -136 432 -136 q 357 -144 388 -136 l 344 -134 l 415 -22 l 410 -22 q 170 83 258 -6 q 62 394 62 191 q 308 880 62 716 q 633 981 458 981 q 904 924 754 981 q 866 721 876 833 l 829 721 l 829 838 q 713 890 771 874 q 581 907 656 907 q 317 807 414 907 q 231 675 260 749 q 184 429 184 559 q 282 135 184 234 q 522 49 367 49 q 669 71 603 49 q 833 153 735 93 l 847 143 l 833 93 q 475 -25 670 -24 l 469 -25 l 465 -25 z "},"É":{"ha":848,"x_min":41,"x_max":791,"o":"m 307 464 l 247 113 q 244 70 244 96 l 244 64 q 427 54 352 54 q 632 67 576 54 q 667 87 654 72 q 688 140 679 103 l 711 224 l 748 224 l 741 187 q 719 50 724 94 l 713 0 l 667 -1 q 553 -4 587 -5 l 255 0 q 98 -3 206 1 l 41 -4 l 48 32 q 112 49 96 40 q 132 77 128 58 l 252 777 q 265 882 265 850 q 216 920 265 918 l 141 922 l 146 961 l 208 960 q 366 957 300 957 q 477 958 431 957 l 642 960 q 695 961 682 961 q 791 957 745 961 q 762 746 770 875 l 729 746 l 718 869 q 570 903 715 903 q 454 900 524 903 l 389 897 q 376 852 381 882 l 318 522 l 369 522 q 673 530 517 522 l 679 521 l 652 458 l 616 460 q 469 464 523 464 l 307 464 m 381 1011 l 593 1221 q 639 1246 618 1246 q 676 1233 660 1246 q 692 1204 692 1221 q 653 1152 692 1175 l 428 1011 l 381 1011 z "},"Ñ":{"ha":1080,"x_min":3,"x_max":1116,"o":"m 329 961 l 808 144 l 920 822 q 926 886 926 865 q 876 920 926 917 l 811 922 l 818 961 l 845 960 q 964 957 920 957 q 1087 960 1006 957 l 1116 961 l 1109 922 l 1058 920 q 1014 904 1023 918 q 975 753 996 879 l 844 -16 l 775 -16 l 306 787 l 195 142 q 191 100 191 120 q 203 54 191 65 q 258 39 216 42 l 317 35 l 310 -4 q 157 0 172 1 l 3 -4 l 9 35 l 53 39 q 103 61 90 43 q 127 142 116 79 l 250 800 q 254 825 253 817 q 256 832 256 831 q 257 842 257 839 q 244 867 257 850 q 215 897 231 884 q 146 920 188 917 l 97 922 l 104 961 l 184 958 l 203 957 q 216 957 216 957 l 329 961 m 481 1060 l 441 1060 q 486 1160 460 1126 q 578 1203 521 1203 q 665 1183 616 1203 l 749 1150 q 786 1143 767 1143 q 821 1155 807 1143 q 857 1203 836 1166 l 896 1203 q 859 1111 886 1145 q 762 1059 821 1059 q 672 1082 730 1059 l 619 1103 q 616 1104 619 1103 q 606 1107 614 1105 q 554 1121 574 1121 q 513 1108 528 1121 q 481 1060 498 1095 z "},"Ö":{"ha":1080,"x_min":73,"x_max":1038,"o":"m 644 981 q 938 875 831 981 q 1038 591 1038 776 q 920 212 1038 380 q 637 3 810 59 q 448 -25 551 -25 q 291 0 361 -25 q 175 70 220 24 q 73 378 73 174 q 244 819 73 652 q 644 981 410 981 m 602 922 q 347 824 444 922 q 250 676 284 762 q 195 384 195 538 q 500 33 195 33 q 766 139 663 33 q 865 292 831 204 q 916 568 916 423 q 602 922 916 922 m 534 1177 q 583 1156 562 1177 q 604 1108 604 1135 q 582 1059 604 1081 q 534 1038 561 1038 q 486 1059 507 1038 q 465 1109 465 1081 q 486 1156 465 1136 q 534 1177 507 1177 m 812 1177 q 861 1156 840 1177 q 882 1108 882 1135 q 860 1059 882 1081 q 812 1038 839 1038 q 764 1059 785 1038 q 743 1109 743 1081 q 764 1156 743 1136 q 812 1177 785 1177 z "},"Ü":{"ha":1080,"x_min":122,"x_max":1108,"o":"m 1104 922 l 1054 918 q 1003 903 1015 915 q 983 851 990 891 l 866 146 q 857 71 857 92 q 901 40 857 43 l 985 35 l 978 -4 l 933 -2 q 853 0 877 0 q 766 -3 826 0 l 736 -4 l 729 3 q 766 179 751 92 q 670 84 711 117 q 568 22 629 52 q 382 -25 473 -25 q 192 42 260 -25 q 134 201 134 98 q 143 286 134 235 l 232 807 q 241 887 241 863 q 232 911 241 905 q 194 920 222 918 l 122 922 l 126 961 l 170 959 q 252 957 230 957 q 332 959 274 957 l 375 961 l 253 298 q 243 214 243 245 q 283 107 243 148 q 436 54 338 54 q 593 94 514 54 q 684 153 646 121 q 772 245 722 185 l 871 864 q 872 880 872 872 q 823 920 872 918 l 757 922 l 761 961 l 848 959 q 960 957 932 957 q 1086 960 1010 957 l 1108 961 l 1104 922 m 513 1177 q 561 1156 540 1177 q 582 1108 582 1135 q 561 1059 582 1081 q 512 1038 539 1038 q 464 1059 486 1038 q 443 1109 443 1081 q 464 1156 443 1135 q 513 1177 485 1177 m 791 1177 q 839 1156 818 1177 q 860 1108 860 1135 q 839 1059 860 1081 q 790 1038 817 1038 q 742 1059 764 1038 q 721 1109 721 1081 q 742 1156 721 1136 q 791 1177 763 1177 z "},"á":{"ha":616,"x_min":5,"x_max":622,"o":"m 558 655 l 431 129 q 429 115 429 121 q 450 82 429 82 q 536 132 477 82 q 554 147 544 139 l 564 118 q 361 -13 406 -13 q 328 35 328 -13 q 336 107 328 69 l 376 284 q 189 62 271 135 q 53 -16 102 -16 q 19 16 33 -16 q 5 92 5 47 q 35 287 5 174 q 110 492 64 399 q 174 577 136 543 q 277 644 212 612 q 380 669 328 669 q 498 643 428 669 l 545 668 l 558 655 m 443 574 q 324 602 367 602 q 246 580 275 602 q 193 500 218 558 q 131 311 156 416 q 105 138 105 205 q 130 82 105 82 q 221 137 163 82 q 338 279 279 192 q 397 398 374 333 q 443 574 420 463 m 311 720 l 523 929 q 568 954 548 954 q 606 941 590 954 q 622 911 622 928 q 583 860 622 884 l 358 720 l 311 720 z "},"à":{"ha":616,"x_min":5,"x_max":564,"o":"m 558 655 l 431 129 q 429 115 429 121 q 450 82 429 82 q 536 132 477 82 q 554 147 544 139 l 564 118 q 361 -13 406 -13 q 328 35 328 -13 q 336 107 328 69 l 376 284 q 189 62 271 135 q 53 -16 102 -16 q 19 16 33 -16 q 5 92 5 47 q 35 287 5 174 q 110 492 64 399 q 174 577 136 543 q 277 644 212 612 q 380 669 328 669 q 498 643 428 669 l 545 668 l 558 655 m 443 574 q 324 602 367 602 q 246 580 275 602 q 193 500 218 558 q 131 311 156 416 q 105 138 105 205 q 130 82 105 82 q 221 137 163 82 q 338 279 279 192 q 397 398 374 333 q 443 574 420 463 m 475 720 l 250 860 q 211 911 211 884 q 227 941 211 928 q 264 954 243 954 q 310 929 284 954 l 522 720 l 475 720 z "},"â":{"ha":616,"x_min":5,"x_max":588,"o":"m 558 655 l 431 129 q 429 115 429 121 q 450 82 429 82 q 536 132 477 82 q 554 147 544 139 l 564 118 q 361 -13 406 -13 q 328 35 328 -13 q 336 107 328 69 l 376 284 q 189 62 271 135 q 53 -16 102 -16 q 19 16 33 -16 q 5 92 5 47 q 35 287 5 174 q 110 492 64 399 q 174 577 136 543 q 277 644 212 612 q 380 669 328 669 q 498 643 428 669 l 545 668 l 558 655 m 443 574 q 324 602 367 602 q 246 580 275 602 q 193 500 218 558 q 131 311 156 416 q 105 138 105 205 q 130 82 105 82 q 221 137 163 82 q 338 279 279 192 q 397 398 374 333 q 443 574 420 463 m 465 943 l 588 708 l 538 708 l 424 852 l 233 708 l 179 708 l 397 943 l 465 943 z "},"ä":{"ha":616,"x_min":5,"x_max":603,"o":"m 558 655 l 431 129 q 429 115 429 121 q 450 82 429 82 q 536 132 477 82 q 554 147 544 139 l 564 118 q 361 -13 406 -13 q 328 35 328 -13 q 336 107 328 69 l 376 284 q 189 62 271 135 q 53 -16 102 -16 q 19 16 33 -16 q 5 92 5 47 q 35 287 5 174 q 110 492 64 399 q 174 577 136 543 q 277 644 212 612 q 380 669 328 669 q 498 643 428 669 l 545 668 l 558 655 m 443 574 q 324 602 367 602 q 246 580 275 602 q 193 500 218 558 q 131 311 156 416 q 105 138 105 205 q 130 82 105 82 q 221 137 163 82 q 338 279 279 192 q 397 398 374 333 q 443 574 420 463 m 256 885 q 304 864 283 885 q 325 817 325 844 q 303 768 325 789 q 256 746 282 746 q 207 768 229 746 q 186 817 186 789 q 207 864 186 844 q 256 885 228 885 m 534 885 q 582 864 561 885 q 603 817 603 844 q 582 768 603 789 q 534 746 560 746 q 485 768 507 746 q 464 817 464 789 q 485 865 464 844 q 534 885 506 885 z "},"ã":{"ha":616,"x_min":5,"x_max":619,"o":"m 558 655 l 431 129 q 429 115 429 121 q 450 82 429 82 q 536 132 477 82 q 554 147 544 139 l 564 118 q 361 -13 406 -13 q 328 35 328 -13 q 336 107 328 69 l 376 284 q 189 62 271 135 q 53 -16 102 -16 q 19 16 33 -16 q 5 92 5 47 q 35 287 5 174 q 110 492 64 399 q 174 577 136 543 q 277 644 212 612 q 380 669 328 669 q 498 643 428 669 l 545 668 l 558 655 m 443 574 q 324 602 367 602 q 246 580 275 602 q 193 500 218 558 q 131 311 156 416 q 105 138 105 205 q 130 82 105 82 q 221 137 163 82 q 338 279 279 192 q 397 398 374 333 q 443 574 420 463 m 205 743 l 165 743 q 210 843 184 810 q 302 886 245 886 q 389 867 340 886 l 472 833 q 509 827 488 827 q 545 839 531 827 q 581 886 559 850 l 619 886 q 583 794 608 829 q 485 743 545 743 q 395 765 452 743 l 343 786 q 330 791 334 789 q 277 804 296 804 q 236 791 252 804 q 205 743 221 779 z "},"å":{"ha":616,"x_min":5,"x_max":564,"o":"m 558 655 l 431 129 q 429 115 429 121 q 450 82 429 82 q 536 132 477 82 q 554 147 544 139 l 564 118 q 361 -13 406 -13 q 328 35 328 -13 q 336 107 328 69 l 376 284 q 189 62 271 135 q 53 -16 102 -16 q 19 16 33 -16 q 5 92 5 47 q 35 287 5 174 q 110 492 64 399 q 174 577 136 543 q 277 644 212 612 q 380 669 328 669 q 498 643 428 669 l 545 668 l 558 655 m 443 574 q 324 602 367 602 q 246 580 275 602 q 193 500 218 558 q 131 311 156 416 q 105 138 105 205 q 130 82 105 82 q 221 137 163 82 q 338 279 279 192 q 397 398 374 333 q 443 574 420 463 m 427 997 q 523 956 483 997 q 564 858 564 916 q 524 762 564 801 q 425 720 483 720 q 327 760 367 720 q 286 859 286 800 q 327 957 286 917 q 427 997 368 997 m 426 947 q 362 923 386 947 q 339 858 339 899 q 362 794 339 818 q 425 770 386 770 q 487 794 464 770 q 511 858 511 819 q 487 922 511 898 q 426 947 464 947 z "},"ç":{"ha":565,"x_min":35,"x_max":540,"o":"m 236 -14 l 184 -89 q 216 -86 203 -86 q 301 -112 270 -86 q 332 -183 332 -138 q 279 -273 332 -242 q 160 -300 232 -300 q 39 -273 112 -300 l 62 -232 q 158 -252 123 -252 q 212 -234 191 -252 q 232 -189 232 -217 q 214 -151 232 -165 q 167 -136 196 -136 q 121 -144 153 -136 l 108 -134 l 184 -14 q 35 189 35 0 q 70 398 35 298 q 163 549 106 497 q 291 635 222 602 q 406 669 359 669 q 540 636 487 669 q 507 458 522 584 l 475 458 l 475 541 q 442 584 475 566 q 362 602 409 602 q 256 568 300 602 q 170 420 201 526 q 140 220 140 323 q 258 55 140 55 q 339 75 295 55 q 459 146 383 94 l 480 159 l 492 132 l 422 75 q 236 -14 327 -3 z "},"é":{"ha":541,"x_min":21,"x_max":596,"o":"m 467 127 q 305 17 370 49 q 181 -16 241 -16 q 66 27 109 -16 q 21 156 21 72 q 47 330 21 227 q 104 484 73 432 q 240 610 145 551 q 402 669 334 669 q 488 640 456 669 q 519 561 519 610 q 347 359 519 435 q 252 325 290 334 l 138 297 q 127 186 127 238 q 161 78 127 112 q 233 50 190 50 q 422 130 308 50 l 456 154 l 467 127 m 144 329 q 296 378 238 349 q 383 448 350 404 q 416 540 416 493 q 398 592 416 572 q 350 611 380 611 q 296 600 325 611 q 248 572 267 589 q 157 380 191 520 l 144 329 m 286 720 l 498 929 q 543 954 523 954 q 580 941 564 954 q 596 911 596 928 q 557 860 596 884 l 332 720 l 286 720 z "},"è":{"ha":541,"x_min":21,"x_max":519,"o":"m 467 127 q 305 17 370 49 q 181 -16 241 -16 q 66 27 109 -16 q 21 156 21 72 q 47 330 21 227 q 104 484 73 432 q 240 610 145 551 q 402 669 334 669 q 488 640 456 669 q 519 561 519 610 q 347 359 519 435 q 252 325 290 334 l 138 297 q 127 186 127 238 q 161 78 127 112 q 233 50 190 50 q 422 130 308 50 l 456 154 l 467 127 m 144 329 q 296 378 238 349 q 383 448 350 404 q 416 540 416 493 q 398 592 416 572 q 350 611 380 611 q 296 600 325 611 q 248 572 267 589 q 157 380 191 520 l 144 329 m 437 720 l 212 860 q 173 911 173 884 q 189 941 173 928 q 227 954 205 954 q 272 929 247 954 l 484 720 l 437 720 z "},"ê":{"ha":541,"x_min":21,"x_max":553,"o":"m 467 127 q 305 17 370 49 q 181 -16 241 -16 q 66 27 109 -16 q 21 156 21 72 q 47 330 21 227 q 104 484 73 432 q 240 610 145 551 q 402 669 334 669 q 488 640 456 669 q 519 561 519 610 q 347 359 519 435 q 252 325 290 334 l 138 297 q 127 186 127 238 q 161 78 127 112 q 233 50 190 50 q 422 130 308 50 l 456 154 l 467 127 m 144 329 q 296 378 238 349 q 383 448 350 404 q 416 540 416 493 q 398 592 416 572 q 350 611 380 611 q 296 600 325 611 q 248 572 267 589 q 157 380 191 520 l 144 329 m 431 943 l 553 708 l 503 708 l 389 852 l 199 708 l 144 708 l 363 943 l 431 943 z "},"ë":{"ha":541,"x_min":21,"x_max":564,"o":"m 467 127 q 305 17 370 49 q 181 -16 241 -16 q 66 27 109 -16 q 21 156 21 72 q 47 330 21 227 q 104 484 73 432 q 240 610 145 551 q 402 669 334 669 q 488 640 456 669 q 519 561 519 610 q 347 359 519 435 q 252 325 290 334 l 138 297 q 127 186 127 238 q 161 78 127 112 q 233 50 190 50 q 422 130 308 50 l 456 154 l 467 127 m 144 329 q 296 378 238 349 q 383 448 350 404 q 416 540 416 493 q 398 592 416 572 q 350 611 380 611 q 296 600 325 611 q 248 572 267 589 q 157 380 191 520 l 144 329 m 217 885 q 265 864 244 885 q 286 817 286 844 q 265 768 286 789 q 216 746 243 746 q 169 768 190 746 q 147 817 147 789 q 168 864 147 844 q 217 885 189 885 m 495 885 q 543 864 522 885 q 564 817 564 844 q 543 768 564 789 q 495 746 522 746 q 447 768 468 746 q 425 817 425 789 q 446 865 425 844 q 495 885 467 885 z "},"í":{"ha":386,"x_min":47,"x_max":459,"o":"m 47 538 l 85 566 q 207 646 165 623 q 271 669 248 669 q 306 633 306 669 q 298 583 306 613 l 191 161 q 182 106 182 123 q 199 78 182 78 q 284 119 221 78 l 320 143 l 334 118 q 186 16 235 44 q 112 -12 138 -12 q 71 42 71 -12 q 88 149 71 83 l 180 481 q 191 543 191 522 q 167 572 191 572 q 101 539 151 572 l 56 511 l 47 538 m 149 720 l 361 929 q 406 954 386 954 q 443 941 427 954 q 459 911 459 928 q 420 860 459 884 l 195 720 l 149 720 z "},"ì":{"ha":386,"x_min":47,"x_max":376,"o":"m 47 538 l 85 566 q 207 646 165 623 q 271 669 248 669 q 306 633 306 669 q 298 583 306 613 l 191 161 q 182 106 182 123 q 199 78 182 78 q 284 119 221 78 l 320 143 l 334 118 q 186 16 235 44 q 112 -12 138 -12 q 71 42 71 -12 q 88 149 71 83 l 180 481 q 191 543 191 522 q 167 572 191 572 q 101 539 151 572 l 56 511 l 47 538 m 329 720 l 104 860 q 65 911 65 884 q 81 941 65 928 q 118 954 97 954 q 163 929 138 954 l 376 720 l 329 720 z "},"î":{"ha":386,"x_min":40,"x_max":448,"o":"m 47 538 l 86 566 q 207 646 165 623 q 272 669 249 669 q 307 633 307 669 q 298 583 307 615 l 191 161 q 182 106 182 123 q 187 86 182 95 q 199 78 192 78 q 285 119 221 78 l 321 143 l 334 118 q 185 15 231 42 q 112 -12 139 -12 q 71 42 71 -12 q 89 149 71 83 l 180 481 q 191 543 191 521 q 167 572 191 572 q 101 539 152 572 l 57 511 l 47 538 m 326 943 l 448 708 l 398 708 l 284 852 l 94 708 l 40 708 l 258 943 l 326 943 z "},"ï":{"ha":386,"x_min":47,"x_max":487,"o":"m 47 538 l 85 566 q 207 646 165 623 q 271 669 248 669 q 306 633 306 669 q 298 583 306 613 l 191 161 q 182 106 182 123 q 199 78 182 78 q 284 119 221 78 l 320 143 l 334 118 q 186 16 235 44 q 112 -12 138 -12 q 71 42 71 -12 q 88 149 71 83 l 180 481 q 191 543 191 522 q 167 572 191 572 q 101 539 151 572 l 56 511 l 47 538 m 140 913 q 189 892 168 913 q 210 844 210 871 q 188 795 210 817 q 140 774 167 774 q 92 795 113 774 q 71 845 71 817 q 92 892 71 872 q 140 913 113 913 m 418 913 q 466 892 445 913 q 487 844 487 871 q 466 795 487 817 q 418 774 444 774 q 369 795 391 774 q 348 845 348 817 q 369 892 348 872 q 418 913 390 913 z "},"ñ":{"ha":772,"x_min":33,"x_max":714,"o":"m 33 538 l 72 566 q 256 669 216 669 q 288 624 288 669 q 281 566 288 600 l 228 342 q 391 541 323 477 q 518 634 452 598 q 628 669 584 669 q 671 620 671 669 q 656 516 671 581 l 564 133 q 561 106 561 119 q 566 86 561 94 q 578 78 571 78 q 664 119 600 78 l 700 143 l 714 118 q 566 16 614 44 q 491 -12 517 -12 q 450 43 450 -12 q 467 142 450 74 l 468 149 l 541 443 q 555 542 555 505 q 532 574 555 574 q 416 517 485 574 q 290 372 347 459 q 216 221 242 300 q 171 11 191 142 q 73 -12 127 3 l 64 3 q 142 319 106 151 q 178 540 178 486 q 153 574 178 574 q 88 540 142 574 l 43 511 l 33 538 m 283 743 l 242 743 q 287 843 260 810 q 379 886 321 886 q 466 867 417 886 l 549 833 q 586 827 566 827 q 622 839 608 827 q 658 886 637 850 l 696 886 q 649 781 684 819 q 562 743 614 743 q 473 765 529 743 l 420 786 q 408 791 411 789 q 355 804 374 804 q 314 791 329 804 q 283 743 298 779 z "},"ó":{"ha":616,"x_min":24,"x_max":575,"o":"m 387 669 q 514 623 467 669 q 571 460 571 565 q 530 248 571 355 q 424 79 488 140 q 318 9 376 35 q 201 -16 259 -16 q 80 30 125 -16 q 24 212 24 87 q 85 472 24 359 q 217 614 132 558 q 387 669 302 669 m 335 616 q 252 593 280 616 q 165 436 200 551 q 130 210 130 322 q 161 85 130 130 q 257 37 194 37 q 361 83 323 37 q 442 262 414 146 q 465 438 465 354 q 335 616 465 616 m 264 720 l 477 929 q 522 954 502 954 q 559 941 543 954 q 575 911 575 928 q 536 860 575 884 l 311 720 l 264 720 z "},"ò":{"ha":616,"x_min":24,"x_max":571,"o":"m 387 669 q 514 623 467 669 q 571 460 571 565 q 530 248 571 355 q 424 79 488 140 q 318 9 376 35 q 201 -16 259 -16 q 80 30 125 -16 q 24 212 24 87 q 85 472 24 359 q 217 614 132 558 q 387 669 302 669 m 335 616 q 252 593 280 616 q 165 436 200 551 q 130 210 130 322 q 161 85 130 130 q 257 37 194 37 q 361 83 323 37 q 442 262 414 146 q 465 438 465 354 q 335 616 465 616 m 460 720 l 236 860 q 197 911 197 884 q 213 941 197 928 q 250 954 229 954 q 296 929 270 954 l 508 720 l 460 720 z "},"ô":{"ha":616,"x_min":24,"x_max":571,"o":"m 387 669 q 514 623 467 669 q 571 460 571 565 q 530 248 571 355 q 424 79 488 140 q 318 9 376 35 q 201 -16 259 -16 q 80 30 125 -16 q 24 212 24 87 q 85 472 24 359 q 217 614 132 558 q 387 669 302 669 m 335 616 q 252 593 280 616 q 165 436 200 551 q 130 210 130 322 q 161 85 130 130 q 257 37 194 37 q 361 83 323 37 q 442 262 414 146 q 465 438 465 354 q 335 616 465 616 m 441 943 l 564 708 l 513 708 l 399 852 l 209 708 l 155 708 l 373 943 l 441 943 z "},"ö":{"ha":616,"x_min":24,"x_max":603,"o":"m 387 669 q 514 623 467 669 q 571 460 571 565 q 530 248 571 355 q 424 79 488 140 q 318 9 376 35 q 201 -16 259 -16 q 80 30 125 -16 q 24 212 24 87 q 85 472 24 359 q 217 614 132 558 q 387 669 302 669 m 335 616 q 252 593 280 616 q 165 436 200 551 q 130 210 130 322 q 161 85 130 130 q 257 37 194 37 q 361 83 323 37 q 442 262 414 146 q 465 438 465 354 q 335 616 465 616 m 256 885 q 304 864 283 885 q 326 817 326 844 q 304 768 326 789 q 256 746 283 746 q 208 768 229 746 q 186 817 186 789 q 208 864 186 844 q 256 885 229 885 m 534 885 q 582 864 561 885 q 603 817 603 844 q 582 768 603 789 q 533 746 560 746 q 485 768 507 746 q 464 817 464 789 q 485 865 464 844 q 534 885 506 885 z "},"õ":{"ha":616,"x_min":24,"x_max":620,"o":"m 387 669 q 514 623 467 669 q 571 460 571 565 q 530 248 571 355 q 424 79 488 140 q 318 9 376 35 q 201 -16 259 -16 q 80 30 125 -16 q 24 212 24 87 q 85 472 24 359 q 217 614 132 558 q 387 669 302 669 m 335 616 q 252 593 280 616 q 165 436 200 551 q 130 210 130 322 q 161 85 130 130 q 257 37 194 37 q 361 83 323 37 q 442 262 414 146 q 465 438 465 354 q 335 616 465 616 m 205 743 l 165 743 q 210 843 184 810 q 302 886 245 886 q 389 867 340 886 l 473 833 q 509 827 489 827 q 545 839 531 827 q 581 886 559 850 l 620 886 q 583 794 609 829 q 486 743 545 743 q 396 765 452 743 l 343 786 q 330 791 334 789 q 278 804 297 804 q 236 791 252 804 q 205 743 221 779 z "},"ú":{"ha":772,"x_min":45,"x_max":731,"o":"m 515 332 q 390 163 460 243 q 142 -16 232 -16 q 107 1 121 -16 q 94 41 94 17 q 99 107 94 81 l 186 519 q 189 543 189 533 q 165 572 189 572 q 99 539 149 572 l 54 511 l 45 538 l 83 566 q 268 669 228 669 q 299 626 299 669 q 292 566 299 600 l 213 190 q 203 117 203 142 q 221 82 203 82 q 281 104 250 82 q 419 241 354 159 q 515 400 485 323 q 566 574 547 477 l 579 646 l 674 669 l 684 656 q 567 161 618 401 l 566 153 q 559 106 559 123 q 576 82 559 82 q 661 119 604 82 l 698 143 l 711 118 q 562 15 608 42 q 489 -12 516 -12 q 448 43 448 -12 q 463 134 448 79 l 515 332 m 420 720 l 632 929 q 677 954 658 954 q 715 941 699 954 q 731 911 731 928 q 692 860 731 884 l 467 720 l 420 720 z "},"ù":{"ha":772,"x_min":45,"x_max":711,"o":"m 515 332 q 390 163 460 243 q 142 -16 232 -16 q 107 1 121 -16 q 94 41 94 17 q 99 107 94 81 l 186 519 q 189 543 189 533 q 165 572 189 572 q 99 539 149 572 l 54 511 l 45 538 l 83 566 q 268 669 228 669 q 299 626 299 669 q 292 566 299 600 l 213 190 q 203 117 203 142 q 221 82 203 82 q 281 104 250 82 q 419 241 354 159 q 515 400 485 323 q 566 574 547 477 l 579 646 l 674 669 l 684 656 q 567 161 618 401 l 566 153 q 559 106 559 123 q 576 82 559 82 q 661 119 604 82 l 698 143 l 711 118 q 562 15 608 42 q 489 -12 516 -12 q 448 43 448 -12 q 463 134 448 79 l 515 332 m 497 720 l 272 860 q 233 911 233 884 q 249 941 233 928 q 286 954 265 954 q 332 929 307 954 l 544 720 l 497 720 z "},"û":{"ha":772,"x_min":45,"x_max":711,"o":"m 515 332 q 390 163 460 243 q 142 -16 232 -16 q 107 1 121 -16 q 94 41 94 17 q 99 107 94 81 l 186 519 q 189 543 189 533 q 165 572 189 572 q 99 539 149 572 l 54 511 l 45 538 l 83 566 q 268 669 228 669 q 299 626 299 669 q 292 566 299 600 l 213 190 q 203 117 203 142 q 221 82 203 82 q 281 104 250 82 q 419 241 354 159 q 515 400 485 323 q 566 574 547 477 l 579 646 l 674 669 l 684 656 q 567 161 618 401 l 566 153 q 559 106 559 123 q 576 82 559 82 q 661 119 604 82 l 698 143 l 711 118 q 562 15 608 42 q 489 -12 516 -12 q 448 43 448 -12 q 463 134 448 79 l 515 332 m 519 943 l 642 708 l 591 708 l 477 852 l 287 708 l 233 708 l 451 943 l 519 943 z "},"ü":{"ha":772,"x_min":45,"x_max":711,"o":"m 515 332 q 390 163 460 243 q 142 -16 232 -16 q 107 1 121 -16 q 94 41 94 17 q 99 107 94 81 l 186 519 q 189 543 189 533 q 165 572 189 572 q 99 539 149 572 l 54 511 l 45 538 l 83 566 q 268 669 228 669 q 299 626 299 669 q 292 566 299 600 l 213 190 q 203 117 203 142 q 221 82 203 82 q 281 104 250 82 q 419 241 354 159 q 515 400 485 323 q 566 574 547 477 l 579 646 l 674 669 l 684 656 q 567 161 618 401 l 566 153 q 559 106 559 123 q 576 82 559 82 q 661 119 604 82 l 698 143 l 711 118 q 562 15 608 42 q 489 -12 516 -12 q 448 43 448 -12 q 463 134 448 79 l 515 332 m 334 885 q 382 864 361 885 q 403 817 403 844 q 381 768 403 789 q 333 746 360 746 q 285 768 307 746 q 264 817 264 789 q 285 864 264 844 q 334 885 306 885 m 611 885 q 659 864 638 885 q 680 817 680 843 q 659 768 680 789 q 610 746 637 746 q 563 768 584 746 q 541 817 541 789 q 562 864 541 844 q 611 885 583 885 z "},"†":{"ha":694,"x_min":66,"x_max":651,"o":"m 85 656 l 321 647 q 357 957 343 782 l 359 961 q 416 958 391 958 q 473 961 442 958 l 477 957 q 431 745 461 899 l 411 647 l 646 654 l 651 648 l 640 570 l 633 564 l 397 572 l 383 478 q 319 7 359 310 l 312 0 q 254 2 279 2 q 195 0 229 2 l 191 4 q 289 457 263 294 l 307 572 l 72 566 l 66 571 l 77 650 l 85 656 z "},"°":{"ha":555,"x_min":125,"x_max":541,"o":"m 333 957 q 480 895 420 957 q 541 746 541 833 q 479 602 541 663 q 333 541 418 541 q 186 602 247 541 q 125 749 125 663 q 184 895 125 836 q 333 957 248 957 m 332 901 q 225 857 269 901 q 180 749 180 812 q 225 641 180 685 q 333 596 269 596 q 440 641 395 596 q 486 747 486 685 q 440 856 486 812 q 332 901 393 901 z "},"¢":{"ha":694,"x_min":78,"x_max":581,"o":"m 439 667 l 477 765 l 522 765 l 485 667 q 581 636 536 665 q 551 458 555 527 l 519 458 l 519 547 q 458 593 519 571 l 256 62 q 291 56 274 56 q 526 160 389 56 l 536 132 l 453 64 q 227 -16 364 -8 l 179 -134 l 135 -134 l 183 -3 q 135 20 151 7 q 104 62 118 34 q 78 195 78 113 q 123 417 78 309 q 237 574 168 525 q 439 667 349 654 m 218 89 l 412 600 q 393 601 400 601 q 318 581 355 601 q 262 530 282 562 q 208 379 235 487 q 181 207 181 272 q 218 89 181 133 z "},"£":{"ha":694,"x_min":3,"x_max":665,"o":"m 663 220 l 612 1 q 531 -20 578 -20 l 313 17 l 304 18 q 296 20 302 18 q 161 36 204 36 q 119 32 131 36 q 88 14 108 28 q 32 -25 69 -2 q 3 37 5 -10 q 86 105 57 67 q 141 214 125 157 q 179 447 157 271 l 47 447 l 57 496 l 187 496 q 227 677 208 612 q 281 800 247 741 q 398 936 332 888 q 535 983 465 983 q 665 945 602 983 q 639 775 642 868 l 607 775 l 607 850 q 570 900 607 878 q 485 921 533 921 q 354 790 380 921 l 347 755 q 304 555 332 682 l 290 496 l 488 496 l 477 447 l 279 447 q 204 209 237 286 q 127 90 171 131 q 244 110 197 110 q 328 104 283 110 l 410 92 q 471 87 443 87 l 512 86 l 526 85 q 572 96 557 85 q 599 138 587 106 l 629 220 l 663 220 z "},"§":{"ha":694,"x_min":20,"x_max":643,"o":"m 90 -160 q 169 -223 129 -204 q 264 -242 209 -242 q 406 -186 350 -242 q 458 -62 458 -133 q 431 24 458 -10 q 328 100 403 59 l 257 139 q 111 243 150 198 q 68 355 68 292 q 101 464 68 417 q 220 574 133 511 q 163 690 163 635 q 187 794 163 746 q 265 895 211 842 q 359 961 314 941 q 467 981 405 981 q 643 925 568 981 l 600 746 l 566 746 l 572 857 q 422 918 511 918 q 288 865 340 918 q 242 753 242 819 q 306 640 242 680 l 477 534 q 584 454 560 483 q 620 351 620 410 q 584 232 620 286 q 471 132 548 179 q 527 66 511 96 q 542 -4 542 37 q 433 -216 542 -116 q 221 -306 336 -306 q 20 -233 105 -306 l 66 -37 l 99 -41 l 90 -160 m 246 554 q 156 400 156 479 q 185 319 156 356 q 281 245 215 283 l 442 154 q 534 301 534 229 q 506 382 534 347 q 412 457 478 418 l 246 554 z "},"•":{"ha":694,"x_min":152,"x_max":546,"o":"m 349 678 q 488 621 431 678 q 546 481 546 563 q 488 341 546 399 q 351 284 431 284 q 210 342 267 284 q 152 481 152 400 q 209 620 152 562 q 349 678 267 678 z "},"¶":{"ha":694,"x_min":46,"x_max":849,"o":"m 121 -269 l 163 -269 q 224 -248 208 -269 q 250 -165 240 -226 l 338 347 q 255 369 288 355 q 184 414 221 383 q 85 543 121 466 q 46 716 46 623 q 109 899 46 836 q 290 961 171 961 l 428 958 l 508 957 q 562 957 531 957 q 755 959 637 957 l 849 961 l 842 919 l 810 919 q 735 900 756 919 q 705 822 715 881 l 531 -191 q 529 -215 529 -201 q 545 -257 529 -245 q 600 -269 560 -269 l 660 -269 l 653 -311 l 552 -309 q 375 -307 425 -307 q 191 -310 318 -307 l 114 -311 l 121 -269 m 627 912 l 532 912 l 328 -262 l 422 -262 l 627 912 m 346 400 l 433 905 q 355 912 385 912 q 252 876 288 912 q 199 685 199 821 q 264 451 199 529 q 346 400 296 414 z "},"ß":{"ha":694,"x_min":-222,"x_max":677,"o":"m 154 532 l 41 532 l 47 562 l 125 594 q 171 623 169 612 l 191 736 q 225 832 203 798 q 306 910 248 866 q 435 987 367 957 q 547 1018 504 1018 q 638 977 600 1018 q 677 878 677 935 q 652 767 677 821 q 558 633 626 714 q 508 565 521 588 q 496 517 496 541 q 507 466 496 493 q 550 382 517 439 l 574 338 q 618 229 618 262 q 551 81 618 155 q 373 -22 460 -22 q 265 7 323 -22 q 294 155 288 81 l 322 155 l 322 78 q 412 39 359 39 q 495 74 463 39 q 528 165 528 110 q 508 241 528 203 l 433 387 q 410 461 410 433 q 454 555 410 493 q 465 570 459 562 l 477 589 q 490 606 483 596 q 570 736 549 689 q 591 829 591 783 q 557 917 591 882 q 473 951 524 951 q 375 917 417 951 q 315 822 334 882 q 251 525 313 815 l 151 54 q 88 -157 123 -76 q -4 -297 52 -237 q -173 -383 -86 -383 q -222 -378 -202 -383 q -192 -262 -205 -330 l -176 -260 q -102 -301 -141 -301 q -40 -275 -71 -301 q 7 -205 -10 -249 q 60 0 37 -131 l 154 532 z "},"®":{"ha":1038,"x_min":16,"x_max":1023,"o":"m 286 770 l 502 770 q 659 741 608 770 q 718 633 718 708 q 678 536 718 572 q 558 486 639 500 q 605 467 588 479 q 642 426 623 454 q 691 326 662 396 q 730 257 712 274 q 783 241 747 241 l 783 218 l 709 218 q 647 247 671 218 q 595 355 623 276 q 548 448 570 424 q 488 472 526 472 l 430 472 l 430 293 q 437 253 430 262 q 469 242 445 243 l 498 241 l 498 218 l 287 218 l 287 241 l 309 241 q 345 249 336 241 q 353 283 353 257 l 353 705 q 344 735 353 726 q 309 745 335 743 l 286 746 l 286 770 m 430 500 l 467 500 q 587 524 545 500 q 640 626 640 553 q 609 709 640 679 q 509 743 575 743 l 469 743 q 430 703 430 743 l 430 500 m 524 981 q 771 912 656 981 q 956 728 890 842 q 1023 479 1023 613 q 956 229 1023 345 q 770 43 888 111 q 518 -25 652 -25 q 269 41 385 -25 q 82 228 151 109 q 16 475 16 343 q 115 779 16 644 q 251 903 169 852 q 524 981 376 981 m 524 920 q 208 791 337 920 q 77 476 77 661 q 135 258 77 360 q 298 94 195 154 q 518 36 400 36 q 739 95 636 36 q 903 259 844 155 q 962 478 962 361 q 815 805 962 671 q 657 897 746 867 q 524 920 587 920 z "},"©":{"ha":1038,"x_min":16,"x_max":1023,"o":"m 732 725 l 732 576 l 696 576 q 668 673 692 640 q 545 725 630 725 q 423 684 474 725 q 342 486 342 618 q 363 370 342 425 q 420 280 385 315 q 548 230 473 230 q 718 338 660 230 l 747 325 q 705 261 727 283 q 517 187 632 187 q 328 262 404 187 q 248 473 248 341 q 326 681 248 602 q 533 761 406 761 q 732 725 621 761 m 524 981 q 771 912 656 981 q 956 728 890 842 q 1023 479 1023 613 q 956 229 1023 345 q 770 43 888 111 q 518 -25 652 -25 q 269 41 385 -25 q 82 228 151 109 q 16 475 16 343 q 115 779 16 644 q 251 903 169 852 q 524 981 376 981 m 524 920 q 208 791 337 920 q 77 476 77 661 q 135 258 77 360 q 298 94 195 154 q 518 36 400 36 q 739 95 636 36 q 903 259 844 155 q 962 478 962 361 q 815 805 962 671 q 657 897 746 867 q 524 920 587 920 z "},"™":{"ha":1389,"x_min":70,"x_max":1318,"o":"m 1099 424 l 1114 424 q 1159 436 1149 424 q 1170 488 1170 448 l 1170 908 l 959 396 l 947 396 l 735 905 l 735 469 q 747 436 735 444 q 802 424 759 428 l 802 396 l 634 396 l 634 424 q 688 436 676 428 q 701 469 701 444 l 701 880 q 693 921 701 910 q 665 932 686 932 l 645 932 l 645 957 l 796 957 l 975 530 l 1159 957 l 1314 957 l 1314 932 l 1285 932 q 1248 904 1248 932 l 1248 488 q 1258 436 1248 448 q 1303 424 1269 424 l 1318 424 l 1318 396 l 1099 396 l 1099 424 m 178 424 q 195 424 189 424 q 252 433 237 423 q 266 472 266 442 l 266 924 l 209 924 q 124 904 145 924 q 102 824 103 884 l 70 824 l 70 957 l 539 957 l 539 824 l 507 824 q 485 904 506 884 q 401 924 464 924 l 344 924 l 344 460 q 359 432 344 442 q 431 424 378 424 l 431 396 l 178 396 l 178 424 z "},"´":{"ha":463,"x_min":170,"x_max":481,"o":"m 170 720 l 382 929 q 427 954 408 954 q 465 941 449 954 q 481 911 481 928 q 441 860 481 884 l 217 720 l 170 720 z "},"¨":{"ha":463,"x_min":109,"x_max":526,"o":"m 178 885 q 227 864 205 885 q 248 817 248 844 q 226 768 248 789 q 178 746 205 746 q 130 768 151 746 q 109 817 109 789 q 130 864 109 844 q 178 885 151 885 m 456 885 q 505 864 484 885 q 526 817 526 844 q 504 768 526 789 q 456 746 483 746 q 408 768 429 746 q 387 817 387 789 q 408 864 387 844 q 456 885 429 885 z "},"≠":{"ha":1389,"x_min":324,"x_max":1102,"o":"m 756 553 l 849 739 l 922 702 l 847 553 l 1102 553 l 1102 472 l 806 472 l 709 279 l 1102 279 l 1102 198 l 668 198 l 572 7 l 499 45 l 576 198 l 324 198 l 324 279 l 618 279 l 715 472 l 324 472 l 324 553 l 756 553 z "},"Æ":{"ha":1307,"x_min":-5,"x_max":1253,"o":"m 675 387 l 367 387 l 322 315 l 217 136 q 211 126 216 135 q 189 75 189 91 q 274 37 189 37 l 307 37 l 307 -4 l 201 -1 q 158 0 184 0 q 62 -2 132 0 l -5 -4 l -5 37 l 42 45 q 92 86 66 48 l 603 843 q 621 894 621 870 q 605 912 621 904 q 570 920 589 920 l 478 920 l 478 961 l 562 960 q 812 957 714 957 q 938 958 885 957 l 1103 960 q 1156 961 1145 961 q 1253 957 1204 961 q 1223 746 1232 874 l 1190 746 l 1179 869 q 1142 893 1178 884 q 1050 903 1106 903 q 878 897 1023 903 q 865 853 871 884 l 807 522 l 831 522 q 1135 530 979 522 l 1141 521 l 1114 458 l 1078 460 q 930 464 981 464 l 796 464 l 736 113 q 734 70 734 96 l 734 64 l 770 61 q 889 54 844 54 q 1008 58 939 54 q 1094 66 1076 62 q 1128 87 1116 72 q 1150 140 1140 103 l 1173 223 l 1210 223 l 1203 187 q 1181 50 1186 100 l 1175 0 l 1128 -1 q 1031 -4 1061 -4 q 903 -2 1005 -4 q 741 0 793 0 q 591 -3 677 0 l 534 -4 l 541 32 q 601 52 585 40 q 623 92 617 63 l 675 387 m 403 443 l 684 443 l 758 910 l 739 910 q 688 861 721 910 l 403 443 z "},"Ø":{"ha":1080,"x_min":44,"x_max":1058,"o":"m 955 855 q 1013 760 997 804 q 1038 600 1038 692 q 920 212 1038 380 q 636 3 810 59 q 457 -25 551 -25 q 308 -6 370 -25 q 186 60 245 14 l 83 -54 l 44 -21 l 153 94 q 100 193 115 149 q 73 379 73 273 q 244 819 73 648 q 642 981 406 981 q 790 960 726 981 q 918 893 854 940 l 1018 1001 l 1058 965 l 955 855 m 866 787 l 262 135 q 348 65 304 86 q 501 33 413 33 q 766 139 663 33 q 865 292 831 205 q 916 573 916 425 q 905 690 916 644 q 866 787 895 736 m 233 182 l 836 833 q 742 897 785 880 q 600 922 680 922 q 347 824 444 922 q 250 676 283 760 q 195 382 195 538 q 233 182 195 269 z "},"∞":{"ha":1383,"x_min":199,"x_max":1188,"o":"m 694 486 q 767 581 732 547 q 935 649 840 649 q 1101 587 1029 649 q 1188 395 1188 513 q 1115 214 1188 288 q 935 140 1042 140 q 806 179 860 140 q 694 315 753 218 q 608 202 647 238 q 452 140 542 140 q 273 214 346 140 q 199 395 199 289 q 287 587 199 513 q 452 649 359 649 q 584 610 526 649 q 694 486 641 572 m 645 395 q 581 486 610 452 q 446 553 522 553 q 338 505 383 553 q 294 394 294 458 q 340 283 294 326 q 449 241 385 241 q 590 315 534 241 q 645 395 604 334 m 743 395 q 757 374 752 381 q 827 284 802 306 q 939 241 878 241 q 1047 283 1003 241 q 1093 394 1093 326 q 1049 505 1093 458 q 941 553 1004 553 q 840 517 884 553 q 743 395 796 482 z "},"±":{"ha":842,"x_min":71,"x_max":770,"o":"m 382 401 l 382 711 l 460 711 l 460 401 l 770 401 l 770 323 l 460 323 l 460 135 l 382 135 l 382 323 l 71 323 l 71 401 l 382 401 m 770 0 l 71 0 l 71 78 l 770 78 l 770 0 z "},"≤":{"ha":1389,"x_min":363,"x_max":1034,"o":"m 1027 907 l 1027 819 l 475 536 l 1027 254 l 1027 166 l 371 497 l 371 575 l 1027 907 m 363 81 l 1034 81 l 1034 0 l 363 0 l 363 81 z "},"≥":{"ha":1389,"x_min":363,"x_max":1034,"o":"m 369 907 l 1025 575 l 1025 497 l 369 166 l 369 254 l 920 536 l 369 819 l 369 907 m 363 81 l 1034 81 l 1034 0 l 363 0 l 363 81 z "},"¥":{"ha":694,"x_min":49,"x_max":711,"o":"m 375 282 l 353 130 q 349 81 349 99 q 358 50 349 59 q 392 39 368 41 l 449 35 l 446 -4 l 414 -3 q 301 0 338 0 q 200 -2 273 0 l 136 -4 l 140 35 l 197 39 q 241 59 232 41 q 267 174 251 77 l 285 282 l 125 282 l 134 330 l 292 330 q 294 359 294 347 q 285 431 294 388 l 147 431 l 156 478 l 273 478 l 260 536 q 180 806 218 732 q 100 875 144 875 q 49 859 82 875 l 49 892 q 134 970 88 924 q 184 955 166 966 q 222 915 203 944 q 362 443 294 813 q 539 807 459 688 q 711 960 619 925 l 706 863 q 640 833 665 852 q 503 649 577 786 l 495 634 q 446 538 460 570 l 420 478 l 553 478 l 545 431 l 403 431 q 382 330 391 397 l 536 330 l 528 282 l 375 282 z "},"µ":{"ha":772,"x_min":21,"x_max":711,"o":"m 45 538 l 83 566 q 268 669 229 669 q 299 625 299 669 q 292 566 299 601 l 213 190 q 203 117 203 143 q 221 82 203 82 q 281 104 250 82 q 419 241 354 159 q 515 399 485 323 q 566 574 546 477 l 579 646 l 673 669 l 684 656 q 567 161 623 422 l 565 153 q 558 106 558 120 q 576 82 558 82 q 661 119 604 82 l 697 143 l 711 118 q 563 15 609 42 q 489 -12 516 -12 q 448 43 448 -12 q 464 142 448 76 l 465 149 l 515 332 q 390 163 460 243 q 256 34 319 84 q 162 -16 193 -16 q 138 -12 155 -16 l 131 -9 l 121 -253 q 75 -297 120 -279 l 33 -314 l 21 -302 l 186 519 q 189 543 189 534 q 165 572 189 572 q 99 539 150 572 l 54 511 l 45 538 z "},"∂":{"ha":691,"x_min":32,"x_max":651,"o":"m 147 957 l 89 1029 q 191 1061 154 1053 q 272 1069 228 1069 q 558 903 445 1069 q 651 582 651 768 q 621 327 651 454 q 541 126 590 199 q 302 -14 448 -14 q 99 77 176 -14 q 32 264 32 155 q 115 488 32 391 q 304 585 197 585 q 405 566 363 585 q 523 491 448 548 q 533 632 533 576 q 465 919 533 822 q 306 1002 407 1002 q 147 957 241 1002 m 515 443 q 437 505 468 488 q 368 521 406 521 q 217 434 279 521 q 155 224 155 348 q 185 88 155 140 q 279 30 218 30 q 370 63 327 30 q 443 157 413 97 q 515 443 489 248 z "},"∑":{"ha":1389,"x_min":208,"x_max":1175,"o":"m 438 1009 l 705 484 l 420 -16 l 885 -16 q 1057 10 1006 -16 q 1100 48 1082 24 q 1138 123 1118 73 l 1175 123 l 1098 -175 l 208 -175 l 552 404 l 221 1067 l 1072 1067 l 1086 833 l 1048 833 q 1023 925 1038 894 q 986 975 1009 957 q 819 1009 941 1009 l 438 1009 z "},"∏":{"ha":1389,"x_min":154,"x_max":1235,"o":"m 956 980 l 433 980 l 433 -41 q 456 -122 433 -98 q 536 -146 480 -146 l 559 -146 l 559 -172 l 154 -172 l 154 -146 l 176 -146 q 256 -122 233 -146 q 280 -41 280 -98 l 280 903 q 256 989 280 963 q 176 1015 232 1015 l 154 1015 l 154 1040 l 1235 1040 l 1235 1015 l 1213 1015 q 1133 989 1157 1015 q 1109 903 1109 963 l 1109 -41 q 1133 -122 1109 -98 q 1213 -146 1157 -146 l 1235 -146 l 1235 -172 l 830 -172 l 830 -146 l 852 -146 q 932 -122 909 -146 q 956 -41 956 -98 l 956 980 z "},"π":{"ha":850,"x_min":57,"x_max":846,"o":"m 344 570 l 335 525 q 294 306 314 422 l 237 3 q 145 -19 195 -4 l 137 -7 q 210 326 185 172 q 236 483 227 429 l 252 571 q 218 572 229 572 q 182 572 191 572 q 131 557 148 572 q 85 482 114 541 l 57 482 l 114 648 q 163 655 147 656 l 211 652 l 301 651 l 410 647 l 491 645 l 644 639 q 841 642 807 639 l 846 634 q 840 605 844 627 q 831 563 832 573 q 693 571 761 571 q 635 297 667 462 q 604 106 604 132 q 627 70 604 70 q 758 157 659 70 l 772 129 q 538 -24 592 -24 q 492 39 492 -24 q 514 173 492 79 q 562 396 540 281 q 597 570 580 489 l 344 570 z "},"∫":{"ha":1389,"x_min":333,"x_max":1057,"o":"m 333 -208 l 333 -114 q 400 -119 374 -119 q 597 -25 543 -119 q 636 92 626 26 q 647 290 647 158 l 647 754 q 665 931 647 859 q 722 1061 682 1003 q 993 1190 811 1190 q 1057 1184 1022 1190 l 1057 1086 q 1003 1095 1026 1095 q 814 1023 880 1095 q 740 710 740 941 l 740 232 q 732 81 740 138 q 703 -26 724 24 q 587 -169 663 -125 q 379 -213 511 -213 q 333 -208 355 -213 z "},"ª":{"ha":463,"x_min":83,"x_max":446,"o":"m 443 964 l 361 654 q 360 643 360 648 q 376 619 360 619 q 393 624 385 619 q 435 654 394 625 l 440 657 l 446 640 q 315 561 340 561 q 293 591 293 561 q 298 635 293 608 l 321 743 q 240 643 271 675 q 170 585 208 610 q 115 561 132 561 q 92 580 101 561 q 83 629 83 600 q 113 784 83 694 q 174 903 143 875 q 326 971 248 971 q 404 956 359 971 l 433 970 l 443 964 m 368 915 q 290 930 317 930 q 231 916 249 930 q 196 851 214 901 l 173 787 q 149 650 149 718 q 163 621 149 621 q 234 665 186 621 q 307 753 282 709 q 368 915 338 809 z "},"º":{"ha":463,"x_min":92,"x_max":447,"o":"m 326 970 q 413 940 383 970 q 447 846 447 906 q 420 719 447 783 q 352 618 394 656 q 206 561 286 561 q 121 595 151 561 q 92 694 92 630 q 114 811 92 754 q 176 907 136 868 q 326 970 238 970 m 295 939 q 199 877 235 939 q 159 702 159 808 q 243 593 159 593 q 337 656 300 593 q 367 738 355 688 q 379 834 379 788 q 295 939 379 939 z "},"Ω":{"ha":845,"x_min":-12,"x_max":857,"o":"m -12 0 l -12 115 l 252 115 q 89 237 155 148 q 7 515 7 347 q 104 826 7 709 q 256 936 163 897 q 422 969 337 969 q 654 901 547 969 q 837 516 837 784 q 742 220 837 334 q 592 115 678 144 l 857 115 l 857 0 l 477 0 l 477 115 q 633 258 578 179 q 701 511 701 354 q 654 725 701 641 q 422 865 577 865 q 219 769 294 865 q 144 508 144 673 q 196 283 144 374 q 368 115 248 192 l 368 0 l -12 0 z "},"æ":{"ha":886,"x_min":1,"x_max":865,"o":"m 372 113 q 268 25 311 52 q 134 -16 202 -16 q 1 127 1 -16 q 300 350 1 350 l 395 350 q 403 425 403 375 q 388 517 403 481 q 250 603 353 603 q 176 590 212 603 q 161 570 164 580 l 134 490 l 109 497 l 100 591 q 135 614 114 600 q 216 658 184 647 q 294 669 248 669 q 412 640 368 669 q 488 538 455 610 q 748 669 646 669 q 833 639 800 669 q 865 559 865 608 q 827 458 865 508 q 725 376 789 409 q 485 319 631 328 q 467 184 467 224 q 503 81 467 116 q 583 50 534 50 q 655 65 618 50 q 751 122 691 81 q 777 139 764 132 l 804 157 l 814 126 q 653 14 711 43 q 532 -16 594 -16 q 429 14 466 -16 q 372 113 393 43 m 391 317 l 339 317 q 164 277 220 317 q 102 144 102 234 q 125 75 102 98 q 195 50 151 50 q 305 101 255 50 q 378 236 355 152 q 391 317 387 270 m 490 354 q 611 375 566 361 q 694 417 656 389 q 762 539 762 467 q 686 611 762 611 q 543 517 603 611 q 490 354 502 452 z "},"ø":{"ha":616,"x_min":-25,"x_max":639,"o":"m 522 614 l 606 708 l 639 680 l 547 576 q 571 458 571 520 q 538 271 571 368 q 453 111 505 174 q 337 19 406 54 q 203 -16 269 -16 q 72 40 122 -16 l 8 -33 l -25 -5 l 49 78 q 24 207 24 131 q 99 490 24 362 q 385 669 205 669 q 522 614 470 669 m 463 480 l 143 119 q 257 37 178 37 q 396 134 341 37 q 446 271 426 185 q 465 433 465 357 q 464 465 465 448 l 463 480 m 132 172 l 451 533 q 337 616 418 616 q 195 522 250 616 q 148 386 165 470 q 130 215 130 302 q 132 172 130 197 z "},"¿":{"ha":694,"x_min":79,"x_max":514,"o":"m 482 -146 l 513 -154 q 493 -202 512 -157 l 457 -290 q 298 -342 374 -342 q 127 -280 189 -342 q 79 -156 79 -232 q 103 -54 79 -101 q 182 46 127 -7 l 327 184 q 381 246 366 223 q 396 292 396 269 q 359 363 396 323 l 393 371 q 446 283 446 337 q 370 129 446 216 l 273 20 q 193 -142 193 -70 q 232 -227 193 -194 q 331 -260 271 -260 q 400 -245 373 -260 q 454 -187 427 -229 l 482 -146 m 452 648 q 496 629 478 648 q 514 582 514 610 q 489 514 514 542 q 430 486 465 486 q 385 503 401 486 q 368 551 368 520 q 393 620 368 591 q 452 648 417 648 z "},"¡":{"ha":463,"x_min":21,"x_max":323,"o":"m 262 648 q 306 629 288 648 q 323 582 323 610 q 299 514 323 542 q 239 486 274 486 q 194 503 210 486 q 178 551 178 520 q 202 620 178 591 q 262 648 227 648 m 155 -347 l 37 -383 l 21 -371 q 192 346 100 -66 l 233 370 l 242 366 l 213 151 q 165 -249 186 -44 l 155 -347 z "},"¬":{"ha":842,"x_min":67,"x_max":787,"o":"m 67 566 l 787 566 l 787 170 l 715 170 l 715 494 l 67 494 l 67 566 z "},"√":{"ha":1003,"x_min":126,"x_max":843,"o":"m 627 -50 l 283 654 l 149 588 l 126 637 l 334 738 l 610 179 l 790 1296 l 843 1289 l 627 -50 z "},"ƒ":{"ha":694,"x_min":7,"x_max":652,"o":"m 7 -383 l 24 -272 l 39 -267 q 102 -295 64 -295 q 151 -270 129 -295 q 184 -203 172 -245 q 186 -195 185 -199 q 205 -121 201 -142 l 322 513 l 165 513 l 178 561 l 329 561 q 373 711 349 652 q 437 833 397 771 q 611 984 536 984 q 618 983 614 984 l 652 977 l 636 867 q 561 899 598 899 q 521 886 540 899 q 493 852 502 873 q 446 648 473 808 l 431 561 l 586 561 l 575 513 l 423 513 l 353 170 q 291 -57 330 61 q 212 -249 251 -175 q 167 -315 189 -294 q 103 -357 145 -337 q 7 -383 56 -380 z "},"≈":{"ha":1389,"x_min":269,"x_max":1122,"o":"m 351 427 l 269 479 q 340 578 302 545 q 515 644 410 644 q 588 634 551 644 q 690 600 625 625 q 826 551 781 564 q 903 538 871 538 q 1047 618 981 538 l 1122 557 q 891 438 1029 438 q 817 447 848 438 q 711 489 786 456 q 518 541 595 541 q 421 511 465 541 q 351 427 376 481 m 351 216 l 269 269 q 340 368 302 333 q 514 433 411 433 q 690 389 577 433 q 828 339 787 351 q 903 327 870 327 q 1047 407 981 327 l 1122 346 q 890 227 1029 227 q 817 236 848 227 q 711 278 785 245 q 517 330 595 330 q 421 300 465 330 q 351 216 376 270 z "},"∆":{"ha":922,"x_min":34,"x_max":888,"o":"m 34 0 l 490 977 l 888 0 l 34 0 m 135 73 l 705 73 l 437 722 l 135 73 z "},"«":{"ha":694,"x_min":79,"x_max":607,"o":"m 289 97 l 79 349 l 79 371 l 349 611 l 375 589 l 185 355 l 317 118 l 289 97 m 521 97 l 311 349 l 311 371 l 581 611 l 607 589 l 417 355 l 549 118 l 521 97 z "},"»":{"ha":694,"x_min":87,"x_max":615,"o":"m 174 611 l 383 359 l 383 338 l 114 97 l 87 119 l 278 353 l 146 590 l 174 611 m 406 611 l 615 359 l 615 338 l 346 97 l 319 119 l 510 353 l 378 590 l 406 611 z "},"…":{"ha":1389,"x_min":142,"x_max":1213,"o":"m 226 155 q 270 136 252 155 q 288 89 288 117 q 263 21 288 50 q 203 -7 238 -7 q 158 11 175 -7 q 142 58 142 28 q 166 127 142 98 q 226 155 191 155 m 688 155 q 732 136 714 155 q 750 89 750 117 q 725 21 750 50 q 666 -7 701 -7 q 621 11 637 -7 q 604 58 604 28 q 629 127 604 98 q 688 155 653 155 m 1151 155 q 1195 136 1177 155 q 1213 89 1213 117 q 1188 21 1213 50 q 1128 -7 1163 -7 q 1083 11 1100 -7 q 1067 58 1067 28 q 1091 127 1067 98 q 1151 155 1116 155 z "},"À":{"ha":1003,"x_min":-26,"x_max":940,"o":"m 642 979 l 705 979 l 826 111 q 845 55 833 66 q 904 39 857 44 l 940 35 l 940 -4 q 771 0 812 0 q 602 -4 730 0 l 602 35 l 663 39 q 722 77 722 43 q 719 107 722 86 q 717 123 718 115 l 682 385 l 340 385 l 199 142 q 163 65 163 80 q 176 48 163 56 q 205 39 189 40 l 278 35 l 278 -4 q 130 0 165 0 q -26 -4 92 0 l -26 37 l 1 45 q 63 77 37 54 q 123 155 89 101 l 642 979 m 623 834 l 375 435 l 675 435 l 623 834 m 751 1011 l 526 1152 q 487 1203 487 1176 q 503 1233 487 1221 q 541 1246 519 1246 q 586 1221 560 1246 l 798 1011 l 751 1011 z "},"Ã":{"ha":1003,"x_min":-26,"x_max":940,"o":"m 642 979 l 705 979 l 826 111 q 845 55 833 66 q 904 39 857 44 l 940 35 l 940 -4 q 771 0 812 0 q 602 -4 730 0 l 602 35 l 663 39 q 722 77 722 43 q 719 107 722 86 q 717 123 718 115 l 682 385 l 340 385 l 199 142 q 163 65 163 80 q 176 48 163 56 q 205 39 189 40 l 278 35 l 278 -4 q 130 0 165 0 q -26 -4 92 0 l -26 37 l 1 45 q 63 77 37 54 q 123 155 89 101 l 642 979 m 623 834 l 375 435 l 675 435 l 623 834 m 489 1060 l 449 1060 q 494 1160 467 1126 q 586 1203 528 1203 q 673 1183 623 1203 l 756 1150 q 793 1143 774 1143 q 829 1155 814 1143 q 864 1203 843 1166 l 903 1203 q 867 1111 892 1145 q 769 1059 829 1059 q 680 1082 736 1059 l 627 1103 q 623 1104 627 1103 q 614 1107 621 1105 q 562 1121 582 1121 q 520 1108 535 1121 q 489 1060 505 1095 z "},"Õ":{"ha":1080,"x_min":73,"x_max":1038,"o":"m 644 981 q 938 875 831 981 q 1038 591 1038 776 q 920 212 1038 380 q 637 3 810 59 q 448 -25 551 -25 q 291 0 361 -25 q 175 70 220 24 q 73 378 73 174 q 244 819 73 652 q 644 981 410 981 m 602 922 q 347 824 444 922 q 250 676 284 762 q 195 384 195 538 q 500 33 195 33 q 766 139 663 33 q 865 292 831 204 q 916 568 916 423 q 602 922 916 922 m 496 1060 l 456 1060 q 500 1160 474 1126 q 593 1203 535 1203 q 680 1183 630 1203 l 763 1150 q 800 1143 781 1143 q 836 1155 821 1143 q 871 1203 850 1166 l 910 1203 q 873 1111 900 1145 q 776 1059 836 1059 q 686 1082 744 1059 l 633 1103 q 630 1104 633 1103 q 621 1107 628 1105 q 568 1121 589 1121 q 527 1108 542 1121 q 496 1060 512 1095 z "},"Œ":{"ha":1428,"x_min":78,"x_max":1374,"o":"m 917 464 l 857 113 q 854 70 854 97 l 854 64 q 1006 54 919 54 q 1128 58 1059 54 q 1215 66 1196 62 q 1249 87 1237 72 q 1271 140 1261 103 l 1293 224 l 1331 224 l 1324 187 q 1301 50 1307 98 l 1296 0 l 1249 -1 q 1152 -4 1182 -4 q 1025 -2 1124 -4 q 848 0 915 0 q 828 -1 838 0 l 795 -2 q 748 -4 751 -4 q 731 6 731 -4 q 734 28 731 14 l 756 125 q 681 54 711 77 q 609 12 650 31 q 431 -25 528 -25 q 181 66 271 -25 q 78 367 78 170 q 174 723 78 562 q 387 926 256 859 q 623 981 493 981 q 769 955 712 981 q 882 865 827 930 l 892 933 q 898 956 895 951 q 911 961 901 961 q 927 960 917 961 l 939 960 q 1013 957 979 957 q 1082 958 1043 957 l 1206 960 q 1274 961 1260 961 q 1374 957 1328 961 q 1345 746 1352 875 l 1312 746 l 1300 869 q 1152 903 1297 903 q 1025 899 1095 903 l 995 897 q 982 852 987 880 l 928 522 l 951 522 q 1256 530 1100 522 l 1261 521 l 1235 458 l 1198 460 q 1052 464 1105 464 l 917 464 m 793 375 l 833 610 q 840 689 840 648 q 791 847 840 789 q 593 922 728 922 q 354 827 446 922 q 256 675 292 762 q 200 395 200 543 q 296 96 200 195 q 452 33 357 33 q 704 170 600 33 q 793 375 774 262 z "},"œ":{"ha":929,"x_min":24,"x_max":909,"o":"m 534 292 q 521 176 521 220 q 554 79 521 112 q 631 50 584 50 q 821 132 707 50 l 852 154 l 860 122 q 704 15 766 45 q 583 -16 643 -16 q 483 14 522 -16 q 431 98 444 43 q 319 9 368 35 q 205 -16 270 -16 q 24 210 24 -16 q 143 550 24 416 q 256 637 193 605 q 380 669 320 669 q 483 641 441 669 q 555 550 526 612 q 700 644 648 618 q 798 669 751 669 q 878 638 846 669 q 909 557 909 606 q 803 394 909 462 q 534 292 726 345 m 330 616 q 243 585 279 616 q 179 481 208 553 q 130 213 130 355 q 189 55 130 91 q 259 37 218 37 q 379 105 339 37 q 438 263 415 165 q 461 453 461 361 q 330 616 461 616 m 539 325 q 692 379 627 345 q 806 537 806 439 q 743 611 806 611 q 658 583 699 611 q 591 508 617 555 q 539 325 562 456 z "},"–":{"ha":694,"x_min":-14,"x_max":709,"o":"m 694 317 l -14 317 l 0 386 l 709 386 l 694 317 z "},"—":{"ha":1389,"x_min":-14,"x_max":1403,"o":"m 1389 317 l -14 317 l 0 386 l 1403 386 l 1389 317 z "},"“":{"ha":694,"x_min":136,"x_max":660,"o":"m 149 677 l 136 703 q 332 1000 233 886 l 376 1018 l 387 1005 q 273 712 292 861 q 149 677 213 701 m 422 677 l 410 703 q 606 1000 506 886 l 650 1018 l 660 1005 q 546 712 566 861 q 422 677 487 701 z "},"”":{"ha":694,"x_min":136,"x_max":660,"o":"m 374 1018 l 387 993 q 191 696 291 810 l 146 677 l 136 690 q 250 983 230 834 q 374 1018 304 992 m 648 1018 l 660 993 q 464 696 564 810 l 420 677 l 410 690 q 524 983 503 834 q 648 1018 578 992 z "},"‘":{"ha":386,"x_min":108,"x_max":358,"o":"m 120 677 l 108 703 q 304 1000 204 886 l 348 1018 l 358 1005 q 244 712 264 861 q 120 677 184 701 z "},"’":{"ha":386,"x_min":108,"x_max":358,"o":"m 345 1018 l 358 993 q 162 696 262 810 l 117 677 l 108 690 q 222 983 201 834 q 345 1018 275 992 z "},"÷":{"ha":842,"x_min":71,"x_max":770,"o":"m 71 323 l 71 401 l 770 401 l 770 323 l 71 323 m 421 711 q 478 687 454 711 q 503 629 503 662 q 478 574 503 597 q 420 550 454 550 q 365 574 389 550 q 341 631 341 599 q 365 687 341 663 q 421 711 389 711 m 421 175 q 478 150 454 175 q 503 93 503 125 q 478 37 503 61 q 420 14 454 14 q 365 38 389 14 q 341 94 341 62 q 365 151 341 126 q 421 175 389 175 z "},"◊":{"ha":798,"x_min":74,"x_max":710,"o":"m 345 0 l 74 535 l 352 1050 l 441 1050 l 710 531 l 430 0 l 345 0 m 389 82 l 619 531 l 396 970 l 163 535 l 389 82 z "},"ÿ":{"ha":694,"x_min":-11,"x_max":681,"o":"m -9 -250 l 57 -203 l 71 -208 q 68 -239 68 -227 q 93 -300 68 -276 q 155 -325 118 -325 q 283 -243 227 -325 q 392 22 338 -162 l 460 259 q 304 63 382 141 q 189 -16 227 -16 q 145 12 161 -16 q 128 83 128 39 q 130 139 128 119 l 153 476 q 154 497 154 488 q 124 569 154 569 q 89 552 116 569 l 20 511 l 5 536 l 119 614 q 189 659 170 649 q 222 669 208 669 q 256 582 256 669 q 250 447 256 515 l 229 178 q 229 160 229 165 q 256 93 229 93 q 323 132 279 93 q 403 225 367 172 q 469 343 437 276 q 514 460 501 411 l 563 643 q 665 669 608 648 l 681 656 l 485 46 q 345 -232 432 -121 q 104 -383 227 -383 q 23 -351 56 -383 q -11 -275 -11 -319 q -9 -250 -11 -265 m 294 885 q 342 864 321 885 q 363 817 363 844 q 342 768 363 789 q 294 746 321 746 q 246 768 267 746 q 224 817 224 789 q 245 864 224 844 q 294 885 267 885 m 572 885 q 621 864 600 885 q 642 817 642 844 q 620 768 642 789 q 572 746 599 746 q 524 768 545 746 q 503 817 503 789 q 524 864 503 844 q 572 885 545 885 z "},"Ÿ":{"ha":926,"x_min":72,"x_max":937,"o":"m 72 899 l 94 913 q 176 975 101 919 l 182 979 q 254 962 228 975 q 307 913 279 948 q 480 431 390 809 q 658 745 543 590 q 795 895 734 846 q 937 968 856 944 l 929 869 q 867 851 889 861 q 814 820 844 842 q 708 712 768 787 q 592 544 648 637 q 503 342 513 412 l 466 109 q 464 79 464 97 q 475 50 464 59 q 513 39 486 41 l 582 35 l 577 -4 l 541 -3 q 406 0 450 0 q 287 -2 371 0 l 214 -4 l 219 35 l 286 39 q 339 61 327 41 q 366 174 351 81 l 395 349 q 396 357 396 353 q 368 480 396 382 q 309 662 340 578 q 258 784 280 742 q 210 850 236 826 q 138 882 176 882 q 76 865 117 882 l 72 899 m 418 1177 q 467 1156 446 1177 q 488 1108 488 1135 q 466 1059 488 1081 q 418 1038 445 1038 q 370 1059 391 1038 q 349 1109 349 1081 q 370 1156 349 1136 q 418 1177 391 1177 m 696 1177 q 744 1156 723 1177 q 765 1108 765 1135 q 744 1059 765 1081 q 696 1038 722 1038 q 647 1059 669 1038 q 626 1109 626 1081 q 647 1156 626 1136 q 696 1177 668 1177 z "},"⁄":{"ha":232,"x_min":-236,"x_max":468,"o":"m -158 0 l -236 0 l 391 970 l 468 970 l -158 0 z "},"€":{"ha":694,"x_min":58,"x_max":853,"o":"m 667 97 l 675 89 l 669 47 q 442 -28 559 -28 q 291 12 357 -28 q 186 123 224 51 q 141 349 141 211 l 58 347 l 79 409 l 144 408 q 156 494 149 460 l 81 492 l 103 552 l 169 551 q 322 840 221 736 q 637 985 463 985 q 853 928 741 985 q 791 717 809 811 l 748 717 l 765 817 q 766 827 766 821 q 720 896 766 865 q 617 926 673 926 q 432 822 515 926 q 315 547 349 718 l 362 547 l 638 555 l 621 491 q 356 498 380 498 q 305 497 349 498 q 294 404 297 451 l 299 404 l 317 404 l 571 412 l 555 345 q 304 353 330 353 l 298 353 l 293 353 q 315 204 295 264 q 394 88 342 127 q 515 47 448 47 q 663 94 586 47 l 667 97 z "},"‹":{"ha":463,"x_min":79,"x_max":375,"o":"m 289 97 l 79 349 l 79 371 l 349 611 l 375 589 l 185 355 l 317 118 l 289 97 z "},"›":{"ha":463,"x_min":87,"x_max":383,"o":"m 174 611 l 383 359 l 383 338 l 114 97 l 87 119 l 278 353 l 146 590 l 174 611 z "},"ﬁ":{"ha":733,"x_min":-225,"x_max":697,"o":"m 645 989 q 682 971 666 989 q 697 931 697 954 q 675 865 697 892 q 621 839 653 839 q 581 854 595 839 q 566 896 566 869 q 591 960 566 930 q 645 989 616 989 m 267 607 l 390 600 q 397 600 393 600 q 546 648 441 600 q 604 669 590 669 q 625 621 625 669 q 618 564 625 600 l 533 151 q 526 103 526 119 q 544 75 526 75 q 610 104 572 75 l 656 140 l 669 113 q 460 -12 514 -12 q 412 46 412 -12 q 420 113 412 75 l 503 493 q 505 500 503 494 q 513 545 513 531 q 487 576 513 576 q 450 564 479 576 l 378 532 l 252 532 q 227 410 235 450 q 112 -77 151 45 q 10 -275 73 -200 q -82 -353 -31 -323 q -176 -383 -134 -383 q -225 -372 -203 -383 q -193 -261 -207 -330 l -174 -256 q -141 -287 -156 -279 q -102 -296 -125 -296 q -36 -266 -62 -296 q 5 -197 -11 -236 q 38 -86 21 -159 q 139 454 87 128 l 151 532 l 39 532 l 45 562 q 165 614 94 579 l 186 724 q 248 875 207 832 q 336 954 280 907 q 411 1008 393 1000 q 460 1018 432 1018 q 521 1006 484 1018 q 492 882 507 964 l 475 878 q 405 935 453 935 q 339 889 368 935 q 296 762 311 844 l 267 607 z "},"ﬂ":{"ha":757,"x_min":-225,"x_max":722,"o":"m 493 878 q 416 929 474 929 q 340 891 368 929 q 296 762 313 854 l 267 607 l 288 607 q 405 616 367 607 l 415 619 l 420 610 q 397 532 408 576 l 253 532 q 227 410 235 450 q 112 -78 150 43 q 10 -275 73 -200 q -82 -353 -31 -323 q -176 -383 -134 -383 q -225 -372 -203 -383 q -193 -261 -207 -330 l -174 -256 q -141 -287 -156 -279 q -102 -296 -125 -296 q -36 -266 -62 -296 q 5 -197 -11 -236 q 38 -86 21 -159 q 139 454 87 128 l 151 532 l 39 532 l 45 562 q 165 614 94 579 l 186 724 q 248 875 206 831 q 337 948 271 899 q 428 1008 404 997 q 479 1018 448 1018 q 532 1006 502 1018 l 522 968 q 700 1018 614 968 l 722 1006 l 551 208 q 537 109 537 142 q 559 78 537 78 q 615 102 581 78 l 682 150 l 694 121 l 646 85 q 531 5 564 22 q 466 -12 498 -12 q 427 43 427 -12 q 441 134 427 66 l 443 142 l 444 149 l 561 703 q 585 824 581 799 q 591 891 589 850 l 583 922 q 537 933 556 932 l 515 935 l 507 878 l 493 878 z "},"‡":{"ha":694,"x_min":14,"x_max":686,"o":"m 146 680 l 366 672 l 374 728 q 399 954 389 821 l 407 961 q 459 958 435 958 q 512 961 483 958 l 513 954 q 464 728 490 852 l 452 675 l 675 683 l 686 672 l 677 603 l 665 595 l 440 606 l 423 502 q 410 387 410 423 q 411 368 410 381 q 370 228 389 319 l 351 130 l 573 139 l 585 127 l 576 58 l 564 52 l 338 61 l 322 -33 q 305 -211 317 -61 l 294 -225 q 241 -223 266 -223 q 189 -225 216 -223 l 186 -211 l 251 61 l 26 52 l 14 58 l 27 127 l 43 136 l 264 127 l 281 232 q 297 374 296 315 q 318 428 311 401 q 339 528 326 456 l 354 606 l 129 595 l 117 603 l 130 672 l 146 680 z "},"·":{"ha":347,"x_min":74,"x_max":220,"o":"m 158 433 q 202 414 184 433 q 220 367 220 395 q 195 299 220 327 q 136 271 170 271 q 91 288 107 271 q 74 336 74 305 q 98 405 74 376 q 158 433 123 433 z "},"‚":{"ha":386,"x_min":37,"x_max":293,"o":"m 155 132 l 277 167 l 293 150 q 94 -153 205 -24 l 50 -170 l 37 -160 q 155 132 119 -45 z "},"„":{"ha":694,"x_min":60,"x_max":589,"o":"m 178 132 l 300 167 l 315 150 q 117 -153 228 -24 l 72 -170 l 60 -160 q 178 132 141 -45 m 452 132 l 574 167 l 589 150 q 390 -153 501 -24 l 346 -170 l 333 -160 q 452 132 414 -45 z "},"‰":{"ha":1389,"x_min":100,"x_max":1290,"o":"m 320 970 q 433 926 389 970 q 481 796 481 878 q 408 615 481 689 q 258 553 345 553 q 151 593 191 553 q 100 735 100 645 q 145 876 100 814 q 320 970 215 970 m 319 939 q 234 879 268 939 q 201 786 214 844 q 189 673 189 728 q 261 585 189 585 q 347 644 313 585 q 380 738 367 680 q 393 850 393 795 q 319 939 393 939 m 680 418 q 793 373 749 418 q 842 243 842 326 q 767 63 842 137 q 618 0 704 0 q 511 41 550 0 q 459 182 459 92 q 505 323 459 261 q 680 418 575 418 m 680 386 q 593 326 628 386 q 561 233 574 292 q 548 120 548 175 q 621 32 548 32 q 707 92 673 32 q 740 184 727 126 q 753 298 753 243 q 680 386 753 386 m 1128 418 q 1242 373 1197 418 q 1290 243 1290 326 q 1216 63 1290 137 q 1067 0 1153 0 q 959 41 999 0 q 908 183 908 92 q 954 323 908 260 q 1128 418 1023 418 m 1128 386 q 1042 326 1076 386 q 1010 233 1023 291 q 997 120 997 176 q 1069 32 997 32 q 1156 92 1122 32 q 1188 184 1175 126 q 1201 298 1201 243 q 1128 386 1201 386 m 130 -8 l 764 996 l 821 996 l 193 -8 l 130 -8 z "},"Â":{"ha":1003,"x_min":-26,"x_max":940,"o":"m 642 979 l 705 979 l 826 111 q 845 55 833 66 q 904 39 857 44 l 940 35 l 940 -4 q 771 0 812 0 q 602 -4 730 0 l 602 35 l 663 39 q 722 77 722 43 q 719 107 722 86 q 717 123 718 115 l 682 385 l 340 385 l 199 142 q 163 65 163 80 q 176 48 163 56 q 205 39 189 40 l 278 35 l 278 -4 q 130 0 165 0 q -26 -4 92 0 l -26 37 l 1 45 q 63 77 37 54 q 123 155 89 101 l 642 979 m 623 834 l 375 435 l 675 435 l 623 834 m 753 1235 l 876 1000 l 825 1000 l 711 1145 l 521 1000 l 467 1000 l 685 1235 l 753 1235 z "},"Ê":{"ha":848,"x_min":41,"x_max":791,"o":"m 307 464 l 247 113 q 244 70 244 96 l 244 64 q 427 54 352 54 q 632 67 576 54 q 667 87 654 72 q 688 140 679 103 l 711 224 l 748 224 l 741 187 q 719 50 724 94 l 713 0 l 667 -1 q 553 -4 587 -5 l 255 0 q 98 -3 206 1 l 41 -4 l 48 32 q 112 49 96 40 q 132 77 128 58 l 252 777 q 265 882 265 850 q 216 920 265 918 l 141 922 l 146 961 l 208 960 q 366 957 300 957 q 477 958 431 957 l 642 960 q 695 961 682 961 q 791 957 745 961 q 762 746 770 875 l 729 746 l 718 869 q 570 903 715 903 q 454 900 524 903 l 389 897 q 376 852 381 882 l 318 522 l 369 522 q 673 530 517 522 l 679 521 l 652 458 l 616 460 q 469 464 523 464 l 307 464 m 574 1235 l 696 1000 l 646 1000 l 532 1145 l 342 1000 l 288 1000 l 505 1235 l 574 1235 z "},"Á":{"ha":1003,"x_min":-26,"x_max":940,"o":"m 642 979 l 705 979 l 826 111 q 845 55 833 66 q 904 39 857 44 l 940 35 l 940 -4 q 771 0 812 0 q 602 -4 730 0 l 602 35 l 663 39 q 722 77 722 43 q 719 107 722 86 q 717 123 718 115 l 682 385 l 340 385 l 199 142 q 163 65 163 80 q 176 48 163 56 q 205 39 189 40 l 278 35 l 278 -4 q 130 0 165 0 q -26 -4 92 0 l -26 37 l 1 45 q 63 77 37 54 q 123 155 89 101 l 642 979 m 623 834 l 375 435 l 675 435 l 623 834 m 546 1011 l 758 1221 q 804 1246 783 1246 q 841 1233 825 1246 q 857 1203 857 1221 q 818 1152 857 1176 l 593 1011 l 546 1011 z "},"Ë":{"ha":848,"x_min":41,"x_max":791,"o":"m 307 464 l 247 113 q 244 70 244 96 l 244 64 q 427 54 352 54 q 632 67 576 54 q 667 87 654 72 q 688 140 679 103 l 711 224 l 748 224 l 741 187 q 719 50 724 94 l 713 0 l 667 -1 q 553 -4 587 -5 l 255 0 q 98 -3 206 1 l 41 -4 l 48 32 q 112 49 96 40 q 132 77 128 58 l 252 777 q 265 882 265 850 q 216 920 265 918 l 141 922 l 146 961 l 208 960 q 366 957 300 957 q 477 958 431 957 l 642 960 q 695 961 682 961 q 791 957 745 961 q 762 746 770 875 l 729 746 l 718 869 q 570 903 715 903 q 454 900 524 903 l 389 897 q 376 852 381 882 l 318 522 l 369 522 q 673 530 517 522 l 679 521 l 652 458 l 616 460 q 469 464 523 464 l 307 464 m 348 1177 q 396 1156 375 1177 q 417 1108 417 1135 q 396 1059 417 1081 q 348 1038 374 1038 q 299 1059 321 1038 q 278 1109 278 1081 q 299 1156 278 1136 q 348 1177 320 1177 m 625 1177 q 673 1156 652 1177 q 694 1108 694 1135 q 673 1059 694 1081 q 625 1038 652 1038 q 577 1059 598 1038 q 555 1109 555 1081 q 576 1156 555 1136 q 625 1177 597 1177 z "},"È":{"ha":848,"x_min":41,"x_max":791,"o":"m 307 464 l 247 113 q 244 70 244 96 l 244 64 q 427 54 352 54 q 632 67 576 54 q 667 87 654 72 q 688 140 679 103 l 711 224 l 748 224 l 741 187 q 719 50 724 94 l 713 0 l 667 -1 q 553 -4 587 -5 l 255 0 q 98 -3 206 1 l 41 -4 l 48 32 q 112 49 96 40 q 132 77 128 58 l 252 777 q 265 882 265 850 q 216 920 265 918 l 141 922 l 146 961 l 208 960 q 366 957 300 957 q 477 958 431 957 l 642 960 q 695 961 682 961 q 791 957 745 961 q 762 746 770 875 l 729 746 l 718 869 q 570 903 715 903 q 454 900 524 903 l 389 897 q 376 852 381 882 l 318 522 l 369 522 q 673 530 517 522 l 679 521 l 652 458 l 616 460 q 469 464 523 464 l 307 464 m 630 1011 l 405 1152 q 366 1203 366 1175 q 382 1233 366 1221 q 419 1246 398 1246 q 465 1221 439 1246 l 677 1011 l 630 1011 z "},"Í":{"ha":463,"x_min":9,"x_max":564,"o":"m 143 922 l 147 961 l 236 959 q 344 957 314 957 q 479 960 397 957 l 492 961 l 488 922 l 439 918 q 387 903 399 915 q 368 851 374 891 l 243 109 q 241 79 241 96 q 253 50 241 58 q 292 39 264 41 l 363 35 l 359 -4 l 315 -3 q 184 0 226 0 q 54 -3 142 0 l 9 -4 l 14 35 l 64 39 q 101 46 90 41 q 118 64 112 52 q 144 174 130 87 l 244 777 q 257 884 257 853 q 208 920 257 918 l 143 922 m 252 1011 l 465 1221 q 510 1246 490 1246 q 548 1233 532 1246 q 564 1204 564 1221 q 525 1152 564 1175 l 300 1011 l 252 1011 z "},"Î":{"ha":463,"x_min":9,"x_max":541,"o":"m 143 922 l 147 961 l 236 959 q 344 957 314 957 q 479 960 397 957 l 492 961 l 488 922 l 439 918 q 387 903 399 915 q 368 851 374 891 l 243 109 q 241 79 241 96 q 253 50 241 58 q 292 39 264 41 l 363 35 l 359 -4 l 315 -3 q 184 0 226 0 q 54 -3 142 0 l 9 -4 l 14 35 l 64 39 q 101 46 90 41 q 118 64 112 52 q 144 174 130 87 l 244 777 q 257 884 257 853 q 208 920 257 918 l 143 922 m 419 1235 l 541 1000 l 492 1000 l 378 1145 l 187 1000 l 133 1000 l 351 1235 l 419 1235 z "},"Ï":{"ha":463,"x_min":9,"x_max":553,"o":"m 143 922 l 147 961 l 236 959 q 344 957 314 957 q 479 960 397 957 l 492 961 l 488 922 l 439 918 q 387 903 399 915 q 368 851 374 891 l 243 109 q 241 79 241 96 q 253 50 241 58 q 292 39 264 41 l 363 35 l 359 -4 l 315 -3 q 184 0 226 0 q 54 -3 142 0 l 9 -4 l 14 35 l 64 39 q 101 46 90 41 q 118 64 112 52 q 144 174 130 87 l 244 777 q 257 884 257 853 q 208 920 257 918 l 143 922 m 205 1177 q 254 1156 233 1177 q 275 1108 275 1135 q 253 1059 275 1081 q 205 1038 232 1038 q 157 1059 178 1038 q 136 1109 136 1081 q 157 1156 136 1135 q 205 1177 178 1177 m 484 1177 q 532 1156 511 1177 q 553 1108 553 1135 q 531 1059 553 1081 q 484 1038 510 1038 q 435 1059 456 1038 q 414 1109 414 1081 q 435 1156 414 1136 q 484 1177 456 1177 z "},"Ì":{"ha":463,"x_min":9,"x_max":492,"o":"m 143 922 l 147 961 l 236 959 q 344 957 314 957 q 479 960 397 957 l 492 961 l 488 922 l 439 918 q 387 903 399 915 q 368 851 374 891 l 243 109 q 241 79 241 96 q 253 50 241 58 q 292 39 264 41 l 363 35 l 359 -4 l 315 -3 q 184 0 226 0 q 54 -3 142 0 l 9 -4 l 14 35 l 64 39 q 101 46 90 41 q 118 64 112 52 q 144 174 130 87 l 244 777 q 257 884 257 853 q 208 920 257 918 l 143 922 m 388 1011 l 163 1152 q 124 1203 124 1176 q 140 1233 124 1221 q 178 1246 156 1246 q 223 1221 197 1246 l 435 1011 l 388 1011 z "},"Ó":{"ha":1080,"x_min":73,"x_max":1038,"o":"m 644 981 q 938 875 831 981 q 1038 591 1038 776 q 920 212 1038 380 q 637 3 810 59 q 448 -25 551 -25 q 291 0 361 -25 q 175 70 220 24 q 73 378 73 174 q 244 819 73 652 q 644 981 410 981 m 602 922 q 347 824 444 922 q 250 676 284 762 q 195 384 195 538 q 500 33 195 33 q 766 139 663 33 q 865 292 831 204 q 916 568 916 423 q 602 922 916 922 m 557 1011 l 770 1221 q 815 1246 795 1246 q 853 1233 837 1246 q 869 1203 869 1221 q 830 1152 869 1175 l 605 1011 l 557 1011 z "},"Ô":{"ha":1080,"x_min":73,"x_max":1038,"o":"m 644 981 q 938 875 831 981 q 1038 591 1038 776 q 920 212 1038 380 q 637 3 810 59 q 448 -25 551 -25 q 291 0 361 -25 q 175 70 220 24 q 73 378 73 174 q 244 819 73 652 q 644 981 410 981 m 602 922 q 347 824 444 922 q 250 676 284 762 q 195 384 195 538 q 500 33 195 33 q 766 139 663 33 q 865 292 831 204 q 916 568 916 423 q 602 922 916 922 m 726 1235 l 848 1000 l 798 1000 l 684 1145 l 494 1000 l 440 1000 l 658 1235 l 726 1235 z "},"Ò":{"ha":1080,"x_min":73,"x_max":1038,"o":"m 644 981 q 938 875 831 981 q 1038 591 1038 776 q 920 212 1038 380 q 637 3 810 59 q 448 -25 551 -25 q 291 0 361 -25 q 175 70 220 24 q 73 378 73 174 q 244 819 73 652 q 644 981 410 981 m 602 922 q 347 824 444 922 q 250 676 284 762 q 195 384 195 538 q 500 33 195 33 q 766 139 663 33 q 865 292 831 204 q 916 568 916 423 q 602 922 916 922 m 736 1011 l 511 1152 q 472 1203 472 1176 q 488 1233 472 1221 q 526 1246 504 1246 q 571 1221 545 1246 l 783 1011 l 736 1011 z "},"Ú":{"ha":1080,"x_min":122,"x_max":1108,"o":"m 1104 922 l 1054 918 q 1003 903 1015 915 q 983 851 990 891 l 866 146 q 857 71 857 92 q 901 40 857 43 l 985 35 l 978 -4 l 933 -2 q 853 0 877 0 q 766 -3 826 0 l 736 -4 l 729 3 q 766 179 751 92 q 670 84 711 117 q 568 22 629 52 q 382 -25 473 -25 q 192 42 260 -25 q 134 201 134 98 q 143 286 134 235 l 232 807 q 241 887 241 863 q 232 911 241 905 q 194 920 222 918 l 122 922 l 126 961 l 170 959 q 252 957 230 957 q 332 959 274 957 l 375 961 l 253 298 q 243 214 243 245 q 283 107 243 148 q 436 54 338 54 q 593 94 514 54 q 684 153 646 121 q 772 245 722 185 l 871 864 q 872 880 872 872 q 823 920 872 918 l 757 922 l 761 961 l 848 959 q 960 957 932 957 q 1086 960 1010 957 l 1108 961 l 1104 922 m 504 1011 l 716 1221 q 762 1246 742 1246 q 799 1233 783 1246 q 815 1203 815 1221 q 776 1152 815 1176 l 551 1011 l 504 1011 z "},"Û":{"ha":1080,"x_min":122,"x_max":1108,"o":"m 1104 922 l 1054 918 q 1003 903 1015 915 q 983 851 990 891 l 866 146 q 857 71 857 92 q 901 40 857 43 l 985 35 l 978 -4 l 933 -2 q 853 0 877 0 q 766 -3 826 0 l 736 -4 l 729 3 q 766 179 751 92 q 670 84 711 117 q 568 22 629 52 q 382 -25 473 -25 q 192 42 260 -25 q 134 201 134 98 q 143 286 134 235 l 232 807 q 241 887 241 863 q 232 911 241 905 q 194 920 222 918 l 122 922 l 126 961 l 170 959 q 252 957 230 957 q 332 959 274 957 l 375 961 l 253 298 q 243 214 243 245 q 283 107 243 148 q 436 54 338 54 q 593 94 514 54 q 684 153 646 121 q 772 245 722 185 l 871 864 q 872 880 872 872 q 823 920 872 918 l 757 922 l 761 961 l 848 959 q 960 957 932 957 q 1086 960 1010 957 l 1108 961 l 1104 922 m 687 1235 l 809 1000 l 759 1000 l 645 1145 l 455 1000 l 401 1000 l 619 1235 l 687 1235 z "},"Ù":{"ha":1080,"x_min":122,"x_max":1108,"o":"m 1104 922 l 1054 918 q 1003 903 1015 915 q 983 851 990 891 l 866 146 q 857 71 857 92 q 901 40 857 43 l 985 35 l 978 -4 l 933 -2 q 853 0 877 0 q 766 -3 826 0 l 736 -4 l 729 3 q 766 179 751 92 q 670 84 711 117 q 568 22 629 52 q 382 -25 473 -25 q 192 42 260 -25 q 134 201 134 98 q 143 286 134 235 l 232 807 q 241 887 241 863 q 232 911 241 905 q 194 920 222 918 l 122 922 l 126 961 l 170 959 q 252 957 230 957 q 332 959 274 957 l 375 961 l 253 298 q 243 214 243 245 q 283 107 243 148 q 436 54 338 54 q 593 94 514 54 q 684 153 646 121 q 772 245 722 185 l 871 864 q 872 880 872 872 q 823 920 872 918 l 757 922 l 761 961 l 848 959 q 960 957 932 957 q 1086 960 1010 957 l 1108 961 l 1104 922 m 661 1011 l 435 1152 q 396 1203 396 1176 q 412 1233 396 1221 q 450 1246 428 1246 q 495 1221 470 1246 l 707 1011 l 661 1011 z "},"ı":{"ha":386,"x_min":47,"x_max":335,"o":"m 47 538 l 86 566 q 208 646 166 623 q 272 669 249 669 q 307 633 307 669 q 299 583 307 613 l 192 161 q 182 106 182 123 q 200 78 182 78 q 285 119 222 78 l 321 143 l 335 118 q 187 16 235 44 q 113 -12 139 -12 q 71 42 71 -12 q 89 149 71 83 l 181 481 q 192 543 192 522 q 168 572 192 572 q 102 539 152 572 l 57 511 l 47 538 z "},"ˆ":{"ha":463,"x_min":78,"x_max":486,"o":"m 364 943 l 486 708 l 436 708 l 322 852 l 132 708 l 78 708 l 296 943 l 364 943 z "},"˜":{"ha":463,"x_min":87,"x_max":542,"o":"m 127 743 l 87 743 q 132 843 106 810 q 224 886 167 886 q 311 867 262 886 l 395 833 q 431 827 411 827 q 467 839 453 827 q 503 886 481 850 l 542 886 q 505 794 531 829 q 408 743 467 743 q 318 765 374 743 l 265 786 q 252 791 256 789 q 200 804 219 804 q 159 791 174 804 q 127 743 144 779 z "},"¯":{"ha":463,"x_min":103,"x_max":536,"o":"m 536 818 l 521 747 l 103 747 l 119 818 l 536 818 z "},"˘":{"ha":463,"x_min":127,"x_max":545,"o":"m 127 940 l 168 940 q 319 802 180 802 q 424 833 382 802 q 505 940 466 864 l 545 940 q 518 857 531 886 q 483 801 505 828 q 310 720 418 720 q 155 800 199 720 q 127 940 128 848 z "},"˙":{"ha":463,"x_min":243,"x_max":393,"o":"m 319 896 q 370 873 348 896 q 393 822 393 851 q 370 769 393 791 q 317 746 348 746 q 265 769 288 746 q 243 822 243 791 q 265 874 243 852 q 319 896 288 896 z "},"˚":{"ha":463,"x_min":221,"x_max":499,"o":"m 361 997 q 459 956 418 997 q 499 858 499 916 q 460 762 499 801 q 360 720 418 720 q 261 760 302 720 q 221 859 221 800 q 262 957 221 917 q 361 997 302 997 m 361 947 q 298 923 321 947 q 274 858 274 899 q 297 794 274 818 q 360 770 321 770 q 422 794 399 770 q 446 858 446 818 q 422 922 446 898 q 361 947 399 947 z "},"¸":{"ha":463,"x_min":-12,"x_max":281,"o":"m 70 -144 l 57 -134 l 142 0 l 195 0 l 134 -89 q 165 -86 153 -86 q 250 -112 219 -86 q 281 -183 281 -138 q 229 -273 281 -242 q 109 -300 181 -300 q -12 -272 62 -300 l 12 -232 q 107 -252 72 -252 q 161 -234 140 -252 q 181 -189 181 -217 q 163 -151 181 -165 q 116 -136 145 -136 q 79 -142 101 -136 l 70 -144 z "},"˝":{"ha":463,"x_min":64,"x_max":534,"o":"m 64 720 l 215 978 q 267 1015 237 1015 q 317 972 317 1015 q 312 953 317 961 q 290 925 308 945 l 110 720 l 64 720 m 282 720 l 433 978 q 485 1015 455 1015 q 534 972 534 1015 q 509 925 534 954 l 328 720 l 282 720 z "},"˛":{"ha":463,"x_min":53,"x_max":273,"o":"m 253 -163 l 273 -168 q 127 -288 208 -288 q 73 -263 93 -288 q 53 -197 53 -239 q 71 -126 53 -159 q 137 -41 88 -94 l 151 -25 l 199 -25 l 196 -28 q 186 -41 192 -33 q 143 -100 155 -77 q 131 -146 131 -122 q 146 -192 131 -174 q 184 -210 161 -210 q 253 -163 215 -210 z "},"ˇ":{"ha":463,"x_min":144,"x_max":568,"o":"m 342 708 l 278 708 l 144 943 l 196 943 l 321 797 l 518 943 l 568 943 l 342 708 z "}," ":{"ha":347,"x_min":0,"x_max":0,"o":""},"¤":{"ha":694,"x_min":41,"x_max":652,"o":"m 106 737 l 174 671 q 347 728 249 728 q 520 671 445 728 l 587 737 l 652 672 l 585 604 q 643 435 643 536 q 585 264 643 337 l 652 195 l 590 133 l 524 200 q 347 141 451 141 q 170 200 243 141 l 104 133 l 41 195 l 109 264 q 51 435 51 337 q 64 529 51 489 q 109 604 78 568 l 41 672 l 106 737 m 351 646 q 188 574 252 646 q 133 435 133 514 q 203 278 133 341 q 347 223 264 223 q 507 294 443 223 q 561 434 561 354 q 490 590 561 526 q 351 646 429 646 z "},"¦":{"ha":842,"x_min":382,"x_max":460,"o":"m 382 0 l 382 407 l 460 407 l 460 0 l 382 0 m 382 1018 l 460 1018 l 460 611 l 382 611 l 382 1018 z "},"­":{"ha":463,"x_min":26,"x_max":422,"o":"m 26 309 l 53 390 l 422 390 l 397 309 l 26 309 z "},"²":{"ha":416,"x_min":18,"x_max":402,"o":"m 130 935 q 248 970 184 970 q 361 934 319 970 q 402 835 402 898 q 322 665 402 745 l 100 446 l 288 446 q 391 458 341 446 l 397 443 l 382 386 l 296 388 q 201 389 246 389 q 104 388 155 389 l 18 386 l 18 415 q 251 670 189 583 q 313 824 313 756 q 224 905 313 905 q 157 888 183 905 q 101 821 131 870 l 76 835 l 130 935 z "},"³":{"ha":416,"x_min":39,"x_max":422,"o":"m 39 415 l 64 536 l 94 532 q 90 496 90 514 q 197 415 90 415 q 283 452 247 415 q 336 578 336 506 q 306 654 336 627 q 221 682 276 682 q 153 668 195 682 l 147 686 l 162 728 q 184 727 177 727 q 203 726 199 726 q 286 751 251 726 q 334 846 334 787 q 309 894 334 875 q 247 913 284 913 q 158 867 194 913 l 140 843 l 119 857 l 172 945 q 277 970 233 970 q 377 940 338 970 q 415 863 415 910 q 385 783 415 817 q 282 715 354 749 q 390 669 358 699 q 422 585 422 640 q 366 454 422 510 q 171 379 289 379 q 39 415 97 379 z "},"¹":{"ha":416,"x_min":85,"x_max":396,"o":"m 379 962 l 374 943 q 359 878 363 902 l 287 490 q 285 462 285 477 q 295 434 285 441 q 338 424 306 426 l 396 419 l 390 386 l 318 388 q 237 389 283 389 q 157 388 192 389 l 85 386 l 92 419 l 160 428 q 189 441 180 430 q 203 485 197 453 l 278 901 l 193 867 l 118 833 l 111 838 l 121 897 q 269 937 207 916 l 366 970 l 379 962 z "},"¼":{"ha":1042,"x_min":43,"x_max":993,"o":"m 569 191 l 873 575 l 936 587 l 948 578 l 883 208 l 989 208 l 993 197 l 977 153 q 930 157 951 157 l 871 157 l 861 118 q 855 70 855 96 q 884 35 855 36 l 960 31 l 954 -3 l 924 -2 q 805 0 854 0 q 686 -2 757 0 l 655 -3 l 659 31 l 730 35 q 762 47 751 36 q 780 86 773 58 l 798 157 l 569 157 l 569 191 m 621 208 l 810 207 l 878 536 l 621 208 m 337 962 l 332 943 q 317 878 321 902 l 245 490 q 243 462 243 477 q 253 434 243 441 q 296 424 264 426 l 354 419 l 348 386 l 276 388 q 195 389 241 389 q 115 388 150 389 l 43 386 l 50 419 l 118 428 q 146 441 138 430 q 161 485 155 453 l 236 901 l 151 867 l 76 833 l 69 838 l 79 897 q 227 937 165 916 l 323 970 l 337 962 m 292 0 l 214 0 l 840 970 l 918 970 l 292 0 z "},"½":{"ha":1042,"x_min":43,"x_max":1001,"o":"m 258 0 l 180 0 l 806 970 l 884 970 l 258 0 m 337 962 l 332 943 q 317 878 321 902 l 245 490 q 243 462 243 477 q 253 434 243 441 q 296 424 264 426 l 354 419 l 348 386 l 276 388 q 195 389 241 389 q 115 388 150 389 l 43 386 l 50 419 l 118 428 q 146 441 138 430 q 161 485 155 453 l 236 901 l 151 867 l 76 833 l 69 838 l 79 897 q 227 937 165 916 l 323 970 l 337 962 m 729 546 q 847 582 783 582 q 966 540 924 582 q 1001 446 1001 504 q 920 277 1001 356 l 699 57 l 887 57 q 990 69 940 57 l 996 54 l 980 -3 l 944 -2 q 800 0 859 0 q 653 -2 738 0 l 616 -3 l 616 26 q 850 281 788 196 q 912 435 912 367 q 823 517 912 517 q 756 499 782 517 q 700 432 730 481 l 675 446 l 729 546 z "},"¾":{"ha":1042,"x_min":49,"x_max":994,"o":"m 49 415 l 74 536 l 104 532 q 100 496 100 514 q 207 415 100 415 q 293 452 257 415 q 346 578 346 506 q 316 654 346 627 q 231 682 286 682 q 163 668 205 682 l 157 686 l 172 728 q 194 727 187 727 q 214 726 209 726 q 296 751 261 726 q 345 846 345 787 q 319 894 345 875 q 257 913 294 913 q 168 867 204 913 l 151 843 l 130 857 l 182 945 q 288 970 243 970 q 387 940 349 970 q 425 863 425 910 q 395 783 425 817 q 292 715 364 749 q 400 669 368 699 q 432 585 432 640 q 376 454 432 510 q 181 379 299 379 q 49 415 107 379 m 292 0 l 214 0 l 840 970 l 918 970 l 292 0 m 570 191 l 874 575 l 937 587 l 949 578 l 884 208 l 989 208 l 994 197 l 978 153 q 930 157 951 157 l 871 157 l 861 118 q 856 72 856 96 q 885 35 856 36 l 960 31 l 954 -3 l 924 -2 q 806 0 855 0 q 686 -2 758 0 l 656 -3 l 660 31 l 731 35 q 763 47 752 36 q 781 86 774 58 l 799 157 l 570 157 l 570 191 m 621 208 l 811 207 l 879 536 l 621 208 z "},"Ð":{"ha":1080,"x_min":26,"x_max":1029,"o":"m 197 525 l 240 777 q 253 882 253 850 q 204 920 253 918 l 131 922 l 135 961 q 306 957 288 957 l 589 961 q 771 943 684 962 q 903 892 858 924 q 1029 599 1029 801 q 830 152 1029 336 q 648 32 739 68 q 439 -4 557 -4 l 244 -1 l 200 0 l 168 0 l 39 -4 l 46 32 q 56 35 51 33 q 119 77 115 46 l 189 480 l 26 480 l 35 525 l 197 525 m 372 903 l 309 525 l 568 525 l 559 480 l 300 480 l 239 129 q 233 78 234 99 q 457 57 370 57 q 755 172 641 57 q 853 322 819 237 q 902 576 902 443 q 822 821 902 741 q 534 909 732 909 q 438 906 498 909 q 372 903 400 903 z "},"×":{"ha":842,"x_min":115,"x_max":726,"o":"m 366 354 l 115 604 l 172 658 l 420 410 l 669 658 l 726 604 l 475 354 l 726 104 l 669 50 l 420 298 l 172 50 l 115 104 l 366 354 z "},"Ý":{"ha":926,"x_min":72,"x_max":937,"o":"m 72 899 l 94 913 q 176 975 101 919 l 182 979 q 254 962 228 975 q 307 913 279 948 q 480 431 390 809 q 658 745 543 590 q 795 895 734 846 q 937 968 856 944 l 929 869 q 867 851 889 861 q 814 820 844 842 q 708 712 768 787 q 592 544 648 637 q 503 342 513 412 l 466 109 q 464 79 464 97 q 475 50 464 59 q 513 39 486 41 l 582 35 l 577 -4 l 541 -3 q 406 0 450 0 q 287 -2 371 0 l 214 -4 l 219 35 l 286 39 q 339 61 327 41 q 366 174 351 81 l 395 349 q 396 357 396 353 q 368 480 396 382 q 309 662 340 578 q 258 784 280 742 q 210 850 236 826 q 138 882 176 882 q 76 865 117 882 l 72 899 m 473 1011 l 686 1221 q 731 1246 711 1246 q 769 1233 753 1246 q 785 1203 785 1221 q 745 1152 785 1176 l 521 1011 l 473 1011 z "},"Þ":{"ha":848,"x_min":12,"x_max":791,"o":"m 359 694 q 338 600 341 613 l 258 129 q 252 80 252 96 q 263 50 252 59 q 302 39 275 40 l 393 35 l 389 -4 l 315 -2 q 196 0 231 0 q 71 -3 158 0 l 12 -4 l 18 35 l 75 39 q 128 61 116 42 q 155 174 140 81 l 258 777 q 271 882 271 850 q 222 920 271 918 l 157 922 l 161 961 l 250 959 q 357 957 328 957 q 482 960 401 957 l 515 961 l 511 922 l 452 918 q 402 903 414 916 q 382 851 389 891 l 363 753 q 479 754 441 753 q 548 755 530 755 q 711 713 648 755 q 791 536 791 656 q 697 308 791 402 q 467 212 603 212 q 342 241 403 212 l 337 286 q 446 261 391 261 q 605 317 549 261 q 669 501 669 382 q 620 654 669 604 q 459 705 567 705 q 359 694 427 705 z "},"ð":{"ha":616,"x_min":24,"x_max":664,"o":"m 217 757 l 396 847 q 250 956 333 932 l 278 1018 q 460 875 396 955 l 647 966 l 664 926 l 484 839 q 566 488 566 660 q 478 163 566 311 q 207 -16 373 -16 q 24 206 24 -16 q 101 495 24 365 q 372 669 204 669 q 467 642 416 669 q 421 808 464 724 l 233 716 l 217 757 m 340 616 q 195 522 250 616 q 148 387 166 471 q 130 221 130 304 q 258 37 130 37 q 397 134 342 37 q 447 278 428 189 q 467 453 467 366 q 436 577 467 537 q 340 616 405 616 z "},"ý":{"ha":694,"x_min":-11,"x_max":681,"o":"m -9 -250 l 57 -203 l 71 -208 q 68 -239 68 -227 q 93 -300 68 -276 q 155 -325 118 -325 q 283 -243 227 -325 q 392 22 338 -162 l 460 259 q 304 63 382 141 q 189 -16 227 -16 q 145 12 161 -16 q 128 83 128 39 q 130 139 128 119 l 153 476 q 154 497 154 488 q 124 569 154 569 q 89 552 116 569 l 20 511 l 5 536 l 119 614 q 189 659 170 649 q 222 669 208 669 q 256 582 256 669 q 250 447 256 515 l 229 178 q 229 160 229 165 q 256 93 229 93 q 323 132 279 93 q 403 225 367 172 q 469 343 437 276 q 514 460 501 411 l 563 643 q 665 669 608 648 l 681 656 l 485 46 q 345 -232 432 -121 q 104 -383 227 -383 q 23 -351 56 -383 q -11 -275 -11 -319 q -9 -250 -11 -265 m 286 720 l 498 929 q 543 954 524 954 q 581 941 565 954 q 597 911 597 928 q 558 860 597 884 l 333 720 l 286 720 z "},"þ":{"ha":694,"x_min":-54,"x_max":602,"o":"m 57 -359 l -45 -383 l -54 -375 l -43 -323 q 25 11 -6 -158 l 180 864 q 183 897 183 878 q 136 930 183 930 l 69 930 l 75 960 q 195 978 149 966 q 297 1018 240 990 l 313 1003 l 184 400 q 244 494 218 460 q 310 563 271 528 q 519 669 427 669 q 576 633 555 669 q 602 515 602 590 q 525 222 602 376 q 449 117 495 162 q 328 31 402 71 q 201 -16 244 -16 q 127 0 179 -16 l 115 4 l 57 -359 m 129 82 q 243 50 181 50 q 372 111 330 50 q 489 389 454 229 q 501 495 501 448 q 449 589 501 589 q 338 543 398 589 q 220 404 271 490 q 154 229 169 317 l 129 82 z "},"Ā":{"ha":1003,"x_min":-26,"x_max":940,"o":"m 642 979 l 705 979 l 826 111 q 845 55 833 66 q 904 39 857 44 l 940 35 l 940 -4 q 771 0 812 0 q 602 -4 730 0 l 602 35 l 663 39 q 722 77 722 43 q 719 107 722 86 q 717 123 718 115 l 682 385 l 340 385 l 199 142 q 163 65 163 80 q 176 48 163 56 q 205 39 189 40 l 278 35 l 278 -4 q 130 0 165 0 q -26 -4 92 0 l -26 37 l 1 45 q 63 77 37 54 q 123 155 89 101 l 642 979 m 623 834 l 375 435 l 675 435 l 623 834 m 890 1109 l 874 1039 l 456 1039 l 471 1109 l 890 1109 z "},"ā":{"ha":616,"x_min":5,"x_max":613,"o":"m 558 655 l 431 129 q 429 115 429 121 q 450 82 429 82 q 536 132 477 82 q 554 147 544 139 l 564 118 q 361 -13 406 -13 q 328 35 328 -13 q 336 107 328 69 l 376 284 q 189 62 271 135 q 53 -16 102 -16 q 19 16 33 -16 q 5 92 5 47 q 35 287 5 174 q 110 492 64 399 q 174 577 136 543 q 277 644 212 612 q 380 669 328 669 q 498 643 428 669 l 545 668 l 558 655 m 443 574 q 324 602 367 602 q 246 580 275 602 q 193 500 218 558 q 131 311 156 416 q 105 138 105 205 q 130 82 105 82 q 221 137 163 82 q 338 279 279 192 q 397 398 374 333 q 443 574 420 463 m 613 818 l 598 747 l 180 747 l 195 818 l 613 818 z "},"Ă":{"ha":1003,"x_min":-26,"x_max":940,"o":"m 642 979 l 705 979 l 826 111 q 845 55 833 66 q 904 39 857 44 l 940 35 l 940 -4 q 771 0 812 0 q 602 -4 730 0 l 602 35 l 663 39 q 722 77 722 43 q 719 107 722 86 q 717 123 718 115 l 682 385 l 340 385 l 199 142 q 163 65 163 80 q 176 48 163 56 q 205 39 189 40 l 278 35 l 278 -4 q 130 0 165 0 q -26 -4 92 0 l -26 37 l 1 45 q 63 77 37 54 q 123 155 89 101 l 642 979 m 623 834 l 375 435 l 675 435 l 623 834 m 495 1232 l 535 1232 q 686 1093 548 1093 q 791 1124 749 1093 q 873 1232 833 1155 l 913 1232 q 885 1149 899 1178 q 850 1093 872 1120 q 677 1011 785 1011 q 522 1092 567 1011 q 495 1232 495 1140 z "},"ă":{"ha":616,"x_min":5,"x_max":623,"o":"m 558 655 l 431 129 q 429 115 429 121 q 450 82 429 82 q 536 132 477 82 q 554 147 544 139 l 564 118 q 361 -13 406 -13 q 328 35 328 -13 q 336 107 328 69 l 376 284 q 189 62 271 135 q 53 -16 102 -16 q 19 16 33 -16 q 5 92 5 47 q 35 287 5 174 q 110 492 64 399 q 174 577 136 543 q 277 644 212 612 q 380 669 328 669 q 498 643 428 669 l 545 668 l 558 655 m 443 574 q 324 602 367 602 q 246 580 275 602 q 193 500 218 558 q 131 311 156 416 q 105 138 105 205 q 130 82 105 82 q 221 137 163 82 q 338 279 279 192 q 397 398 374 333 q 443 574 420 463 m 205 940 l 245 940 q 397 802 258 802 q 502 833 460 802 q 583 940 543 864 l 623 940 q 595 857 608 886 q 560 801 582 828 q 387 720 495 720 q 232 800 277 720 q 205 940 205 848 z "},"Ą":{"ha":1003,"x_min":-26,"x_max":1010,"o":"m 940 35 l 940 -4 q 916 -22 930 -5 q 869 -118 869 -76 q 884 -164 869 -146 q 922 -182 899 -182 q 991 -135 954 -182 l 1010 -140 q 865 -260 946 -260 q 811 -235 831 -260 q 791 -169 791 -211 q 809 -98 791 -132 q 875 -14 827 -65 l 885 -3 q 771 0 809 0 q 602 -4 730 0 l 602 35 l 663 39 q 722 77 722 43 q 719 107 722 86 q 717 123 718 115 l 682 385 l 340 385 l 199 142 q 163 65 163 80 q 176 48 163 56 q 205 39 189 40 l 278 35 l 278 -4 q 130 0 165 0 q -26 -4 92 0 l -26 37 l 1 45 q 63 77 37 54 q 123 155 89 101 l 642 979 l 705 979 l 826 111 q 845 55 833 66 q 904 39 857 44 l 940 35 m 623 834 l 375 435 l 675 435 l 623 834 z "},"ą":{"ha":616,"x_min":5,"x_max":564,"o":"m 558 655 l 431 129 q 429 115 429 121 q 450 82 429 82 q 536 132 477 82 q 554 147 544 139 l 564 118 q 497 62 521 85 q 429 -12 473 39 q 374 -118 374 -76 q 389 -164 374 -146 q 427 -182 404 -182 q 496 -135 458 -182 l 516 -140 q 370 -260 451 -260 q 316 -235 336 -260 q 296 -169 296 -211 q 314 -98 296 -132 q 380 -14 332 -65 l 386 -7 q 362 -13 371 -13 q 328 35 328 -13 q 336 107 328 69 l 376 284 q 189 62 271 135 q 53 -16 102 -16 q 19 16 33 -16 q 5 92 5 47 q 35 287 5 174 q 110 492 64 399 q 174 577 136 543 q 277 644 212 612 q 380 669 328 669 q 498 643 428 669 l 545 668 l 558 655 m 443 574 q 324 602 367 602 q 246 580 275 602 q 193 500 218 558 q 131 311 156 416 q 105 138 105 205 q 130 82 105 82 q 221 137 163 82 q 338 279 279 192 q 397 398 374 333 q 443 574 420 463 z "},"Ć":{"ha":926,"x_min":62,"x_max":904,"o":"m 829 721 l 829 838 q 713 890 771 874 q 581 907 656 907 q 317 807 414 907 q 231 675 260 749 q 184 429 184 559 q 282 135 184 234 q 522 49 367 49 q 669 71 603 49 q 833 153 735 93 l 847 143 l 833 93 q 663 4 739 29 q 476 -25 574 -25 q 170 83 279 -25 q 62 394 62 190 q 308 880 62 716 q 633 981 458 981 q 904 924 754 981 q 866 721 876 833 l 829 721 m 541 1011 l 753 1221 q 798 1246 778 1246 q 835 1233 819 1246 q 851 1203 851 1221 q 812 1152 851 1175 l 587 1011 l 541 1011 z "},"ć":{"ha":565,"x_min":35,"x_max":587,"o":"m 475 458 l 475 541 q 442 584 475 566 q 362 602 409 602 q 256 568 300 602 q 170 420 201 526 q 140 220 140 323 q 258 55 140 55 q 339 75 295 55 q 459 146 382 95 l 480 159 l 492 132 l 422 75 q 205 -16 311 -16 q 35 189 35 -16 q 70 398 35 298 q 163 549 106 497 q 291 635 222 602 q 406 669 359 669 q 540 636 487 669 q 507 458 522 585 l 475 458 m 276 720 l 488 929 q 534 954 514 954 q 571 941 555 954 q 587 911 587 928 q 549 860 587 884 l 323 720 l 276 720 z "},"Ĉ":{"ha":926,"x_min":62,"x_max":904,"o":"m 829 721 l 829 838 q 713 890 771 874 q 581 907 656 907 q 317 807 414 907 q 231 675 260 749 q 184 429 184 559 q 282 135 184 234 q 522 49 367 49 q 669 71 603 49 q 833 153 735 93 l 847 143 l 833 93 q 663 4 739 29 q 476 -25 574 -25 q 170 83 279 -25 q 62 394 62 190 q 308 880 62 716 q 633 981 458 981 q 904 924 754 981 q 866 721 876 833 l 829 721 m 679 1235 l 802 1000 l 751 1000 l 637 1145 l 447 1000 l 393 1000 l 611 1235 l 679 1235 z "},"ĉ":{"ha":566,"x_min":35,"x_max":540,"o":"m 475 458 l 475 541 q 442 584 475 566 q 362 602 409 602 q 256 568 300 602 q 170 420 201 526 q 140 220 140 323 q 258 55 140 55 q 339 75 295 55 q 459 146 382 95 l 480 159 l 492 132 l 422 75 q 205 -16 311 -16 q 35 189 35 -16 q 70 398 35 298 q 163 549 106 497 q 291 635 222 602 q 406 669 359 669 q 540 636 487 669 q 507 458 522 585 l 475 458 m 415 943 l 537 708 l 488 708 l 374 852 l 183 708 l 129 708 l 347 943 l 415 943 z "},"Ċ":{"ha":926,"x_min":62,"x_max":904,"o":"m 829 721 l 829 838 q 713 890 771 874 q 581 907 656 907 q 317 807 414 907 q 231 675 260 749 q 184 429 184 559 q 282 135 184 234 q 522 49 367 49 q 669 71 603 49 q 833 153 735 93 l 847 143 l 833 93 q 663 4 739 29 q 476 -25 574 -25 q 170 83 279 -25 q 62 394 62 190 q 308 880 62 716 q 633 981 458 981 q 904 924 754 981 q 866 721 876 833 l 829 721 m 633 1187 q 686 1165 663 1187 q 708 1114 708 1143 q 686 1060 708 1083 q 633 1038 663 1038 q 581 1060 603 1038 q 558 1114 558 1083 q 581 1165 558 1143 q 633 1187 603 1187 z "},"ċ":{"ha":566,"x_min":35,"x_max":540,"o":"m 475 458 l 475 541 q 442 584 475 566 q 362 602 409 602 q 256 568 300 602 q 170 420 201 526 q 140 220 140 323 q 258 55 140 55 q 339 75 295 55 q 459 146 382 95 l 480 159 l 492 132 l 422 75 q 205 -16 311 -16 q 35 189 35 -16 q 70 398 35 298 q 163 549 106 497 q 291 635 222 602 q 406 669 359 669 q 540 636 487 669 q 507 458 522 585 l 475 458 m 412 896 q 463 873 441 896 q 486 822 486 851 q 463 769 486 791 q 410 746 441 746 q 358 769 380 746 q 336 822 336 791 q 358 874 336 852 q 412 896 380 896 z "},"Č":{"ha":926,"x_min":62,"x_max":904,"o":"m 829 721 l 829 838 q 713 890 771 874 q 581 907 656 907 q 317 807 414 907 q 231 675 260 749 q 184 429 184 559 q 282 135 184 234 q 522 49 367 49 q 669 71 603 49 q 833 153 735 93 l 847 143 l 833 93 q 663 4 739 29 q 476 -25 574 -25 q 170 83 279 -25 q 62 394 62 190 q 308 880 62 716 q 633 981 458 981 q 904 924 754 981 q 866 721 876 833 l 829 721 m 659 1051 l 595 1051 l 462 1286 l 513 1286 l 638 1140 l 836 1286 l 886 1286 l 659 1051 z "},"č":{"ha":565,"x_min":35,"x_max":647,"o":"m 475 458 l 475 541 q 442 584 475 566 q 362 602 409 602 q 256 568 300 602 q 170 420 201 526 q 140 220 140 323 q 258 55 140 55 q 339 75 295 55 q 459 146 382 95 l 480 159 l 492 132 l 422 75 q 205 -16 311 -16 q 35 189 35 -16 q 70 398 35 298 q 163 549 106 497 q 291 635 222 602 q 406 669 359 669 q 540 636 487 669 q 507 458 522 585 l 475 458 m 420 708 l 357 708 l 224 943 l 275 943 l 400 797 l 597 943 l 647 943 l 420 708 z "},"Ď":{"ha":1080,"x_min":39,"x_max":1029,"o":"m 45 32 q 56 35 50 33 q 119 77 114 46 l 240 777 q 252 882 252 847 q 204 920 252 918 l 130 922 l 134 961 q 305 957 288 957 l 589 961 q 770 943 683 962 q 902 892 857 924 q 1029 599 1029 801 q 829 153 1029 335 q 648 32 739 68 q 439 -4 557 -4 l 243 -1 l 200 0 l 168 0 l 39 -4 l 45 32 m 372 903 l 239 129 q 233 78 233 99 q 456 57 368 57 q 753 172 640 57 q 852 323 817 237 q 901 576 901 444 q 821 821 901 741 q 533 909 731 909 q 437 906 498 909 q 372 903 399 903 m 546 1022 l 482 1022 l 349 1257 l 400 1257 l 525 1111 l 722 1257 l 772 1257 l 546 1022 z "},"ď":{"ha":840,"x_min":26,"x_max":888,"o":"m 673 1003 l 498 178 q 488 113 488 128 q 507 82 488 82 q 561 106 528 82 l 623 149 l 636 122 l 524 39 q 420 -13 454 -13 q 383 33 383 -13 q 406 175 383 85 l 437 300 q 324 144 368 196 q 224 46 280 92 q 88 -16 149 -16 q 26 119 26 -16 q 46 297 26 208 q 97 448 65 387 q 231 605 146 540 q 388 669 315 669 q 501 650 440 669 l 541 864 q 543 897 543 880 q 496 930 543 930 l 429 930 l 435 960 q 555 978 509 966 q 657 1018 601 990 l 673 1003 m 488 569 q 340 602 425 602 q 258 581 285 602 q 174 425 212 545 q 126 136 126 278 q 161 82 126 82 q 218 104 180 82 q 292 161 255 127 q 405 309 357 222 q 471 487 452 396 l 488 569 m 875 1018 l 888 993 q 692 696 791 810 l 647 677 l 637 690 q 751 983 731 833 q 875 1018 804 992 z "},"Đ":{"ha":1080,"x_min":26,"x_max":1029,"o":"m 197 525 l 240 777 q 253 882 253 850 q 204 920 253 918 l 131 922 l 135 961 q 306 957 288 957 l 589 961 q 771 943 684 962 q 903 892 858 924 q 1029 599 1029 801 q 830 152 1029 336 q 648 32 739 68 q 439 -4 557 -4 l 244 -1 l 200 0 l 168 0 l 39 -4 l 46 32 q 56 35 51 33 q 119 77 115 46 l 189 480 l 26 480 l 35 525 l 197 525 m 372 903 l 309 525 l 568 525 l 559 480 l 300 480 l 239 129 q 233 78 234 99 q 457 57 370 57 q 755 172 641 57 q 853 322 819 237 q 902 576 902 443 q 822 821 902 741 q 534 909 732 909 q 438 906 498 909 q 372 903 400 903 z "},"đ":{"ha":694,"x_min":24,"x_max":750,"o":"m 631 818 l 750 818 l 736 762 l 620 762 l 496 178 q 485 113 485 128 q 505 82 485 82 q 558 106 525 82 l 620 149 l 633 122 l 521 39 q 417 -13 451 -13 q 380 33 380 -13 q 403 175 380 85 l 434 300 q 321 144 365 196 q 221 46 277 92 q 85 -16 146 -16 q 24 119 24 -16 q 43 297 24 208 q 94 448 62 387 q 228 605 143 540 q 385 669 313 669 q 498 650 437 669 l 519 762 l 319 762 l 332 818 l 529 818 l 538 864 q 541 897 541 880 q 493 930 541 930 l 427 930 l 432 960 q 552 978 506 966 q 654 1018 598 990 l 671 1003 l 631 818 m 485 569 q 338 602 422 602 q 256 581 282 602 q 171 425 210 545 q 123 136 123 278 q 158 82 123 82 q 215 104 178 82 q 289 161 252 127 q 402 309 354 222 q 468 487 450 396 l 485 569 z "},"Ē":{"ha":848,"x_min":41,"x_max":791,"o":"m 307 464 l 247 113 q 244 70 244 96 l 244 64 q 427 54 352 54 q 632 67 576 54 q 667 87 654 72 q 688 140 679 103 l 711 224 l 748 224 l 741 187 q 719 50 724 94 l 713 0 l 667 -1 q 553 -4 587 -5 l 255 0 q 98 -3 206 1 l 41 -4 l 48 32 q 112 49 96 40 q 132 77 128 58 l 252 777 q 265 882 265 850 q 216 920 265 918 l 141 922 l 146 961 l 208 960 q 366 957 300 957 q 477 958 431 957 l 642 960 q 695 961 682 961 q 791 957 745 961 q 762 746 770 875 l 729 746 l 718 869 q 570 903 715 903 q 454 900 524 903 l 389 897 q 376 852 381 882 l 318 522 l 369 522 q 673 530 517 522 l 679 521 l 652 458 l 616 460 q 469 464 523 464 l 307 464 m 738 1109 l 723 1039 l 304 1039 l 320 1109 l 738 1109 z "},"ē":{"ha":541,"x_min":21,"x_max":575,"o":"m 467 127 q 305 17 370 49 q 181 -16 241 -16 q 66 27 109 -16 q 21 156 21 72 q 47 330 21 227 q 104 484 73 432 q 240 610 145 551 q 402 669 334 669 q 488 640 456 669 q 519 561 519 610 q 347 359 519 435 q 252 325 290 334 l 138 297 q 127 186 127 238 q 161 78 127 112 q 233 50 190 50 q 422 130 308 50 l 456 154 l 467 127 m 144 329 q 296 378 238 349 q 383 448 350 404 q 416 540 416 493 q 398 592 416 572 q 350 611 380 611 q 296 600 325 611 q 248 572 267 589 q 157 380 191 520 l 144 329 m 575 818 l 560 747 l 142 747 l 157 818 l 575 818 z "},"Ĕ":{"ha":848,"x_min":41,"x_max":791,"o":"m 307 464 l 247 113 q 244 70 244 96 l 244 64 q 427 54 352 54 q 632 67 576 54 q 667 87 654 72 q 688 140 679 103 l 711 224 l 748 224 l 741 187 q 719 50 724 94 l 713 0 l 667 -1 q 553 -4 587 -5 l 255 0 q 98 -3 206 1 l 41 -4 l 48 32 q 112 49 96 40 q 132 77 128 58 l 252 777 q 265 882 265 850 q 216 920 265 918 l 141 922 l 146 961 l 208 960 q 366 957 300 957 q 477 958 431 957 l 642 960 q 695 961 682 961 q 791 957 745 961 q 762 746 770 875 l 729 746 l 718 869 q 570 903 715 903 q 454 900 524 903 l 389 897 q 376 852 381 882 l 318 522 l 369 522 q 673 530 517 522 l 679 521 l 652 458 l 616 460 q 469 464 523 464 l 307 464 m 339 1232 l 379 1232 q 530 1093 392 1093 q 635 1124 593 1093 q 717 1232 677 1156 l 757 1232 q 729 1149 743 1178 q 694 1093 716 1120 q 522 1011 629 1011 q 366 1092 411 1011 q 339 1232 339 1140 z "},"ĕ":{"ha":541,"x_min":21,"x_max":585,"o":"m 467 127 q 305 17 370 49 q 181 -16 241 -16 q 66 27 109 -16 q 21 156 21 72 q 47 330 21 227 q 104 484 73 432 q 240 610 145 551 q 402 669 334 669 q 488 640 456 669 q 519 561 519 610 q 347 359 519 435 q 252 325 290 334 l 138 297 q 127 186 127 238 q 161 78 127 112 q 233 50 190 50 q 422 130 308 50 l 456 154 l 467 127 m 144 329 q 296 378 238 349 q 383 448 350 404 q 416 540 416 493 q 398 592 416 572 q 350 611 380 611 q 296 600 325 611 q 248 572 267 589 q 157 380 191 520 l 144 329 m 167 940 l 207 940 q 359 802 220 802 q 464 833 422 802 q 545 940 505 864 l 585 940 q 557 857 570 886 q 522 801 544 828 q 349 720 457 720 q 194 800 239 720 q 167 940 168 848 z "},"Ė":{"ha":848,"x_min":41,"x_max":791,"o":"m 307 464 l 247 113 q 244 70 244 96 l 244 64 q 427 54 352 54 q 632 67 576 54 q 667 87 654 72 q 688 140 679 103 l 711 224 l 748 224 l 741 187 q 719 50 724 94 l 713 0 l 667 -1 q 553 -4 587 -5 l 255 0 q 98 -3 206 1 l 41 -4 l 48 32 q 112 49 96 40 q 132 77 128 58 l 252 777 q 265 882 265 850 q 216 920 265 918 l 141 922 l 146 961 l 208 960 q 366 957 300 957 q 477 958 431 957 l 642 960 q 695 961 682 961 q 791 957 745 961 q 762 746 770 875 l 729 746 l 718 869 q 570 903 715 903 q 454 900 524 903 l 389 897 q 376 852 381 882 l 318 522 l 369 522 q 673 530 517 522 l 679 521 l 652 458 l 616 460 q 469 464 523 464 l 307 464 m 539 1187 q 591 1165 569 1187 q 614 1114 614 1143 q 591 1060 614 1083 q 538 1038 569 1038 q 486 1060 509 1038 q 464 1114 464 1083 q 486 1165 464 1143 q 539 1187 509 1187 z "},"ė":{"ha":541,"x_min":21,"x_max":519,"o":"m 467 127 q 305 17 370 49 q 181 -16 241 -16 q 66 27 109 -16 q 21 156 21 72 q 47 330 21 227 q 104 484 73 432 q 240 610 145 551 q 402 669 334 669 q 488 640 456 669 q 519 561 519 610 q 347 359 519 435 q 252 325 290 334 l 138 297 q 127 186 127 238 q 161 78 127 112 q 233 50 190 50 q 422 130 308 50 l 456 154 l 467 127 m 144 329 q 296 378 238 349 q 383 448 350 404 q 416 540 416 493 q 398 592 416 572 q 350 611 380 611 q 296 600 325 611 q 248 572 267 589 q 157 380 191 520 l 144 329 m 358 896 q 410 873 387 896 q 432 822 432 851 q 410 769 432 791 q 357 746 387 746 q 304 769 327 746 q 282 822 282 791 q 304 874 282 852 q 358 896 327 896 z "},"Ę":{"ha":848,"x_min":41,"x_max":791,"o":"m 307 464 l 247 113 q 244 70 244 96 l 244 64 q 427 54 352 54 q 632 67 576 54 q 667 87 654 72 q 688 140 679 103 l 711 224 l 748 224 l 741 187 q 719 50 724 94 l 713 0 q 683 -9 694 -1 q 655 -41 671 -18 q 625 -118 625 -84 q 640 -164 625 -146 q 677 -182 654 -182 q 747 -135 708 -182 l 766 -140 q 621 -260 701 -260 q 567 -235 587 -260 q 547 -169 547 -211 q 564 -99 547 -132 q 630 -14 582 -66 l 640 -3 q 553 -4 584 -5 l 255 0 q 98 -3 206 1 l 41 -4 l 48 32 q 112 49 96 40 q 132 77 128 58 l 252 777 q 265 882 265 850 q 216 920 265 918 l 141 922 l 146 961 l 208 960 q 366 957 300 957 q 477 958 431 957 l 642 960 q 695 961 682 961 q 791 957 745 961 q 762 746 770 875 l 729 746 l 718 869 q 570 903 715 903 q 454 900 524 903 l 389 897 q 376 852 381 882 l 318 522 l 369 522 q 673 530 517 522 l 679 521 l 652 458 l 616 460 q 469 464 523 464 l 307 464 z "},"ę":{"ha":541,"x_min":21,"x_max":519,"o":"m 456 154 l 467 127 q 286 -28 327 18 q 244 -117 244 -73 q 259 -164 244 -146 q 297 -182 274 -182 q 366 -135 328 -182 l 385 -140 q 240 -260 320 -260 q 186 -235 206 -260 q 166 -169 166 -211 q 184 -98 166 -132 q 250 -14 202 -65 l 260 -2 q 183 -16 218 -16 q 66 27 109 -16 q 21 156 21 72 q 47 330 21 227 q 104 484 73 432 q 240 610 145 551 q 402 669 334 669 q 488 640 456 669 q 519 561 519 610 q 347 359 519 435 q 252 325 290 334 l 138 297 q 127 186 127 238 q 161 78 127 112 q 233 50 190 50 q 422 130 308 50 l 456 154 m 144 329 q 296 378 238 349 q 383 448 350 404 q 416 540 416 493 q 398 592 416 572 q 350 611 380 611 q 296 600 325 611 q 248 572 267 589 q 157 380 191 520 l 144 329 z "},"Ě":{"ha":848,"x_min":41,"x_max":791,"o":"m 307 464 l 247 113 q 244 70 244 96 l 244 64 q 427 54 352 54 q 632 67 576 54 q 667 87 654 72 q 688 140 679 103 l 711 224 l 748 224 l 741 187 q 719 50 724 94 l 713 0 l 667 -1 q 553 -4 587 -5 l 255 0 q 98 -3 206 1 l 41 -4 l 48 32 q 112 49 96 40 q 132 77 128 58 l 252 777 q 265 882 265 850 q 216 920 265 918 l 141 922 l 146 961 l 208 960 q 366 957 300 957 q 477 958 431 957 l 642 960 q 695 961 682 961 q 791 957 745 961 q 762 746 770 875 l 729 746 l 718 869 q 570 903 715 903 q 454 900 524 903 l 389 897 q 376 852 381 882 l 318 522 l 369 522 q 673 530 517 522 l 679 521 l 652 458 l 616 460 q 469 464 523 464 l 307 464 m 562 1000 l 498 1000 l 365 1235 l 416 1235 l 541 1089 l 739 1235 l 789 1235 l 562 1000 z "},"ě":{"ha":541,"x_min":21,"x_max":607,"o":"m 467 127 q 305 17 370 49 q 181 -16 241 -16 q 66 27 109 -16 q 21 156 21 72 q 47 330 21 227 q 104 484 73 432 q 240 610 145 551 q 402 669 334 669 q 488 640 456 669 q 519 561 519 610 q 347 359 519 435 q 252 325 290 334 l 138 297 q 127 186 127 238 q 161 78 127 112 q 233 50 190 50 q 422 130 308 50 l 456 154 l 467 127 m 144 329 q 296 378 238 349 q 383 448 350 404 q 416 540 416 493 q 398 592 416 572 q 350 611 380 611 q 296 600 325 611 q 248 572 267 589 q 157 380 191 520 l 144 329 m 380 708 l 317 708 l 184 943 l 235 943 l 360 797 l 557 943 l 607 943 l 380 708 z "},"Ĝ":{"ha":1003,"x_min":69,"x_max":964,"o":"m 733 83 l 758 212 q 768 294 768 264 q 748 327 768 319 q 651 339 728 334 l 604 342 l 610 380 q 790 374 688 374 q 964 380 891 374 l 960 342 l 916 334 q 879 304 883 326 l 846 117 q 846 101 846 111 q 850 61 846 87 l 844 52 q 766 31 815 47 l 725 17 q 493 -25 601 -25 q 172 86 285 -25 q 69 380 69 188 q 317 878 69 700 q 648 981 461 981 q 937 924 779 981 q 899 721 909 831 l 862 721 l 862 838 q 771 883 812 869 q 602 907 694 907 q 329 805 430 907 q 239 667 269 745 q 191 413 191 547 q 284 128 191 222 q 541 37 374 37 q 733 83 646 37 m 717 1235 l 840 1000 l 789 1000 l 675 1145 l 485 1000 l 431 1000 l 649 1235 l 717 1235 z "},"ĝ":{"ha":694,"x_min":-52,"x_max":692,"o":"m 333 203 q 324 191 330 198 q 296 138 296 156 q 361 49 296 102 l 444 -20 q 533 -168 533 -92 q 498 -262 533 -217 q 404 -336 463 -308 q 197 -383 305 -383 q 16 -339 83 -383 q -52 -220 -52 -295 q 22 -73 -52 -134 q 101 -19 60 -39 q 222 26 142 1 q 193 73 193 50 q 231 138 193 102 l 288 191 q 245 189 265 189 q 121 234 165 189 q 76 360 76 279 q 194 597 76 509 q 381 669 291 669 q 475 651 429 669 q 515 628 501 641 q 546 589 530 616 q 688 601 640 589 l 692 593 l 679 530 q 611 525 639 525 q 562 528 593 525 l 564 520 q 568 477 568 493 q 450 258 568 347 q 333 203 396 218 m 244 1 q 107 -63 153 -25 q 37 -201 37 -120 q 73 -290 37 -256 q 231 -345 131 -345 q 380 -306 319 -345 q 441 -214 441 -268 q 420 -148 441 -179 q 351 -81 399 -117 l 244 1 m 348 622 q 237 576 283 622 q 174 399 174 515 q 303 233 174 233 q 429 311 384 233 q 468 473 468 378 q 348 622 468 622 m 479 943 l 602 708 l 552 708 l 438 852 l 248 708 l 194 708 l 412 943 l 479 943 z "},"Ğ":{"ha":1003,"x_min":70,"x_max":964,"o":"m 734 83 l 758 212 q 768 294 768 264 q 749 327 768 319 q 652 339 729 334 l 604 342 l 611 380 q 791 374 688 374 q 964 380 892 374 l 961 342 l 917 334 q 880 304 884 326 l 847 117 q 846 101 846 111 q 850 61 846 87 l 844 52 q 767 31 816 47 l 726 17 q 494 -25 602 -25 q 173 86 286 -25 q 70 380 70 188 q 318 878 70 700 q 648 981 462 981 q 938 924 779 981 q 900 721 910 831 l 863 721 l 863 838 q 772 883 812 869 q 602 907 695 907 q 330 805 431 907 q 239 667 270 745 q 192 413 192 547 q 285 128 192 222 q 541 37 374 37 q 734 83 647 37 m 481 1232 l 522 1232 q 673 1093 534 1093 q 778 1124 736 1093 q 859 1232 820 1156 l 900 1232 q 872 1149 885 1178 q 837 1093 859 1120 q 664 1011 772 1011 q 509 1092 553 1011 q 481 1232 482 1140 z "},"ğ":{"ha":694,"x_min":-52,"x_max":692,"o":"m 333 203 q 324 191 330 198 q 296 138 296 156 q 361 49 296 102 l 444 -20 q 533 -168 533 -92 q 498 -262 533 -217 q 404 -336 463 -308 q 197 -383 305 -383 q 16 -339 83 -383 q -52 -220 -52 -295 q 22 -73 -52 -134 q 101 -19 60 -39 q 222 26 142 1 q 193 73 193 50 q 231 138 193 102 l 288 191 q 245 189 265 189 q 121 234 165 189 q 76 360 76 279 q 194 597 76 509 q 381 669 291 669 q 475 651 429 669 q 515 628 501 641 q 546 589 530 616 q 688 601 640 589 l 692 593 l 679 530 q 611 525 639 525 q 562 528 593 525 l 564 520 q 568 477 568 493 q 450 258 568 347 q 333 203 396 218 m 244 1 q 107 -63 153 -25 q 37 -201 37 -120 q 73 -290 37 -256 q 231 -345 131 -345 q 380 -306 319 -345 q 441 -214 441 -268 q 420 -148 441 -179 q 351 -81 399 -117 l 244 1 m 348 622 q 237 576 283 622 q 174 399 174 515 q 303 233 174 233 q 429 311 384 233 q 468 473 468 378 q 348 622 468 622 m 199 940 l 240 940 q 391 802 252 802 q 496 833 454 802 q 577 940 538 864 l 618 940 q 590 857 603 886 q 555 801 577 828 q 382 720 490 720 q 227 800 272 720 q 199 940 200 848 z "},"Ġ":{"ha":1003,"x_min":69,"x_max":964,"o":"m 733 83 l 758 212 q 768 294 768 264 q 748 327 768 319 q 651 339 728 334 l 604 342 l 610 380 q 790 374 688 374 q 964 380 891 374 l 960 342 l 916 334 q 879 304 883 326 l 846 117 q 846 101 846 111 q 850 61 846 87 l 844 52 q 766 31 815 47 l 725 17 q 493 -25 601 -25 q 172 86 285 -25 q 69 380 69 188 q 317 878 69 700 q 648 981 461 981 q 937 924 779 981 q 899 721 909 831 l 862 721 l 862 838 q 771 883 812 869 q 602 907 694 907 q 329 805 430 907 q 239 667 269 745 q 191 413 191 547 q 284 128 191 222 q 541 37 374 37 q 733 83 646 37 m 671 1187 q 724 1165 701 1187 q 746 1114 746 1143 q 724 1060 746 1083 q 671 1038 701 1038 q 618 1060 641 1038 q 596 1114 596 1083 q 618 1165 596 1143 q 671 1187 641 1187 z "},"ġ":{"ha":694,"x_min":-52,"x_max":692,"o":"m 333 203 q 324 191 330 198 q 296 138 296 156 q 361 49 296 102 l 444 -20 q 533 -168 533 -92 q 498 -262 533 -217 q 404 -336 463 -308 q 197 -383 305 -383 q 16 -339 83 -383 q -52 -220 -52 -295 q 22 -73 -52 -134 q 101 -19 60 -39 q 222 26 142 1 q 193 73 193 50 q 231 138 193 102 l 288 191 q 245 189 265 189 q 121 234 165 189 q 76 360 76 279 q 194 597 76 509 q 381 669 291 669 q 475 651 429 669 q 515 628 501 641 q 546 589 530 616 q 688 601 640 589 l 692 593 l 679 530 q 611 525 639 525 q 562 528 593 525 l 564 520 q 568 477 568 493 q 450 258 568 347 q 333 203 396 218 m 244 1 q 107 -63 153 -25 q 37 -201 37 -120 q 73 -290 37 -256 q 231 -345 131 -345 q 380 -306 319 -345 q 441 -214 441 -268 q 420 -148 441 -179 q 351 -81 399 -117 l 244 1 m 348 622 q 237 576 283 622 q 174 399 174 515 q 303 233 174 233 q 429 311 384 233 q 468 473 468 378 q 348 622 468 622 m 371 896 q 422 873 400 896 q 445 822 445 851 q 422 769 445 791 q 370 746 400 746 q 317 769 340 746 q 295 822 295 791 q 317 874 295 852 q 371 896 340 896 z "},"Ģ":{"ha":1003,"x_min":70,"x_max":964,"o":"m 734 83 l 758 212 q 768 294 768 264 q 749 327 768 319 q 652 339 729 334 l 604 342 l 611 380 q 791 374 688 374 q 964 380 892 374 l 961 342 l 917 334 q 880 304 884 326 l 847 117 q 846 101 846 111 q 850 61 846 87 l 844 52 q 767 31 816 47 l 726 17 q 494 -25 602 -25 q 173 86 286 -25 q 70 380 70 188 q 318 878 70 700 q 648 981 462 981 q 938 924 779 981 q 900 721 910 831 l 863 721 l 863 838 q 772 883 812 869 q 602 907 695 907 q 330 805 431 907 q 239 667 270 745 q 192 413 192 547 q 285 128 192 222 q 541 37 374 37 q 734 83 647 37 m 536 -83 l 549 -109 q 353 -406 452 -292 l 308 -424 l 298 -411 q 412 -118 392 -267 q 536 -83 468 -108 z "},"ģ":{"ha":694,"x_min":-52,"x_max":692,"o":"m 333 203 q 324 191 330 198 q 296 138 296 156 q 361 49 296 102 l 444 -20 q 533 -168 533 -92 q 498 -262 533 -217 q 404 -336 463 -308 q 197 -383 305 -383 q 16 -339 83 -383 q -52 -220 -52 -295 q 22 -73 -52 -134 q 101 -19 60 -39 q 222 26 142 1 q 193 73 193 50 q 231 138 193 102 l 288 191 q 245 189 265 189 q 121 234 165 189 q 76 360 76 279 q 194 597 76 509 q 381 669 291 669 q 475 651 429 669 q 515 628 501 641 q 546 589 530 616 q 688 601 640 589 l 692 593 l 679 530 q 611 525 639 525 q 562 528 593 525 l 564 520 q 568 477 568 493 q 450 258 568 347 q 333 203 396 218 m 244 1 q 107 -63 153 -25 q 37 -201 37 -120 q 73 -290 37 -256 q 231 -345 131 -345 q 380 -306 319 -345 q 441 -214 441 -268 q 420 -148 441 -179 q 351 -81 399 -117 l 244 1 m 348 622 q 237 576 283 622 q 174 399 174 515 q 303 233 174 233 q 429 311 384 233 q 468 473 468 378 q 348 622 468 622 m 323 705 l 311 730 q 506 1028 407 915 l 551 1046 l 560 1034 q 446 741 467 889 q 323 705 393 730 z "},"Ĥ":{"ha":1080,"x_min":-4,"x_max":1111,"o":"m 307 534 l 821 534 l 863 777 q 875 882 875 847 q 827 920 875 918 l 760 922 l 764 961 l 851 959 q 962 957 935 957 q 1089 960 1014 957 l 1111 961 l 1107 922 l 1057 918 q 1006 903 1019 915 q 986 851 994 891 l 859 129 q 853 80 853 100 q 864 50 853 59 q 903 39 876 40 l 983 35 l 979 -4 l 921 -3 q 796 0 833 0 q 677 -2 766 0 l 600 -4 l 606 35 l 675 39 q 727 60 716 41 q 755 174 738 78 l 811 472 l 727 473 q 555 476 600 476 q 385 473 511 476 l 300 472 l 241 129 q 236 80 236 96 q 247 50 236 59 q 286 39 258 41 l 354 35 l 350 -4 l 313 -3 q 179 0 223 0 q 54 -3 142 0 l -4 -4 l 1 35 l 58 39 q 112 61 100 42 q 139 174 123 81 l 241 777 q 254 882 254 850 q 205 920 254 918 l 140 922 l 144 961 l 234 959 q 340 957 312 957 q 466 960 385 957 l 498 961 l 494 922 l 436 918 q 386 903 398 916 q 366 851 373 891 l 307 534 m 756 1235 l 879 1000 l 829 1000 l 715 1145 l 524 1000 l 470 1000 l 688 1235 l 756 1235 z "},"ĥ":{"ha":694,"x_min":14,"x_max":654,"o":"m 328 1003 l 191 368 l 218 403 q 355 549 297 502 q 480 637 421 605 q 574 669 539 669 q 615 620 615 669 q 600 516 615 578 l 511 161 q 501 106 501 123 q 506 86 501 95 q 519 78 511 78 q 604 119 541 78 l 640 143 l 654 118 q 505 15 551 42 q 431 -12 458 -12 q 390 42 390 -12 q 408 149 390 79 l 479 420 q 500 544 500 501 q 470 574 500 574 q 399 543 444 574 q 302 456 354 511 q 181 277 218 366 q 119 9 144 188 l 23 -12 l 14 3 q 136 538 76 203 l 194 864 q 197 897 197 878 q 150 930 197 930 l 83 930 l 89 960 q 209 978 163 966 q 311 1018 254 990 l 328 1003 m 435 1284 l 557 1049 l 508 1049 l 394 1194 l 203 1049 l 149 1049 l 368 1284 l 435 1284 z "},"Ħ":{"ha":1080,"x_min":-4,"x_max":1111,"o":"m 859 757 l 863 777 q 875 882 875 848 q 827 920 875 918 l 760 922 l 764 961 l 851 959 q 962 957 935 957 q 1089 960 1014 957 l 1111 961 l 1107 922 l 1057 918 q 1006 903 1019 915 q 986 851 994 891 l 970 757 l 1103 757 l 1087 686 l 957 686 l 859 129 q 853 80 853 100 q 864 50 853 59 q 903 39 876 40 l 983 35 l 979 -4 l 921 -3 q 796 0 833 0 q 677 -2 766 0 l 600 -4 l 606 35 l 675 39 q 727 60 716 41 q 755 174 738 78 l 811 472 l 727 473 q 555 476 600 476 q 385 473 511 476 l 300 472 l 241 129 q 236 80 236 96 q 247 50 236 59 q 286 39 258 41 l 354 35 l 350 -4 l 313 -3 q 179 0 223 0 q 54 -3 142 0 l -4 -4 l 1 35 l 58 39 q 112 61 100 42 q 139 174 123 81 l 227 686 l 81 686 l 96 757 l 239 757 l 241 777 q 254 882 254 850 q 205 920 254 918 l 140 922 l 144 961 l 234 959 q 340 957 312 957 q 466 960 385 957 l 498 961 l 494 922 l 436 918 q 386 903 398 916 q 366 851 373 891 l 348 757 l 859 757 m 847 686 l 335 686 l 307 534 l 821 534 l 847 686 z "},"ħ":{"ha":694,"x_min":14,"x_max":654,"o":"m 286 808 l 475 808 l 460 738 l 271 738 l 191 368 l 218 403 q 355 549 297 501 q 480 637 421 605 q 574 669 539 669 q 615 620 615 669 q 600 516 615 578 l 511 161 q 501 106 501 123 q 506 86 501 95 q 519 78 511 78 q 604 119 541 78 l 640 143 l 654 118 q 505 15 551 42 q 431 -12 458 -12 q 390 42 390 -12 q 408 149 390 79 l 479 420 q 500 544 500 501 q 470 574 500 574 q 399 543 444 574 q 302 456 354 511 q 181 277 218 366 q 119 9 144 188 l 23 -12 l 14 3 q 136 538 76 205 l 172 738 l 42 738 l 58 808 l 184 808 l 194 864 q 197 897 197 878 q 150 930 197 930 l 83 930 l 89 960 q 209 978 163 966 q 311 1018 254 990 l 328 1003 l 286 808 z "},"Ĩ":{"ha":463,"x_min":9,"x_max":573,"o":"m 143 922 l 147 961 l 236 959 q 344 957 314 957 q 479 960 397 957 l 492 961 l 488 922 l 439 918 q 387 903 399 915 q 368 851 374 891 l 243 109 q 241 79 241 96 q 253 50 241 58 q 292 39 264 41 l 363 35 l 359 -4 l 315 -3 q 184 0 226 0 q 54 -3 142 0 l 9 -4 l 14 35 l 64 39 q 101 46 90 41 q 118 64 112 52 q 144 174 130 87 l 244 777 q 257 884 257 853 q 208 920 257 918 l 143 922 m 159 1035 l 119 1035 q 163 1135 138 1101 q 256 1178 199 1178 q 342 1158 293 1178 l 426 1125 q 463 1118 443 1118 q 499 1130 485 1118 q 534 1178 513 1142 l 573 1178 q 537 1086 563 1120 q 439 1035 499 1035 q 350 1057 406 1035 l 297 1078 q 294 1079 296 1078 q 284 1082 291 1080 q 232 1096 252 1096 q 190 1083 205 1096 q 159 1035 175 1070 z "},"ĩ":{"ha":386,"x_min":47,"x_max":503,"o":"m 47 538 l 85 566 q 207 646 165 623 q 271 669 248 669 q 306 633 306 669 q 298 583 306 613 l 191 161 q 182 106 182 123 q 199 78 182 78 q 284 119 221 78 l 320 143 l 334 118 q 186 16 235 44 q 112 -12 138 -12 q 71 42 71 -12 q 88 149 71 83 l 180 481 q 191 543 191 522 q 167 572 191 572 q 101 539 151 572 l 56 511 l 47 538 m 90 743 l 49 743 q 94 843 67 810 q 186 886 128 886 q 273 867 223 886 l 356 833 q 393 827 372 827 q 429 839 414 827 q 464 886 444 850 l 503 886 q 455 781 491 819 q 369 743 420 743 q 279 765 336 743 l 227 786 q 214 791 218 789 q 161 804 180 804 q 120 791 135 804 q 90 743 105 779 z "},"Ī":{"ha":463,"x_min":9,"x_max":554,"o":"m 143 922 l 147 961 l 236 959 q 344 957 314 957 q 479 960 397 957 l 492 961 l 488 922 l 439 918 q 387 903 399 915 q 368 851 374 891 l 243 109 q 241 79 241 96 q 253 50 241 58 q 292 39 264 41 l 363 35 l 359 -4 l 315 -3 q 184 0 226 0 q 54 -3 142 0 l 9 -4 l 14 35 l 64 39 q 101 46 90 41 q 118 64 112 52 q 144 174 130 87 l 244 777 q 257 884 257 853 q 208 920 257 918 l 143 922 m 554 1109 l 539 1039 l 121 1039 l 136 1109 l 554 1109 z "},"ī":{"ha":386,"x_min":47,"x_max":498,"o":"m 47 538 l 85 566 q 207 646 165 623 q 271 669 248 669 q 306 633 306 669 q 298 583 306 613 l 191 161 q 182 106 182 123 q 199 78 182 78 q 284 119 221 78 l 320 143 l 334 118 q 186 16 235 44 q 112 -12 138 -12 q 71 42 71 -12 q 88 149 71 83 l 180 481 q 191 543 191 522 q 167 572 191 572 q 101 539 151 572 l 56 511 l 47 538 m 498 818 l 482 747 l 64 747 l 79 818 l 498 818 z "},"Ĭ":{"ha":463,"x_min":9,"x_max":562,"o":"m 143 922 l 147 961 l 236 959 q 344 957 314 957 q 479 960 397 957 l 492 961 l 488 922 l 439 918 q 387 903 399 915 q 368 851 374 891 l 243 109 q 241 79 241 96 q 253 50 241 58 q 292 39 264 41 l 363 35 l 359 -4 l 315 -3 q 184 0 226 0 q 54 -3 142 0 l 9 -4 l 14 35 l 64 39 q 101 46 90 41 q 118 64 112 52 q 144 174 130 87 l 244 777 q 257 884 257 853 q 208 920 257 918 l 143 922 m 144 1232 l 184 1232 q 335 1093 197 1093 q 440 1124 399 1093 q 522 1232 482 1156 l 562 1232 q 534 1149 547 1178 q 499 1093 521 1120 q 326 1011 434 1011 q 171 1092 216 1011 q 144 1232 144 1140 z "},"ĭ":{"ha":386,"x_min":47,"x_max":508,"o":"m 47 538 l 86 566 q 208 646 166 623 q 272 669 249 669 q 307 633 307 669 q 299 583 307 613 l 192 161 q 182 106 182 123 q 200 78 182 78 q 285 119 222 78 l 321 143 l 335 118 q 187 16 235 44 q 113 -12 139 -12 q 71 42 71 -12 q 89 149 71 83 l 181 481 q 192 543 192 522 q 168 572 192 572 q 102 539 152 572 l 57 511 l 47 538 m 90 940 l 130 940 q 281 802 143 802 q 386 833 345 802 q 468 940 428 864 l 508 940 q 480 857 493 886 q 446 801 467 828 q 272 720 380 720 q 117 800 162 720 q 90 940 90 848 z "},"Į":{"ha":463,"x_min":9,"x_max":492,"o":"m 363 35 l 359 -4 l 355 -4 l 350 -3 q 304 -45 330 -3 q 277 -118 277 -87 q 292 -164 277 -146 q 330 -182 307 -182 q 399 -135 361 -182 l 418 -140 q 274 -260 354 -260 q 219 -235 239 -260 q 199 -169 199 -211 q 217 -98 199 -132 q 283 -14 235 -65 l 294 -2 q 182 0 214 0 q 54 -3 142 0 l 9 -4 l 14 35 l 64 39 q 101 46 90 41 q 118 64 112 52 q 144 174 130 87 l 244 777 q 257 884 257 853 q 208 920 257 918 l 143 922 l 147 961 l 236 959 q 344 957 314 957 q 479 960 397 957 l 492 961 l 488 922 l 439 918 q 387 903 399 915 q 368 851 374 891 l 243 109 q 241 79 241 96 q 253 50 241 58 q 292 39 264 41 l 363 35 z "},"į":{"ha":386,"x_min":47,"x_max":366,"o":"m 320 143 l 334 118 q 302 94 313 102 q 176 -19 222 39 q 129 -117 129 -76 q 144 -164 129 -146 q 182 -182 159 -182 q 251 -135 213 -182 l 271 -140 q 125 -260 205 -260 q 71 -235 91 -260 q 51 -169 51 -211 q 68 -99 51 -132 q 135 -14 86 -66 l 141 -7 q 112 -12 123 -12 q 71 42 71 -12 q 88 149 71 83 l 180 481 q 191 543 191 522 q 184 565 191 556 q 166 574 177 574 q 102 540 156 574 l 56 511 l 47 538 l 85 566 q 207 646 165 623 q 271 669 248 669 q 306 633 306 669 q 298 583 306 614 l 191 161 q 182 106 182 123 q 199 78 182 78 q 284 119 221 78 l 320 143 m 315 989 q 352 973 338 989 q 366 932 366 957 q 345 865 366 892 q 290 839 323 839 q 235 897 235 839 q 260 960 235 932 q 315 989 285 989 z "},"İ":{"ha":463,"x_min":9,"x_max":492,"o":"m 143 922 l 147 961 l 236 959 q 344 957 314 957 q 479 960 397 957 l 492 961 l 488 922 l 439 918 q 387 903 399 915 q 368 851 374 891 l 243 109 q 241 79 241 96 q 253 50 241 58 q 292 39 264 41 l 363 35 l 359 -4 l 315 -3 q 184 0 226 0 q 54 -3 142 0 l 9 -4 l 14 35 l 64 39 q 101 46 90 41 q 118 64 112 52 q 144 174 130 87 l 244 777 q 257 884 257 853 q 208 920 257 918 l 143 922 m 346 1187 q 398 1165 376 1187 q 420 1114 420 1143 q 398 1060 420 1083 q 345 1038 376 1038 q 293 1060 315 1038 q 271 1114 271 1083 q 293 1165 271 1143 q 346 1187 315 1187 z "},"Ĳ":{"ha":925,"x_min":9,"x_max":960,"o":"m 143 922 l 147 961 l 236 959 q 344 957 314 957 q 479 960 397 957 l 492 961 l 488 922 l 439 918 q 387 903 399 915 q 368 851 374 891 l 243 109 q 241 79 241 96 q 253 50 241 58 q 292 39 264 41 l 363 35 l 359 -4 l 315 -3 q 184 0 226 0 q 54 -3 142 0 l 9 -4 l 14 35 l 64 39 q 101 46 90 41 q 118 64 112 52 q 144 174 130 87 l 244 777 q 257 884 257 853 q 208 920 257 918 l 143 922 m 956 922 l 897 918 q 845 903 859 916 q 826 851 832 890 l 708 75 q 661 -109 691 -39 q 574 -240 625 -193 q 466 -286 523 -286 q 418 -273 441 -286 l 414 -236 q 454 -242 429 -242 q 526 -202 497 -242 q 582 -29 564 -149 l 714 864 q 715 882 715 876 q 667 920 715 918 l 601 922 l 606 961 l 694 959 q 802 957 772 957 q 927 960 846 957 l 960 961 l 956 922 z "},"ĳ":{"ha":764,"x_min":41,"x_max":748,"o":"m 41 538 l 80 566 q 201 646 160 623 q 266 669 243 669 q 300 633 300 669 q 293 583 300 614 l 186 161 q 176 106 176 123 q 194 78 176 78 q 279 119 216 78 l 315 143 l 329 118 q 180 15 227 43 q 106 -12 133 -12 q 65 42 65 -12 q 83 149 65 83 l 175 481 q 186 543 186 522 q 179 565 186 556 q 161 574 172 574 q 96 540 151 574 l 51 511 l 41 538 m 310 989 q 347 973 332 989 q 361 932 361 957 q 339 865 361 892 q 284 839 317 839 q 230 897 230 839 q 255 960 230 932 q 310 989 279 989 m 283 -374 l 294 -294 q 368 -321 339 -321 q 404 -288 387 -321 q 433 -200 422 -255 l 572 487 q 575 503 572 492 q 582 542 582 532 q 557 574 582 574 q 492 540 547 574 l 447 511 l 437 538 l 476 566 q 597 646 555 623 q 662 669 639 669 q 696 635 696 669 q 688 583 696 620 l 583 97 q 536 -100 554 -35 q 497 -212 518 -165 q 336 -383 420 -383 q 283 -374 304 -383 m 698 989 q 734 973 720 989 q 748 932 748 957 q 726 865 748 892 q 672 839 705 839 q 632 854 647 839 q 618 897 618 869 q 643 960 618 932 q 698 989 667 989 z "},"Ĵ":{"ha":463,"x_min":-49,"x_max":535,"o":"m 493 922 l 435 918 q 383 903 396 916 q 363 851 370 890 l 245 75 q 199 -109 229 -39 q 112 -240 163 -193 q 3 -286 60 -286 q -45 -273 -22 -286 l -49 -236 q -8 -242 -33 -242 q 63 -202 35 -242 q 119 -29 102 -149 l 252 864 q 253 882 253 875 q 204 920 253 918 l 138 922 l 143 961 l 232 959 q 339 957 310 957 q 465 960 384 957 l 497 961 l 493 922 m 413 1244 l 535 1010 l 485 1010 l 371 1154 l 181 1010 l 127 1010 l 345 1244 l 413 1244 z "},"ĵ":{"ha":386,"x_min":-97,"x_max":448,"o":"m -97 -374 l -86 -294 q -12 -321 -41 -321 q 24 -288 6 -321 q 53 -200 42 -255 l 191 487 q 195 503 192 490 q 201 543 201 532 q 176 574 201 574 q 112 540 166 574 l 67 511 l 57 538 l 96 566 q 217 646 176 623 q 282 669 259 669 q 317 635 317 669 q 309 583 317 621 l 203 97 q 156 -100 174 -35 q 117 -212 138 -165 q -44 -383 41 -383 q -97 -374 -76 -383 m 326 943 l 448 708 l 398 708 l 284 852 l 94 708 l 40 708 l 258 943 l 326 943 z "},"Ķ":{"ha":926,"x_min":18,"x_max":949,"o":"m 515 922 l 457 918 q 406 903 419 916 q 387 851 393 890 l 323 490 q 531 672 450 590 l 709 852 q 762 921 762 906 l 762 961 l 789 960 q 854 957 834 957 q 917 959 873 957 l 949 961 l 949 924 l 920 924 q 845 889 882 924 l 439 510 l 781 90 q 869 37 824 37 l 897 37 l 897 -4 q 803 0 855 -2 l 707 -4 q 532 227 599 144 q 321 472 466 309 l 260 109 q 258 79 258 95 q 270 50 258 58 q 309 39 281 41 l 376 35 l 372 -4 l 336 -3 q 201 0 245 0 q 77 -3 164 0 l 18 -4 l 24 35 l 81 39 q 134 62 122 42 q 161 174 146 81 l 262 777 q 275 882 275 851 q 227 920 275 918 l 161 922 l 165 961 l 255 959 q 362 957 333 957 q 487 960 406 957 l 519 961 l 515 922 m 497 -83 l 510 -109 q 314 -406 413 -292 l 270 -424 l 260 -411 q 374 -118 353 -267 q 497 -83 430 -108 z "},"ķ":{"ha":616,"x_min":11,"x_max":623,"o":"m 325 1003 l 176 319 q 306 491 256 433 q 417 602 355 548 q 557 669 494 669 q 623 656 584 669 l 600 569 q 550 577 567 577 q 446 549 498 577 q 332 458 395 521 l 312 439 q 446 104 382 219 q 481 72 463 72 q 522 86 496 72 l 582 119 l 593 93 l 529 49 q 417 -12 441 -12 q 366 38 393 -12 q 241 359 324 118 q 149 183 166 280 l 117 11 l 23 -12 l 11 1 q 125 492 103 370 l 191 864 q 194 897 194 878 q 147 930 194 930 l 80 930 l 86 960 q 206 978 160 966 q 308 1018 252 990 l 325 1003 m 277 -83 l 290 -109 q 94 -406 194 -292 l 50 -424 l 40 -411 q 154 -118 134 -267 q 277 -83 210 -108 z "},"ĸ":{"ha":616,"x_min":-93,"x_max":732,"o":"m 186 342 l 149 128 q 140 64 140 83 q 148 42 140 48 q 176 35 155 36 l 218 31 l 212 0 q 60 3 132 3 q -93 0 -12 3 l -87 31 l -45 35 q -7 47 -17 37 q 16 128 4 60 l 99 596 q 106 660 106 639 q 99 682 106 676 q 71 690 92 688 l 29 692 l 35 724 q 186 721 127 721 q 340 724 246 721 l 334 692 l 292 690 q 255 677 264 688 q 231 596 243 664 l 191 373 l 515 655 q 552 696 550 686 l 557 724 q 648 721 623 721 q 732 724 673 721 l 727 692 l 683 690 q 595 651 643 689 l 275 401 l 560 76 q 617 33 596 35 l 639 31 l 633 0 q 565 3 584 3 q 482 0 551 3 l 196 349 l 186 342 z "},"Ĺ":{"ha":772,"x_min":22,"x_max":726,"o":"m 485 922 l 427 918 q 376 903 389 916 q 356 851 363 890 l 228 113 q 225 70 225 96 l 225 64 q 422 54 339 54 q 622 68 592 54 q 660 143 642 79 l 684 229 l 726 229 q 694 0 695 77 l 648 -1 q 534 -4 568 -5 l 236 0 q 79 -3 187 1 l 22 -4 l 29 32 q 93 49 77 40 q 113 77 109 58 l 232 777 q 245 882 245 850 q 196 920 245 918 l 131 922 l 135 961 l 224 959 q 331 957 302 957 q 456 960 376 957 l 489 961 l 485 922 m 352 1011 l 565 1221 q 610 1246 590 1246 q 647 1233 631 1246 q 663 1203 663 1221 q 625 1152 663 1175 l 399 1011 l 352 1011 z "},"ĺ":{"ha":386,"x_min":50,"x_max":565,"o":"m 349 1003 l 170 157 q 168 144 170 155 q 161 106 161 118 q 166 86 161 94 q 179 78 172 78 q 264 119 201 78 l 300 143 l 314 118 q 166 16 215 45 q 92 -12 118 -12 q 50 43 50 -12 q 77 184 50 84 l 96 256 q 157 539 116 330 q 210 833 199 748 l 214 864 q 218 899 218 895 q 171 930 218 930 l 104 930 l 110 960 q 230 978 184 966 q 332 1018 276 990 l 349 1003 m 254 1072 l 467 1282 q 511 1307 492 1307 q 549 1294 533 1307 q 565 1264 565 1282 q 526 1213 565 1236 l 301 1072 l 254 1072 z "},"Ļ":{"ha":772,"x_min":22,"x_max":726,"o":"m 485 922 l 427 918 q 376 903 389 916 q 356 851 363 890 l 228 113 q 225 70 225 96 l 225 64 q 422 54 339 54 q 622 68 592 54 q 660 143 642 79 l 684 229 l 726 229 q 694 0 695 77 l 648 -1 q 534 -4 568 -5 l 236 0 q 79 -3 187 1 l 22 -4 l 29 32 q 93 49 77 40 q 113 77 109 58 l 232 777 q 245 882 245 850 q 196 920 245 918 l 131 922 l 135 961 l 224 959 q 331 957 302 957 q 456 960 376 957 l 489 961 l 485 922 m 420 -83 l 433 -109 q 237 -406 337 -292 l 193 -424 l 183 -411 q 297 -118 276 -267 q 420 -83 353 -108 z "},"ļ":{"ha":386,"x_min":-39,"x_max":348,"o":"m 348 1003 l 170 157 q 167 144 169 153 q 161 106 161 118 q 166 86 161 94 q 178 78 171 78 q 264 119 200 78 l 300 143 l 313 118 q 166 16 214 45 q 91 -12 117 -12 q 50 43 50 -12 q 76 184 50 83 l 96 256 q 157 539 115 330 q 210 833 198 748 l 214 864 q 218 899 218 895 q 170 930 218 930 l 104 930 l 109 960 q 229 978 183 966 q 332 1018 275 990 l 348 1003 m 199 -83 l 212 -109 q 16 -406 115 -292 l -29 -424 l -39 -411 q 75 -118 55 -267 q 199 -83 131 -108 z "},"Ľ":{"ha":772,"x_min":22,"x_max":745,"o":"m 485 922 l 427 918 q 376 903 389 916 q 356 851 363 890 l 228 113 q 225 70 225 96 l 225 64 q 422 54 339 54 q 622 68 592 54 q 660 143 642 79 l 684 229 l 726 229 q 694 0 695 77 l 648 -1 q 534 -4 568 -5 l 236 0 q 79 -3 187 1 l 22 -4 l 29 32 q 93 49 77 40 q 113 77 109 58 l 232 777 q 245 882 245 850 q 196 920 245 918 l 131 922 l 135 961 l 224 959 q 331 957 302 957 q 456 960 376 957 l 489 961 l 485 922 m 732 990 l 745 965 q 549 668 649 782 l 505 650 l 494 662 q 608 956 588 806 q 732 990 664 965 z "},"ľ":{"ha":542,"x_min":52,"x_max":566,"o":"m 351 1003 l 172 157 q 170 144 172 155 q 163 106 163 118 q 169 86 163 94 q 181 78 174 78 q 266 119 203 78 l 302 143 l 316 118 q 169 16 217 45 q 94 -12 120 -12 q 52 43 52 -12 q 79 184 52 84 l 98 256 q 159 539 118 330 q 212 833 201 748 l 216 864 q 220 899 220 895 q 173 930 220 930 l 106 930 l 112 960 q 232 978 186 966 q 334 1018 278 990 l 351 1003 m 553 1018 l 566 993 q 370 696 471 810 l 326 677 l 316 690 q 430 983 410 835 q 553 1018 484 992 z "},"Ŀ":{"ha":772,"x_min":22,"x_max":726,"o":"m 485 922 l 427 918 q 376 903 389 916 q 356 851 363 890 l 228 113 q 225 70 225 96 l 225 64 q 422 54 339 54 q 622 68 592 54 q 660 143 642 79 l 684 229 l 726 229 q 694 0 695 77 l 648 -1 q 534 -4 568 -5 l 236 0 q 79 -3 187 1 l 22 -4 l 29 32 q 93 49 77 40 q 113 77 109 58 l 232 777 q 245 882 245 850 q 196 920 245 918 l 131 922 l 135 961 l 224 959 q 331 957 302 957 q 456 960 376 957 l 489 961 l 485 922 m 574 553 q 618 534 600 553 q 636 487 636 515 q 611 419 636 448 q 551 391 587 391 q 506 409 523 391 q 490 456 490 426 q 514 525 490 496 q 574 553 539 553 z "},"ŀ":{"ha":521,"x_min":83,"x_max":490,"o":"m 381 1003 l 203 157 q 200 144 202 155 q 194 106 194 118 q 199 86 194 94 q 212 78 204 78 q 296 119 233 78 l 333 143 l 347 118 q 199 16 248 45 q 124 -12 151 -12 q 83 43 83 -12 q 109 184 83 84 l 129 256 q 190 539 149 330 q 243 833 231 748 l 247 864 q 251 899 251 895 q 203 930 251 930 l 137 930 l 142 960 q 262 978 216 966 q 365 1018 309 990 l 381 1003 m 429 566 q 472 547 454 566 q 490 500 490 528 q 466 432 490 460 q 406 404 441 404 q 361 421 378 404 q 345 469 345 439 q 369 538 345 509 q 429 566 393 566 z "},"Ł":{"ha":772,"x_min":-22,"x_max":726,"o":"m 180 472 l 232 777 q 244 882 244 849 q 196 920 244 918 l 130 922 l 134 961 l 224 959 q 331 957 302 957 q 456 960 376 957 l 489 961 l 485 922 l 427 918 q 375 903 388 916 q 355 851 362 890 l 301 536 l 500 643 l 517 603 l 292 484 l 228 113 q 225 70 225 96 l 225 64 q 422 54 339 54 q 622 68 591 54 q 660 143 642 78 l 683 229 l 726 229 q 694 0 694 75 l 648 -1 q 534 -4 568 -5 l 236 0 q 79 -3 187 1 l 22 -4 l 29 32 q 93 49 77 40 q 113 77 109 58 l 171 418 l -5 323 l -22 364 l 180 472 z "},"ł":{"ha":386,"x_min":-14,"x_max":419,"o":"m 147 529 l 215 864 q 218 897 218 878 q 170 930 218 930 l 104 930 l 109 960 q 229 978 183 966 q 332 1018 275 990 l 349 1003 l 264 603 l 402 689 l 419 648 l 251 545 l 170 161 q 167 144 170 155 q 161 106 161 117 q 166 86 161 94 q 178 78 171 78 q 264 119 200 78 l 300 143 l 313 118 q 166 16 215 45 q 91 -12 117 -12 q 50 43 50 -12 q 60 115 50 67 l 68 149 l 134 471 l 3 389 l -14 429 l 147 529 z "},"Ń":{"ha":1080,"x_min":3,"x_max":1116,"o":"m 329 961 l 808 144 l 920 822 q 926 886 926 865 q 876 920 926 917 l 811 922 l 818 961 l 845 960 q 964 957 920 957 q 1087 960 1006 957 l 1116 961 l 1109 922 l 1058 920 q 1014 904 1023 918 q 975 753 996 879 l 844 -16 l 775 -16 l 306 787 l 195 142 q 191 100 191 120 q 203 54 191 65 q 258 39 216 42 l 317 35 l 310 -4 q 157 0 172 1 l 3 -4 l 9 35 l 53 39 q 103 61 90 43 q 127 142 116 79 l 250 800 q 254 825 253 817 q 256 832 256 831 q 257 842 257 839 q 244 867 257 850 q 215 897 231 884 q 146 920 188 917 l 97 922 l 104 961 l 184 958 l 203 957 q 216 957 216 957 l 329 961 m 562 1011 l 774 1221 q 819 1246 800 1246 q 857 1233 841 1246 q 873 1204 873 1221 q 834 1152 873 1175 l 609 1011 l 562 1011 z "},"ń":{"ha":772,"x_min":33,"x_max":714,"o":"m 33 538 l 72 566 q 256 669 216 669 q 288 624 288 669 q 281 566 288 600 l 228 342 q 391 541 323 477 q 518 634 452 598 q 628 669 584 669 q 671 620 671 669 q 656 516 671 581 l 564 133 q 561 106 561 119 q 566 86 561 94 q 578 78 571 78 q 664 119 600 78 l 700 143 l 714 118 q 566 16 614 44 q 491 -12 517 -12 q 450 43 450 -12 q 467 142 450 74 l 468 149 l 541 443 q 555 542 555 505 q 532 574 555 574 q 416 517 485 574 q 290 372 347 459 q 216 221 242 300 q 171 11 191 142 q 73 -12 127 3 l 64 3 q 142 319 106 151 q 178 540 178 486 q 153 574 178 574 q 88 540 142 574 l 43 511 l 33 538 m 324 720 l 536 929 q 582 954 562 954 q 620 941 604 954 q 635 911 635 928 q 596 860 635 884 l 372 720 l 324 720 z "},"Ņ":{"ha":1080,"x_min":3,"x_max":1116,"o":"m 329 961 l 808 144 l 920 822 q 926 886 926 865 q 876 920 926 917 l 811 922 l 818 961 l 845 960 q 964 957 920 957 q 1087 960 1006 957 l 1116 961 l 1109 922 l 1058 920 q 1014 904 1023 918 q 975 753 996 879 l 844 -16 l 775 -16 l 306 787 l 195 142 q 191 100 191 120 q 203 54 191 65 q 258 39 216 42 l 317 35 l 310 -4 q 157 0 172 1 l 3 -4 l 9 35 l 53 39 q 103 61 90 43 q 127 142 116 79 l 250 800 q 254 825 253 817 q 256 832 256 831 q 257 842 257 839 q 244 867 257 850 q 215 897 231 884 q 146 920 188 917 l 97 922 l 104 961 l 184 958 l 203 957 q 216 957 216 957 l 329 961 m 574 -83 l 587 -109 q 391 -406 491 -292 l 347 -424 l 337 -411 q 451 -118 430 -267 q 574 -83 507 -108 z "},"ņ":{"ha":772,"x_min":33,"x_max":714,"o":"m 33 538 l 72 566 q 256 669 216 669 q 288 624 288 669 q 281 566 288 600 l 228 342 q 391 541 323 477 q 518 634 452 598 q 628 669 584 669 q 671 620 671 669 q 656 516 671 581 l 564 133 q 561 106 561 119 q 566 86 561 94 q 578 78 571 78 q 664 119 600 78 l 700 143 l 714 118 q 566 16 614 44 q 491 -12 517 -12 q 450 43 450 -12 q 467 142 450 74 l 468 149 l 541 443 q 555 542 555 505 q 532 574 555 574 q 416 517 485 574 q 290 372 347 459 q 216 221 242 300 q 171 11 191 142 q 73 -12 127 3 l 64 3 q 142 319 106 151 q 178 540 178 486 q 153 574 178 574 q 88 540 142 574 l 43 511 l 33 538 m 365 -83 l 377 -109 q 181 -406 281 -292 l 137 -424 l 127 -411 q 241 -118 220 -267 q 365 -83 297 -108 z "},"Ň":{"ha":1080,"x_min":3,"x_max":1116,"o":"m 329 961 l 808 144 l 920 822 q 926 886 926 865 q 876 920 926 917 l 811 922 l 818 961 l 845 960 q 964 957 920 957 q 1087 960 1006 957 l 1116 961 l 1109 922 l 1058 920 q 1014 904 1023 918 q 975 753 996 879 l 844 -16 l 775 -16 l 306 787 l 195 142 q 191 100 191 120 q 203 54 191 65 q 258 39 216 42 l 317 35 l 310 -4 q 157 0 172 1 l 3 -4 l 9 35 l 53 39 q 103 61 90 43 q 127 142 116 79 l 250 800 q 254 825 253 817 q 256 832 256 831 q 257 842 257 839 q 244 867 257 850 q 215 897 231 884 q 146 920 188 917 l 97 922 l 104 961 l 184 958 l 203 957 q 216 957 216 957 l 329 961 m 678 1000 l 614 1000 l 481 1235 l 532 1235 l 658 1089 l 855 1235 l 905 1235 l 678 1000 z "},"ň":{"ha":772,"x_min":33,"x_max":723,"o":"m 33 538 l 72 566 q 256 669 216 669 q 288 624 288 669 q 281 566 288 600 l 228 342 q 391 541 323 477 q 518 634 452 598 q 628 669 584 669 q 671 620 671 669 q 656 516 671 581 l 564 133 q 561 106 561 119 q 566 86 561 94 q 578 78 571 78 q 664 119 600 78 l 700 143 l 714 118 q 566 16 614 44 q 491 -12 517 -12 q 450 43 450 -12 q 467 142 450 74 l 468 149 l 541 443 q 555 542 555 505 q 532 574 555 574 q 416 517 485 574 q 290 372 347 459 q 216 221 242 300 q 171 11 191 142 q 73 -12 127 3 l 64 3 q 142 319 106 151 q 178 540 178 486 q 153 574 178 574 q 88 540 142 574 l 43 511 l 33 538 m 496 708 l 433 708 l 299 943 l 351 943 l 475 797 l 673 943 l 723 943 l 496 708 z "},"ŉ":{"ha":896,"x_min":71,"x_max":865,"o":"m 184 538 l 223 566 q 407 669 367 669 q 439 624 439 669 q 431 566 439 599 l 378 342 q 542 541 473 476 q 669 633 603 597 q 779 669 734 669 q 821 620 821 669 q 806 516 821 580 l 715 133 q 711 106 711 119 q 717 86 711 94 q 729 78 722 78 q 814 119 751 78 l 850 143 l 865 118 q 715 15 762 42 q 642 -12 669 -12 q 601 43 601 -12 q 618 149 601 76 l 691 443 q 706 542 706 505 q 683 574 706 574 q 567 517 635 574 q 440 372 498 459 q 367 221 393 300 q 321 11 341 142 q 224 -12 277 3 l 214 3 q 293 319 257 151 q 328 540 328 486 q 303 574 328 574 q 239 540 293 574 l 193 511 l 184 538 m 309 881 l 321 856 q 125 559 225 673 l 81 541 l 71 553 q 185 846 165 697 q 309 881 243 857 z "},"Ŋ":{"ha":1080,"x_min":60,"x_max":1059,"o":"m 387 616 q 566 781 491 723 q 827 927 690 875 q 1010 969 939 969 q 1059 909 1059 969 q 1050 849 1059 891 l 906 145 q 812 -194 857 -94 q 633 -383 727 -383 q 576 -372 600 -383 l 588 -286 q 669 -314 637 -314 q 709 -277 690 -314 q 741 -182 729 -241 l 924 754 q 932 829 932 795 q 903 865 932 865 q 750 827 842 865 q 578 732 659 789 q 431 596 489 666 q 365 472 374 526 l 306 129 q 300 80 300 96 q 312 50 300 59 q 351 39 323 41 l 418 35 l 414 -4 l 378 -3 q 243 0 288 0 q 119 -3 206 0 l 60 -4 l 66 35 l 123 39 q 176 61 164 42 q 203 174 188 81 l 306 777 q 319 882 319 850 q 270 920 319 918 l 205 922 l 209 961 l 298 959 q 333 958 320 958 q 447 960 355 958 l 456 951 q 430 851 437 889 l 387 616 z "},"ŋ":{"ha":746,"x_min":45,"x_max":683,"o":"m 240 342 q 404 541 334 475 q 530 633 465 597 q 640 669 596 669 q 683 614 683 669 q 675 560 683 597 l 574 97 q 489 -212 525 -130 q 328 -383 412 -383 q 275 -374 296 -383 l 286 -294 q 359 -321 330 -321 q 396 -288 378 -321 q 425 -200 414 -255 l 560 474 q 568 543 568 510 q 545 574 568 574 q 428 517 497 574 q 302 372 359 459 q 228 221 254 300 q 183 11 202 142 q 85 -13 139 3 l 76 3 q 155 319 119 153 q 190 540 190 486 q 165 574 190 574 q 100 540 155 574 l 55 511 l 45 538 l 84 566 q 269 669 229 669 q 300 624 300 669 q 293 566 300 600 l 240 342 z "},"Ō":{"ha":1080,"x_min":73,"x_max":1038,"o":"m 644 981 q 938 875 831 981 q 1038 591 1038 776 q 920 212 1038 380 q 637 3 810 59 q 448 -25 551 -25 q 291 0 361 -25 q 175 70 220 24 q 73 378 73 174 q 244 819 73 652 q 644 981 410 981 m 602 922 q 347 824 444 922 q 250 676 284 762 q 195 384 195 538 q 500 33 195 33 q 766 139 663 33 q 865 292 831 204 q 916 568 916 423 q 602 922 916 922 m 873 1109 l 857 1039 l 439 1039 l 454 1109 l 873 1109 z "},"ō":{"ha":616,"x_min":23,"x_max":612,"o":"m 386 669 q 513 623 467 669 q 570 460 570 565 q 529 248 570 355 q 423 79 488 140 q 317 9 376 35 q 201 -16 258 -16 q 79 30 124 -16 q 23 212 23 87 q 85 472 23 359 q 216 614 132 558 q 386 669 301 669 m 334 616 q 251 593 279 616 q 164 436 199 551 q 129 210 129 322 q 160 85 129 130 q 256 37 193 37 q 361 83 323 37 q 441 262 413 146 q 465 438 465 354 q 334 616 465 616 m 612 818 l 597 747 l 179 747 l 195 818 l 612 818 z "},"Ŏ":{"ha":1080,"x_min":73,"x_max":1038,"o":"m 644 981 q 938 875 831 981 q 1038 591 1038 776 q 920 212 1038 380 q 637 3 810 59 q 448 -25 551 -25 q 291 0 361 -25 q 175 70 220 24 q 73 378 73 174 q 244 819 73 652 q 644 981 410 981 m 602 922 q 347 824 444 922 q 250 676 284 762 q 195 384 195 538 q 500 33 195 33 q 766 139 663 33 q 865 292 831 204 q 916 568 916 423 q 602 922 916 922 m 444 1254 l 484 1254 q 635 1115 497 1115 q 741 1146 699 1115 q 822 1254 783 1177 l 862 1254 q 834 1171 847 1200 q 799 1114 821 1142 q 627 1033 734 1033 q 471 1114 516 1033 q 444 1254 444 1162 z "},"ŏ":{"ha":616,"x_min":24,"x_max":623,"o":"m 387 669 q 514 623 467 669 q 571 460 571 565 q 530 248 571 355 q 424 79 488 140 q 318 9 376 35 q 201 -16 259 -16 q 80 30 125 -16 q 24 212 24 87 q 85 472 24 359 q 217 614 132 558 q 387 669 302 669 m 335 616 q 252 593 280 616 q 165 436 200 551 q 130 210 130 322 q 161 85 130 130 q 257 37 194 37 q 361 83 323 37 q 442 262 414 146 q 465 438 465 354 q 335 616 465 616 m 205 940 l 245 940 q 397 802 258 802 q 502 833 460 802 q 583 940 543 864 l 623 940 q 595 857 608 886 q 560 801 583 828 q 387 720 495 720 q 232 800 277 720 q 205 940 205 848 z "},"Ő":{"ha":1080,"x_min":73,"x_max":1038,"o":"m 644 981 q 938 875 831 981 q 1038 591 1038 776 q 920 212 1038 380 q 637 3 810 59 q 448 -25 551 -25 q 291 0 361 -25 q 175 70 220 24 q 73 378 73 174 q 244 819 73 652 q 644 981 410 981 m 602 922 q 347 824 444 922 q 250 676 284 762 q 195 384 195 538 q 500 33 195 33 q 766 139 663 33 q 865 292 831 204 q 916 568 916 423 q 602 922 916 922 m 510 1011 l 661 1270 q 713 1306 683 1306 q 762 1265 762 1306 q 736 1217 762 1246 l 555 1011 l 510 1011 m 728 1011 l 880 1270 q 931 1306 901 1306 q 981 1264 981 1306 q 955 1217 981 1246 l 774 1011 l 728 1011 z "},"ő":{"ha":616,"x_min":24,"x_max":709,"o":"m 387 669 q 514 623 467 669 q 571 460 571 565 q 530 248 571 355 q 424 79 488 140 q 318 9 376 35 q 201 -16 259 -16 q 80 30 125 -16 q 24 212 24 87 q 85 472 24 359 q 217 614 132 558 q 387 669 302 669 m 335 616 q 252 593 280 616 q 165 436 200 551 q 130 210 130 322 q 161 85 130 130 q 257 37 194 37 q 361 83 323 37 q 442 262 414 146 q 465 438 465 354 q 335 616 465 616 m 238 720 l 390 978 q 441 1015 412 1015 q 491 972 491 1015 q 487 953 491 961 q 465 925 482 945 l 284 720 l 238 720 m 456 720 l 608 978 q 660 1015 629 1015 q 709 972 709 1015 q 705 953 709 961 q 683 925 701 945 l 503 720 l 456 720 z "},"Ŕ":{"ha":926,"x_min":12,"x_max":887,"o":"m 146 922 l 150 961 l 219 960 q 359 957 346 957 l 568 961 q 665 951 616 962 q 741 921 714 939 q 811 778 811 871 q 688 558 811 648 q 614 517 650 531 q 521 492 578 503 l 776 110 q 825 52 806 66 q 887 33 845 39 l 887 -4 l 823 -1 l 807 0 q 795 0 796 0 l 704 -4 q 560 230 623 133 q 370 509 498 326 l 375 525 l 436 525 q 625 598 552 525 q 689 753 689 662 q 504 911 689 911 q 398 900 450 911 q 376 806 378 817 l 258 129 q 252 80 252 96 q 263 50 252 59 q 302 39 275 41 l 370 35 l 366 -4 l 330 -3 q 195 0 239 0 q 71 -3 158 0 l 12 -4 l 18 35 l 75 39 q 127 61 116 42 q 155 174 139 80 l 260 777 q 272 882 272 848 q 223 920 272 918 l 146 922 m 355 1011 l 567 1221 q 612 1246 592 1246 q 650 1233 634 1246 q 666 1204 666 1221 q 627 1152 666 1176 l 402 1011 l 355 1011 z "},"ŕ":{"ha":541,"x_min":36,"x_max":562,"o":"m 511 507 l 492 507 q 442 533 470 533 q 326 443 395 533 q 254 322 281 383 q 208 175 227 262 l 172 8 l 154 5 q 79 -12 109 -3 l 65 -3 q 156 371 118 169 q 180 542 180 503 q 156 572 180 572 q 90 539 140 572 l 45 511 l 36 538 l 75 566 q 259 669 219 669 q 291 624 291 669 q 283 566 291 598 l 274 530 q 250 412 262 482 l 239 355 q 332 511 267 416 l 370 564 q 505 669 442 669 q 533 661 514 669 q 511 507 517 580 m 251 720 l 463 929 q 509 954 489 954 q 546 941 530 954 q 562 911 562 928 q 523 860 562 884 l 298 720 l 251 720 z "},"Ŗ":{"ha":926,"x_min":12,"x_max":887,"o":"m 146 922 l 150 961 l 219 960 q 359 957 346 957 l 568 961 q 665 951 616 962 q 741 921 714 939 q 811 778 811 871 q 688 558 811 648 q 614 517 650 531 q 521 492 578 503 l 776 110 q 825 52 806 66 q 887 33 845 39 l 887 -4 l 823 -1 l 807 0 q 795 0 796 0 l 704 -4 q 560 230 623 133 q 370 509 498 326 l 375 525 l 436 525 q 625 598 552 525 q 689 753 689 662 q 504 911 689 911 q 398 900 450 911 q 376 806 378 817 l 258 129 q 252 80 252 96 q 263 50 252 59 q 302 39 275 41 l 370 35 l 366 -4 l 330 -3 q 195 0 239 0 q 71 -3 158 0 l 12 -4 l 18 35 l 75 39 q 127 61 116 42 q 155 174 139 80 l 260 777 q 272 882 272 848 q 223 920 272 918 l 146 922 m 497 -83 l 509 -109 q 313 -406 414 -291 l 269 -424 l 260 -411 q 373 -118 353 -267 q 497 -83 429 -108 z "},"ŗ":{"ha":541,"x_min":-73,"x_max":534,"o":"m 511 507 l 492 507 q 443 533 471 533 q 327 443 396 533 q 254 322 281 383 q 209 175 227 262 l 172 8 l 154 5 q 79 -12 109 -3 l 66 -3 q 156 371 119 172 q 181 542 181 505 q 157 572 181 572 q 91 539 141 572 l 46 511 l 37 538 l 75 566 q 260 669 220 669 q 292 624 292 669 q 283 566 292 599 l 275 530 q 250 412 263 482 l 239 355 q 333 511 267 416 l 370 564 q 506 669 442 669 q 534 661 514 669 q 511 507 518 582 m 164 -83 l 177 -109 q -19 -406 81 -292 l -64 -424 l -73 -411 q 41 -118 20 -267 q 164 -83 96 -108 z "},"Ř":{"ha":926,"x_min":12,"x_max":887,"o":"m 146 922 l 150 961 l 219 960 q 359 957 346 957 l 568 961 q 665 951 616 962 q 741 921 714 939 q 811 778 811 871 q 688 558 811 648 q 614 517 650 531 q 521 492 578 503 l 776 110 q 825 52 806 66 q 887 33 845 39 l 887 -4 l 823 -1 l 807 0 q 795 0 796 0 l 704 -4 q 560 230 623 133 q 370 509 498 326 l 375 525 l 436 525 q 625 598 552 525 q 689 753 689 662 q 504 911 689 911 q 398 900 450 911 q 376 806 378 817 l 258 129 q 252 80 252 96 q 263 50 252 59 q 302 39 275 41 l 370 35 l 366 -4 l 330 -3 q 195 0 239 0 q 71 -3 158 0 l 12 -4 l 18 35 l 75 39 q 127 61 116 42 q 155 174 139 80 l 260 777 q 272 882 272 848 q 223 920 272 918 l 146 922 m 467 1000 l 402 1000 l 269 1235 l 321 1235 l 446 1089 l 643 1235 l 693 1235 l 467 1000 z "},"ř":{"ha":541,"x_min":36,"x_max":607,"o":"m 511 507 l 492 507 q 442 533 470 533 q 326 443 395 533 q 254 322 281 383 q 208 175 227 262 l 172 8 l 154 5 q 79 -12 109 -3 l 65 -3 q 156 371 118 169 q 180 542 180 503 q 156 572 180 572 q 90 539 140 572 l 45 511 l 36 538 l 75 566 q 259 669 219 669 q 291 624 291 669 q 283 566 291 598 l 274 530 q 250 412 262 482 l 239 355 q 332 511 267 416 l 370 564 q 505 669 442 669 q 533 661 514 669 q 511 507 517 580 m 380 708 l 317 708 l 183 943 l 235 943 l 359 797 l 557 943 l 607 943 l 380 708 z "},"Ś":{"ha":772,"x_min":58,"x_max":772,"o":"m 627 746 l 627 851 q 558 899 595 884 q 471 914 522 914 q 308 850 371 914 q 250 706 250 793 q 286 592 250 632 q 383 543 317 557 l 473 524 q 612 467 565 504 q 674 325 674 418 q 576 99 674 197 q 441 10 520 43 q 273 -25 358 -25 q 58 28 162 -25 q 92 239 80 131 l 134 239 l 134 102 q 223 55 180 69 q 322 41 266 41 q 501 108 435 41 q 564 266 564 170 q 452 411 564 384 l 319 443 q 185 521 224 466 q 150 654 150 572 q 238 863 150 776 q 368 949 294 919 q 519 981 443 981 q 703 933 613 981 q 668 746 677 848 l 627 746 m 461 1011 l 673 1221 q 719 1246 699 1246 q 756 1233 741 1246 q 772 1204 772 1221 q 733 1152 772 1176 l 508 1011 l 461 1011 z "},"ś":{"ha":541,"x_min":13,"x_max":583,"o":"m 43 205 l 78 205 l 78 89 q 209 40 136 40 q 330 85 285 40 q 371 192 371 125 q 352 253 371 233 q 288 282 334 273 l 200 298 q 66 439 66 324 q 117 561 66 509 q 227 641 167 612 q 340 669 286 669 q 479 631 404 669 q 453 475 461 542 l 421 475 l 421 551 q 368 597 404 580 q 290 614 332 614 q 189 576 229 614 q 148 484 148 539 q 172 419 148 440 q 257 387 195 399 l 317 376 q 429 330 395 361 q 464 241 464 298 q 440 148 464 189 q 364 65 417 106 q 161 -16 260 -16 q 13 22 90 -16 q 43 205 34 113 m 271 720 l 484 929 q 529 954 509 954 q 567 941 551 954 q 583 911 583 928 q 543 860 583 884 l 318 720 l 271 720 z "},"Ŝ":{"ha":772,"x_min":58,"x_max":724,"o":"m 627 746 l 627 851 q 558 899 595 884 q 471 914 522 914 q 308 850 371 914 q 250 706 250 793 q 286 592 250 632 q 383 543 317 557 l 473 524 q 612 467 565 504 q 674 325 674 418 q 576 99 674 197 q 441 10 520 43 q 273 -25 358 -25 q 58 28 162 -25 q 92 239 80 131 l 134 239 l 134 102 q 223 55 180 69 q 322 41 266 41 q 501 108 435 41 q 564 266 564 170 q 452 411 564 384 l 319 443 q 185 521 224 466 q 150 654 150 572 q 238 863 150 776 q 368 949 294 919 q 519 981 443 981 q 703 933 613 981 q 668 746 677 848 l 627 746 m 602 1235 l 724 1000 l 674 1000 l 560 1145 l 370 1000 l 316 1000 l 534 1235 l 602 1235 z "},"ŝ":{"ha":541,"x_min":12,"x_max":525,"o":"m 43 205 l 77 205 l 77 89 q 208 40 135 40 q 330 85 284 40 q 370 192 370 125 q 352 253 370 233 q 287 282 333 273 l 199 298 q 65 439 65 324 q 117 561 65 509 q 226 641 166 612 q 340 669 286 669 q 479 631 404 669 q 452 475 460 542 l 420 475 l 420 551 q 368 597 404 580 q 289 614 332 614 q 188 576 229 614 q 147 484 147 539 q 171 419 147 440 q 256 387 195 399 l 316 376 q 429 330 394 361 q 463 241 463 298 q 440 148 463 189 q 363 65 416 106 q 161 -16 260 -16 q 12 22 89 -16 q 43 205 33 113 m 402 943 l 525 708 l 475 708 l 361 852 l 170 708 l 117 708 l 334 943 l 402 943 z "},"Ş":{"ha":772,"x_min":58,"x_max":703,"o":"m 305 -24 l 260 -89 q 292 -86 277 -86 q 377 -112 347 -86 q 408 -183 408 -138 q 355 -273 408 -242 q 236 -300 308 -300 q 115 -273 189 -300 l 138 -232 q 235 -252 200 -252 q 288 -234 267 -252 q 309 -189 309 -217 q 290 -151 309 -165 q 243 -136 272 -136 q 205 -142 228 -136 l 197 -144 l 184 -134 l 253 -24 q 58 28 148 -18 q 92 239 80 131 l 134 239 l 134 101 q 223 55 180 68 q 322 41 266 41 q 501 108 435 41 q 564 266 564 170 q 452 411 564 384 l 319 443 q 185 521 224 466 q 150 654 150 572 q 238 863 150 776 q 368 949 294 919 q 519 981 443 981 q 703 933 613 981 q 668 746 677 848 l 627 746 l 627 851 q 558 899 595 884 q 471 914 522 914 q 308 850 371 914 q 250 706 250 793 q 286 592 250 632 q 383 543 317 557 l 473 524 q 612 467 565 504 q 674 325 674 418 q 611 139 674 224 q 479 28 561 72 q 305 -24 397 -16 z "},"ş":{"ha":541,"x_min":12,"x_max":479,"o":"m 229 -6 l 172 -89 q 203 -86 191 -86 q 288 -112 257 -86 q 319 -183 319 -138 q 267 -273 319 -242 q 147 -300 219 -300 q 26 -272 100 -300 l 50 -232 q 145 -252 110 -252 q 199 -234 178 -252 q 219 -189 219 -217 q 201 -151 219 -165 q 154 -136 183 -136 q 117 -142 139 -136 l 108 -144 l 96 -134 l 170 -15 q 160 -16 162 -16 q 12 22 89 -16 q 43 205 33 113 l 77 205 l 77 89 q 208 40 135 40 q 330 85 284 40 q 370 192 370 125 q 352 253 370 233 q 287 282 333 273 l 199 298 q 65 439 65 324 q 117 561 65 509 q 226 641 166 612 q 340 669 286 669 q 479 631 404 669 q 452 475 460 542 l 420 475 l 420 551 q 368 597 404 580 q 289 614 332 614 q 188 576 229 614 q 147 484 147 539 q 171 419 147 440 q 256 387 195 399 l 316 376 q 429 330 394 361 q 463 241 463 298 q 440 148 463 189 q 363 65 416 106 q 229 -6 296 13 z "},"Š":{"ha":772,"x_min":58,"x_max":776,"o":"m 627 746 l 627 851 q 558 899 595 884 q 471 914 522 914 q 308 850 371 914 q 250 706 250 793 q 286 592 250 632 q 383 543 317 557 l 473 524 q 612 467 565 504 q 674 325 674 418 q 576 99 674 197 q 441 10 520 43 q 273 -25 358 -25 q 58 28 162 -25 q 92 239 80 131 l 134 239 l 134 102 q 223 55 180 69 q 322 41 266 41 q 501 108 435 41 q 564 266 564 170 q 452 411 564 384 l 319 443 q 185 521 224 466 q 150 654 150 572 q 238 863 150 776 q 368 949 294 919 q 519 981 443 981 q 703 933 613 981 q 668 746 677 848 l 627 746 m 550 1025 l 486 1025 l 353 1259 l 404 1259 l 529 1114 l 726 1259 l 776 1259 l 550 1025 z "},"š":{"ha":541,"x_min":13,"x_max":583,"o":"m 43 205 l 78 205 l 78 89 q 209 40 136 40 q 330 85 285 40 q 371 192 371 125 q 352 253 371 233 q 288 282 334 273 l 200 298 q 66 439 66 324 q 117 561 66 509 q 227 641 167 612 q 340 669 286 669 q 479 631 404 669 q 453 475 461 542 l 421 475 l 421 551 q 368 597 404 580 q 290 614 332 614 q 189 576 229 614 q 148 484 148 539 q 172 419 148 440 q 257 387 195 399 l 317 376 q 429 330 395 361 q 464 241 464 298 q 440 148 464 189 q 364 65 417 106 q 161 -16 260 -16 q 13 22 90 -16 q 43 205 34 113 m 356 708 l 292 708 l 159 943 l 210 943 l 335 797 l 532 943 l 583 943 l 356 708 z "},"Ţ":{"ha":848,"x_min":73,"x_max":882,"o":"m 541 897 l 411 129 q 405 80 405 96 q 416 50 405 59 q 455 39 427 40 l 537 35 l 533 -4 l 472 -3 q 349 0 389 0 q 231 -2 314 0 l 151 -4 l 157 35 l 227 39 q 281 61 269 41 q 308 174 293 81 l 427 897 l 272 897 q 200 892 235 897 q 159 879 165 886 q 134 817 146 864 l 113 733 l 73 733 l 98 961 l 231 959 q 490 957 412 957 q 755 960 566 957 l 882 961 l 844 733 l 805 733 l 810 822 q 811 833 811 828 q 804 878 811 865 q 643 897 795 897 l 541 897 m 402 -83 l 415 -109 q 219 -406 319 -291 l 175 -424 l 165 -411 q 279 -118 258 -267 q 402 -83 334 -108 z "},"ţ":{"ha":463,"x_min":28,"x_max":431,"o":"m 174 542 l 57 542 l 60 560 q 182 611 98 571 l 217 848 q 325 897 279 871 l 340 877 q 278 603 308 776 q 431 611 353 604 l 415 542 l 267 542 l 250 456 q 189 106 189 160 q 208 78 189 78 q 292 119 232 78 l 354 163 l 368 138 l 346 120 q 201 13 244 38 q 119 -12 158 -12 q 78 43 78 -12 q 90 119 78 66 q 96 149 94 136 l 174 542 m 265 -83 l 278 -109 q 82 -406 182 -292 l 37 -424 l 28 -411 q 142 -118 121 -267 q 265 -83 197 -108 z "},"Ť":{"ha":848,"x_min":73,"x_max":882,"o":"m 541 897 l 411 129 q 405 80 405 96 q 416 50 405 59 q 455 39 427 40 l 537 35 l 533 -4 l 472 -3 q 349 0 389 0 q 231 -2 314 0 l 151 -4 l 157 35 l 227 39 q 281 61 269 41 q 308 174 293 81 l 427 897 l 272 897 q 200 892 235 897 q 159 879 165 886 q 134 817 146 864 l 113 733 l 73 733 l 98 961 l 231 959 q 490 957 412 957 q 755 960 566 957 l 882 961 l 844 733 l 805 733 l 810 822 q 811 833 811 828 q 804 878 811 865 q 643 897 795 897 l 541 897 m 534 1000 l 471 1000 l 337 1235 l 389 1235 l 513 1089 l 711 1235 l 761 1235 l 534 1000 z "},"ť":{"ha":623,"x_min":54,"x_max":582,"o":"m 171 542 l 54 542 l 57 560 q 179 611 96 571 l 214 848 q 322 897 277 871 l 338 877 q 275 603 305 776 q 428 611 351 604 l 412 542 l 264 542 l 247 456 q 186 106 186 160 q 205 78 186 78 q 289 119 229 78 l 351 163 l 366 138 l 343 120 q 198 13 241 38 q 117 -12 155 -12 q 75 43 75 -12 q 87 119 75 66 q 93 149 91 136 l 171 542 m 570 1018 l 582 993 q 386 696 486 810 l 342 677 l 332 690 q 446 983 425 834 q 570 1018 500 993 z "},"Ŧ":{"ha":848,"x_min":73,"x_max":882,"o":"m 481 541 l 636 541 l 623 485 l 471 485 l 411 129 q 405 80 405 96 q 416 50 405 59 q 455 39 427 40 l 537 35 l 533 -4 l 472 -3 q 349 0 389 0 q 231 -2 314 0 l 151 -4 l 157 35 l 227 39 q 281 61 269 41 q 308 174 293 81 l 359 485 l 205 485 l 218 541 l 368 541 l 427 897 l 272 897 q 200 892 235 897 q 159 879 165 886 q 134 817 146 864 l 113 733 l 73 733 l 98 961 l 231 959 q 490 957 412 957 q 755 960 566 957 l 882 961 l 844 733 l 805 733 l 810 822 q 811 833 811 828 q 804 878 811 865 q 643 897 795 897 l 541 897 l 481 541 z "},"ŧ":{"ha":463,"x_min":29,"x_max":431,"o":"m 239 401 l 396 401 l 382 346 l 228 346 l 218 295 q 189 106 189 145 q 208 78 189 78 q 292 119 232 78 l 355 163 l 368 138 l 346 120 q 326 103 335 111 q 199 12 242 36 q 119 -12 156 -12 q 78 43 78 -12 q 90 119 78 66 q 96 149 94 136 l 135 346 l 29 346 l 43 401 l 146 401 l 174 542 l 57 542 l 60 560 q 182 611 99 571 l 217 848 q 326 897 279 871 l 340 877 q 278 603 308 776 q 431 611 354 604 l 416 542 l 267 542 l 239 401 z "},"Ũ":{"ha":1080,"x_min":122,"x_max":1108,"o":"m 1104 922 l 1054 918 q 1003 903 1015 915 q 983 851 990 891 l 866 146 q 857 71 857 92 q 901 40 857 43 l 985 35 l 978 -4 l 933 -2 q 853 0 877 0 q 766 -3 826 0 l 736 -4 l 729 3 q 766 179 751 92 q 670 84 711 117 q 568 22 629 52 q 382 -25 473 -25 q 192 42 260 -25 q 134 201 134 98 q 143 286 134 235 l 232 807 q 241 887 241 863 q 232 911 241 905 q 194 920 222 918 l 122 922 l 126 961 l 170 959 q 252 957 230 957 q 332 959 274 957 l 375 961 l 253 298 q 243 214 243 245 q 283 107 243 148 q 436 54 338 54 q 593 94 514 54 q 684 153 646 121 q 772 245 722 185 l 871 864 q 872 880 872 872 q 823 920 872 918 l 757 922 l 761 961 l 848 959 q 960 957 932 957 q 1086 960 1010 957 l 1108 961 l 1104 922 m 461 1035 l 421 1035 q 465 1135 439 1101 q 558 1178 500 1178 q 644 1158 595 1178 l 728 1125 q 765 1118 745 1118 q 801 1130 787 1118 q 836 1178 814 1141 l 875 1178 q 839 1086 865 1122 q 741 1035 802 1035 q 652 1057 707 1035 l 599 1078 q 595 1079 598 1078 q 586 1082 593 1080 q 534 1096 553 1096 q 492 1083 507 1096 q 461 1035 477 1070 z "},"ũ":{"ha":772,"x_min":45,"x_max":711,"o":"m 515 332 q 390 163 460 243 q 142 -16 232 -16 q 107 1 121 -16 q 94 41 94 17 q 99 107 94 81 l 186 519 q 189 543 189 533 q 165 572 189 572 q 99 539 149 572 l 54 511 l 45 538 l 83 566 q 268 669 228 669 q 299 626 299 669 q 292 566 299 600 l 213 190 q 203 117 203 142 q 221 82 203 82 q 281 104 250 82 q 419 241 354 159 q 515 400 485 323 q 566 574 547 477 l 579 646 l 674 669 l 684 656 q 567 161 618 401 l 566 153 q 559 106 559 123 q 576 82 559 82 q 661 119 604 82 l 698 143 l 711 118 q 562 15 608 42 q 489 -12 516 -12 q 448 43 448 -12 q 463 134 448 79 l 515 332 m 256 743 l 216 743 q 260 843 234 810 q 353 886 295 886 q 439 867 390 886 l 523 833 q 559 827 539 827 q 596 839 581 827 q 631 886 610 850 l 670 886 q 622 781 658 819 q 536 743 587 743 q 446 765 503 743 l 393 786 q 380 791 385 789 q 328 804 347 804 q 287 791 302 804 q 256 743 272 779 z "},"Ū":{"ha":1080,"x_min":122,"x_max":1108,"o":"m 1104 922 l 1054 918 q 1003 903 1015 915 q 983 851 990 891 l 866 146 q 857 71 857 92 q 901 40 857 43 l 985 35 l 978 -4 l 933 -2 q 853 0 877 0 q 766 -3 826 0 l 736 -4 l 729 3 q 766 179 751 92 q 670 84 711 117 q 568 22 629 52 q 382 -25 473 -25 q 192 42 260 -25 q 134 201 134 98 q 143 286 134 235 l 232 807 q 241 887 241 863 q 232 911 241 905 q 194 920 222 918 l 122 922 l 126 961 l 170 959 q 252 957 230 957 q 332 959 274 957 l 375 961 l 253 298 q 243 214 243 245 q 283 107 243 148 q 436 54 338 54 q 593 94 514 54 q 684 153 646 121 q 772 245 722 185 l 871 864 q 872 880 872 872 q 823 920 872 918 l 757 922 l 761 961 l 848 959 q 960 957 932 957 q 1086 960 1010 957 l 1108 961 l 1104 922 m 857 1117 l 842 1046 l 424 1046 l 439 1117 l 857 1117 z "},"ū":{"ha":772,"x_min":45,"x_max":711,"o":"m 515 332 q 390 163 460 243 q 142 -16 232 -16 q 107 1 121 -16 q 94 41 94 17 q 99 107 94 81 l 186 519 q 189 543 189 533 q 165 572 189 572 q 99 539 149 572 l 54 511 l 45 538 l 83 566 q 268 669 228 669 q 299 626 299 669 q 292 566 299 600 l 213 190 q 203 117 203 142 q 221 82 203 82 q 281 104 250 82 q 419 241 354 159 q 515 400 485 323 q 566 574 547 477 l 579 646 l 674 669 l 684 656 q 567 161 618 401 l 566 153 q 559 106 559 123 q 576 82 559 82 q 661 119 604 82 l 698 143 l 711 118 q 562 15 608 42 q 489 -12 516 -12 q 448 43 448 -12 q 463 134 448 79 l 515 332 m 691 818 l 676 747 l 258 747 l 273 818 l 691 818 z "},"Ŭ":{"ha":1080,"x_min":122,"x_max":1108,"o":"m 1104 922 l 1054 918 q 1003 903 1015 915 q 983 851 990 891 l 866 146 q 857 71 857 92 q 901 40 857 43 l 985 35 l 978 -4 l 933 -2 q 853 0 877 0 q 766 -3 826 0 l 736 -4 l 729 3 q 766 179 751 92 q 670 84 711 117 q 568 22 629 52 q 382 -25 473 -25 q 192 42 260 -25 q 134 201 134 98 q 143 286 134 235 l 232 807 q 241 887 241 863 q 232 911 241 905 q 194 920 222 918 l 122 922 l 126 961 l 170 959 q 252 957 230 957 q 332 959 274 957 l 375 961 l 253 298 q 243 214 243 245 q 283 107 243 148 q 436 54 338 54 q 593 94 514 54 q 684 153 646 121 q 772 245 722 185 l 871 864 q 872 880 872 872 q 823 920 872 918 l 757 922 l 761 961 l 848 959 q 960 957 932 957 q 1086 960 1010 957 l 1108 961 l 1104 922 m 427 1252 l 467 1252 q 618 1113 479 1113 q 724 1144 682 1113 q 805 1252 766 1175 l 845 1252 q 817 1168 830 1198 q 783 1112 804 1139 q 609 1031 717 1031 q 454 1112 499 1031 q 427 1252 427 1160 z "},"ŭ":{"ha":772,"x_min":45,"x_max":711,"o":"m 515 332 q 390 163 460 243 q 142 -16 232 -16 q 107 1 121 -16 q 94 41 94 17 q 99 107 94 81 l 186 519 q 189 543 189 533 q 165 572 189 572 q 99 539 149 572 l 54 511 l 45 538 l 83 566 q 268 669 228 669 q 299 626 299 669 q 292 566 299 600 l 213 190 q 203 117 203 142 q 221 82 203 82 q 281 104 250 82 q 419 241 354 159 q 515 400 485 323 q 566 574 547 477 l 579 646 l 674 669 l 684 656 q 567 161 618 401 l 566 153 q 559 106 559 123 q 576 82 559 82 q 661 119 604 82 l 698 143 l 711 118 q 562 15 608 42 q 489 -12 516 -12 q 448 43 448 -12 q 463 134 448 79 l 515 332 m 283 940 l 323 940 q 475 802 336 802 q 579 833 538 802 q 661 940 621 864 l 701 940 q 673 857 686 886 q 638 801 660 828 q 465 720 573 720 q 310 800 355 720 q 283 940 283 848 z "},"Ů":{"ha":1080,"x_min":122,"x_max":1108,"o":"m 1104 922 l 1054 918 q 1003 903 1015 915 q 983 851 990 891 l 866 146 q 857 71 857 92 q 901 40 857 43 l 985 35 l 978 -4 l 933 -2 q 853 0 877 0 q 766 -3 826 0 l 736 -4 l 729 3 q 766 179 751 92 q 670 84 711 117 q 568 22 629 52 q 382 -25 473 -25 q 192 42 260 -25 q 134 201 134 98 q 143 286 134 235 l 232 807 q 241 887 241 863 q 232 911 241 905 q 194 920 222 918 l 122 922 l 126 961 l 170 959 q 252 957 230 957 q 332 959 274 957 l 375 961 l 253 298 q 243 214 243 245 q 283 107 243 148 q 436 54 338 54 q 593 94 514 54 q 684 153 646 121 q 772 245 722 185 l 871 864 q 872 880 872 872 q 823 920 872 918 l 757 922 l 761 961 l 848 959 q 960 957 932 957 q 1086 960 1010 957 l 1108 961 l 1104 922 m 637 1289 q 735 1248 695 1289 q 776 1149 776 1207 q 736 1053 776 1093 q 637 1011 695 1011 q 538 1052 578 1011 q 498 1150 498 1092 q 538 1249 498 1208 q 637 1289 579 1289 m 637 1238 q 574 1214 598 1238 q 551 1149 551 1190 q 574 1085 551 1109 q 637 1061 598 1061 q 699 1086 675 1061 q 723 1149 723 1110 q 699 1214 723 1190 q 637 1238 675 1238 z "},"ů":{"ha":772,"x_min":45,"x_max":711,"o":"m 515 332 q 390 163 460 243 q 142 -16 232 -16 q 107 1 121 -16 q 94 41 94 17 q 99 107 94 81 l 186 519 q 189 543 189 533 q 165 572 189 572 q 99 539 149 572 l 54 511 l 45 538 l 83 566 q 268 669 228 669 q 299 626 299 669 q 292 566 299 600 l 213 190 q 203 117 203 142 q 221 82 203 82 q 281 104 250 82 q 419 241 354 159 q 515 400 485 323 q 566 574 547 477 l 579 646 l 674 669 l 684 656 q 567 161 618 401 l 566 153 q 559 106 559 123 q 576 82 559 82 q 661 119 604 82 l 698 143 l 711 118 q 562 15 608 42 q 489 -12 516 -12 q 448 43 448 -12 q 463 134 448 79 l 515 332 m 470 997 q 567 956 526 997 q 607 858 607 916 q 568 762 607 801 q 469 720 526 720 q 370 760 410 720 q 330 859 330 800 q 370 957 330 917 q 470 997 411 997 m 469 947 q 406 923 429 947 q 382 858 382 899 q 406 794 382 818 q 469 770 429 770 q 530 794 507 770 q 554 858 554 819 q 531 922 554 898 q 469 947 507 947 z "},"Ű":{"ha":1080,"x_min":122,"x_max":1108,"o":"m 1104 922 l 1054 918 q 1003 903 1015 915 q 983 851 990 891 l 866 146 q 857 71 857 92 q 901 40 857 43 l 985 35 l 978 -4 l 933 -2 q 853 0 877 0 q 766 -3 826 0 l 736 -4 l 729 3 q 766 179 751 92 q 670 84 711 117 q 568 22 629 52 q 382 -25 473 -25 q 192 42 260 -25 q 134 201 134 98 q 143 286 134 235 l 232 807 q 241 887 241 863 q 232 911 241 905 q 194 920 222 918 l 122 922 l 126 961 l 170 959 q 252 957 230 957 q 332 959 274 957 l 375 961 l 253 298 q 243 214 243 245 q 283 107 243 148 q 436 54 338 54 q 593 94 514 54 q 684 153 646 121 q 772 245 722 185 l 871 864 q 872 880 872 872 q 823 920 872 918 l 757 922 l 761 961 l 848 959 q 960 957 932 957 q 1086 960 1010 957 l 1108 961 l 1104 922 m 456 1011 l 608 1270 q 659 1306 629 1306 q 709 1264 709 1306 q 683 1217 709 1246 l 502 1011 l 456 1011 m 674 1011 l 826 1270 q 878 1306 847 1306 q 927 1264 927 1306 q 901 1217 927 1246 l 720 1011 l 674 1011 z "},"ű":{"ha":772,"x_min":45,"x_max":745,"o":"m 515 332 q 390 163 460 243 q 142 -16 232 -16 q 107 1 121 -16 q 94 41 94 17 q 99 107 94 81 l 186 519 q 189 543 189 533 q 165 572 189 572 q 99 539 149 572 l 54 511 l 45 538 l 83 566 q 268 669 228 669 q 299 626 299 669 q 292 566 299 600 l 213 190 q 203 117 203 142 q 221 82 203 82 q 281 104 250 82 q 419 241 354 159 q 515 400 485 323 q 566 574 547 477 l 579 646 l 674 669 l 684 656 q 567 161 618 401 l 566 153 q 559 106 559 123 q 576 82 559 82 q 661 119 604 82 l 698 143 l 711 118 q 562 15 608 42 q 489 -12 516 -12 q 448 43 448 -12 q 463 134 448 79 l 515 332 m 274 720 l 425 978 q 477 1015 447 1015 q 527 972 527 1015 q 523 953 527 961 q 500 925 518 945 l 320 720 l 274 720 m 492 720 l 644 978 q 695 1015 665 1015 q 745 972 745 1015 q 719 925 745 955 l 538 720 l 492 720 z "},"Ų":{"ha":1080,"x_min":122,"x_max":1108,"o":"m 1108 961 l 1104 922 l 1054 918 q 1003 903 1015 915 q 983 851 990 891 l 866 146 q 857 71 857 92 q 901 40 857 43 l 985 35 l 978 -4 q 964 -3 968 -3 q 912 -43 939 -3 q 884 -118 884 -83 q 899 -164 884 -146 q 937 -182 914 -182 q 1006 -135 968 -182 l 1025 -140 q 880 -260 961 -260 q 826 -235 846 -260 q 806 -169 806 -210 q 824 -98 806 -132 q 890 -14 842 -65 l 901 -1 q 851 0 868 0 q 766 -3 826 0 l 736 -4 l 729 3 q 766 179 751 92 q 670 84 711 117 q 568 22 629 52 q 382 -25 473 -25 q 192 42 260 -25 q 134 201 134 98 q 143 286 134 235 l 232 807 q 241 887 241 863 q 232 911 241 905 q 194 920 222 918 l 122 922 l 126 961 l 170 959 q 252 957 230 957 q 332 959 274 957 l 375 961 l 253 298 q 243 214 243 245 q 283 107 243 148 q 436 54 338 54 q 593 94 514 54 q 684 153 646 121 q 772 245 722 185 l 871 864 q 872 880 872 872 q 823 920 872 918 l 757 922 l 761 961 l 848 959 q 960 957 932 957 q 1086 960 1010 957 l 1108 961 z "},"ų":{"ha":772,"x_min":45,"x_max":711,"o":"m 579 646 l 674 669 l 684 656 q 567 161 618 401 l 566 153 q 559 106 559 123 q 576 82 559 82 q 661 119 604 82 l 698 143 l 711 118 q 680 94 690 102 q 499 -117 499 -35 q 514 -164 499 -146 q 552 -182 529 -182 q 621 -135 583 -182 l 640 -140 q 495 -260 575 -260 q 441 -235 461 -260 q 421 -170 421 -211 q 438 -99 421 -130 q 508 -10 455 -68 q 490 -12 497 -12 q 448 43 448 -12 q 463 134 448 79 l 515 332 q 390 163 460 243 q 142 -16 232 -16 q 107 1 121 -16 q 94 41 94 17 q 99 107 94 81 l 186 519 q 189 543 189 533 q 165 572 189 572 q 99 539 149 572 l 54 511 l 45 538 l 83 566 q 268 669 228 669 q 299 626 299 669 q 292 566 299 600 l 213 190 q 203 117 203 142 q 221 82 203 82 q 281 104 250 82 q 419 241 354 159 q 515 400 485 323 q 566 574 547 477 l 579 646 z "},"Ŵ":{"ha":1311,"x_min":98,"x_max":1361,"o":"m 420 961 l 420 922 l 369 920 q 307 861 307 916 q 307 855 307 857 l 350 184 l 661 817 q 733 972 701 899 l 758 972 l 977 177 l 1181 819 q 1194 886 1194 859 q 1137 920 1194 916 l 1083 922 l 1090 961 l 1136 959 q 1227 957 1199 957 q 1316 959 1256 957 l 1361 961 l 1361 922 l 1333 920 q 1274 876 1286 915 l 1036 172 q 992 26 1011 100 l 983 -11 l 912 -11 q 858 214 884 123 l 703 758 l 391 142 q 322 -11 357 74 l 252 -11 q 241 220 250 109 l 197 817 q 179 896 193 876 q 123 920 165 915 l 98 922 l 98 961 l 153 959 q 253 957 228 957 q 366 959 292 957 l 420 961 m 812 1235 l 935 1000 l 885 1000 l 771 1145 l 581 1000 l 526 1000 l 745 1235 l 812 1235 z "}}}
